<svg width="94" height="69" viewBox="0 0 94 69" fill="none" xmlns="http://www.w3.org/2000/svg">
<path d="M66.7139 49.2107L59.5316 42.0245V65.7917C59.5316 66.6227 59.2016 67.4195 58.614 68.0071C58.0265 68.5946 57.2296 68.9247 56.3987 68.9247C55.5678 68.9247 54.7709 68.5946 54.1834 68.0071C53.5958 67.4195 53.2657 66.6227 53.2657 65.7917V42.0245L46.0835 49.2107C45.7924 49.5017 45.4468 49.7326 45.0665 49.8902C44.6862 50.0477 44.2786 50.1288 43.8669 50.1288C43.4553 50.1288 43.0476 50.0477 42.6673 49.8902C42.287 49.7326 41.9414 49.5017 41.6504 49.2107C41.3593 48.9196 41.1284 48.574 40.9709 48.1937C40.8133 47.8134 40.7322 47.4058 40.7322 46.9941C40.7322 46.5824 40.8133 46.1748 40.9709 45.7945C41.1284 45.4142 41.3593 45.0686 41.6504 44.7775L54.1821 32.2458C54.4731 31.9545 54.8186 31.7234 55.199 31.5658C55.5793 31.4081 55.987 31.3269 56.3987 31.3269C56.8104 31.3269 57.2181 31.4081 57.5984 31.5658C57.9787 31.7234 58.3243 31.9545 58.6152 32.2458L71.147 44.7775C71.4381 45.0686 71.669 45.4142 71.8265 45.7945C71.984 46.1748 72.0651 46.5824 72.0651 46.9941C72.0651 47.4058 71.984 47.8134 71.8265 48.1937C71.669 48.574 71.4381 48.9196 71.147 49.2107C70.8559 49.5017 70.5104 49.7326 70.13 49.8902C69.7497 50.0477 69.3421 50.1288 68.9305 50.1288C68.5188 50.1288 68.1112 50.0477 67.7309 49.8902C67.3505 49.7326 67.005 49.5017 66.7139 49.2107ZM59.5316 5.20269e-07C53.1309 0.00482911 46.8577 1.79054 41.4139 5.15735C35.9702 8.52416 31.5706 13.3393 28.7074 19.0639C25.2985 18.563 21.8229 18.7703 18.4976 19.673C15.1724 20.5756 12.069 22.1541 9.38128 24.31C6.69354 26.4659 4.47917 29.1528 2.87648 32.2029C1.27378 35.253 0.317196 38.6008 0.066456 42.0372C-0.184284 45.4736 0.276208 48.9249 1.41917 52.1753C2.56214 55.4258 4.36303 58.4056 6.70936 60.9288C9.0557 63.452 11.8971 65.4643 15.0561 66.8401C18.215 68.2158 21.6237 68.9255 25.0693 68.9247H40.734C41.5649 68.9247 42.3618 68.5946 42.9493 68.0071C43.5368 67.4195 43.8669 66.6227 43.8669 65.7917C43.8669 64.9608 43.5368 64.164 42.9493 63.5764C42.3618 62.9889 41.5649 62.6588 40.734 62.6588H25.0693C20.0838 62.6588 15.3026 60.6783 11.7773 57.1531C8.2521 53.6279 6.27164 48.8466 6.27164 43.8612C6.27164 38.8757 8.2521 34.0945 11.7773 30.5692C15.3026 27.044 20.0838 25.0635 25.0693 25.0635C25.5001 25.0635 25.9308 25.0635 26.3577 25.1105C25.5013 28.1539 25.0677 31.3007 25.0693 34.4623C25.0693 35.2932 25.3994 36.0901 25.9869 36.6777C26.5744 37.2652 27.3713 37.5953 28.2022 37.5953C29.0331 37.5953 29.83 37.2652 30.4175 36.6777C31.0051 36.0901 31.3352 35.2932 31.3352 34.4623C31.3359 29.379 32.7109 24.3904 35.3146 20.0245C37.9183 15.6585 41.6538 12.0777 46.1259 9.66084C50.598 7.244 55.6402 6.08109 60.7191 6.29517C65.7979 6.50924 70.7244 8.09234 74.9772 10.8769C79.2301 13.6615 82.651 17.544 84.8781 22.1136C87.1051 26.6831 88.0554 31.7697 87.6284 36.8351C87.2014 41.9005 85.413 46.7563 82.4524 50.8885C79.4918 55.0207 75.4692 58.2758 70.8102 60.3091C70.1487 60.5959 69.6063 61.1021 69.2746 61.7423C68.9428 62.3825 68.8421 63.1175 68.9894 63.8234C69.1366 64.5292 69.5228 65.1626 70.0828 65.6168C70.6428 66.071 71.3424 66.3181 72.0634 66.3165C72.4951 66.3162 72.922 66.2254 73.3166 66.0502C80.5746 62.8842 86.5209 57.3153 90.1554 50.2802C93.7899 43.2452 94.8908 35.1731 93.2731 27.4216C91.6553 19.6702 87.4175 12.7123 81.2725 7.71823C75.1275 2.72418 67.4501 -0.00137484 59.5316 5.20269e-07Z" fill="black"/>
</svg>
