<svg width="40" height="34" viewBox="0 0 40 34" fill="none" xmlns="http://www.w3.org/2000/svg">
<path d="M40 32.3077C40 32.7157 39.8379 33.107 39.5494 33.3955C39.2609 33.6841 38.8696 33.8462 38.4615 33.8462H1.53846C1.13044 33.8462 0.739122 33.6841 0.450605 33.3955C0.162087 33.107 0 32.7157 0 32.3077V1.53846C0 1.13044 0.162087 0.739123 0.450605 0.450605C0.739122 0.162088 1.13044 0 1.53846 0C1.94649 0 2.3378 0.162088 2.62632 0.450605C2.91484 0.739123 3.07692 1.13044 3.07692 1.53846V22.4404L12.7577 12.7577C12.9006 12.6147 13.0702 12.5012 13.257 12.4238C13.4438 12.3463 13.644 12.3065 13.8462 12.3065C14.0483 12.3065 14.2485 12.3463 14.4353 12.4238C14.6221 12.5012 14.7917 12.6147 14.9346 12.7577L20 17.825L30.1327 7.69231H26.1538C25.7458 7.69231 25.3545 7.53022 25.066 7.2417C24.7775 6.95319 24.6154 6.56187 24.6154 6.15385C24.6154 5.74582 24.7775 5.35451 25.066 5.06599C25.3545 4.77747 25.7458 4.61538 26.1538 4.61538H33.8462C34.2542 4.61538 34.6455 4.77747 34.934 5.06599C35.2225 5.35451 35.3846 5.74582 35.3846 6.15385V13.8462C35.3846 14.2542 35.2225 14.6455 34.934 14.934C34.6455 15.2225 34.2542 15.3846 33.8462 15.3846C33.4381 15.3846 33.0468 15.2225 32.7583 14.934C32.4698 14.6455 32.3077 14.2542 32.3077 13.8462V9.86731L21.0885 21.0885C20.9456 21.2315 20.7759 21.345 20.5891 21.4224C20.4024 21.4998 20.2022 21.5397 20 21.5397C19.7978 21.5397 19.5976 21.4998 19.4109 21.4224C19.2241 21.345 19.0544 21.2315 18.9115 21.0885L13.8462 16.0212L3.07692 26.7904V30.7692H38.4615C38.8696 30.7692 39.2609 30.9313 39.5494 31.2198C39.8379 31.5084 40 31.8997 40 32.3077Z" fill="black"/>
</svg>
