<svg width="40" height="40" viewBox="0 0 40 40" fill="none" xmlns="http://www.w3.org/2000/svg">
<path d="M22.2222 1.48148C22.2222 1.87439 22.0661 2.25121 21.7883 2.52905C21.5105 2.80688 21.1337 2.96296 20.7407 2.96296H14.8148C14.4219 2.96296 14.0451 2.80688 13.7673 2.52905C13.4894 2.25121 13.3333 1.87439 13.3333 1.48148C13.3333 1.08857 13.4894 0.711748 13.7673 0.433916C14.0451 0.156084 14.4219 0 14.8148 0H20.7407C21.1337 0 21.5105 0.156084 21.7883 0.433916C22.0661 0.711748 22.2222 1.08857 22.2222 1.48148ZM20.7407 32.5926H14.8148C14.4219 32.5926 14.0451 32.7487 13.7673 33.0265C13.4894 33.3043 13.3333 33.6812 13.3333 34.0741C13.3333 34.467 13.4894 34.8438 13.7673 35.1216C14.0451 35.3995 14.4219 35.5556 14.8148 35.5556H20.7407C21.1337 35.5556 21.5105 35.3995 21.7883 35.1216C22.0661 34.8438 22.2222 34.467 22.2222 34.0741C22.2222 33.6812 22.0661 33.3043 21.7883 33.0265C21.5105 32.7487 21.1337 32.5926 20.7407 32.5926ZM32.5926 2.96296V7.40741C32.5926 7.80032 32.7487 8.17714 33.0265 8.45497C33.3043 8.7328 33.6812 8.88889 34.0741 8.88889C34.467 8.88889 34.8438 8.7328 35.1216 8.45497C35.3995 8.17714 35.5556 7.80032 35.5556 7.40741V2.96296C35.5556 2.17714 35.2434 1.4235 34.6877 0.867832C34.1321 0.312168 33.3784 0 32.5926 0H28.1481C27.7552 0 27.3784 0.156084 27.1006 0.433916C26.8228 0.711748 26.6667 1.08857 26.6667 1.48148C26.6667 1.87439 26.8228 2.25121 27.1006 2.52905C27.3784 2.80688 27.7552 2.96296 28.1481 2.96296H32.5926ZM34.0741 13.3333C33.6812 13.3333 33.3043 13.4894 33.0265 13.7673C32.7487 14.0451 32.5926 14.4219 32.5926 14.8148V20.7407C32.5926 21.1337 32.7487 21.5105 33.0265 21.7883C33.3043 22.0661 33.6812 22.2222 34.0741 22.2222C34.467 22.2222 34.8438 22.0661 35.1216 21.7883C35.3995 21.5105 35.5556 21.1337 35.5556 20.7407V14.8148C35.5556 14.4219 35.3995 14.0451 35.1216 13.7673C34.8438 13.4894 34.467 13.3333 34.0741 13.3333ZM1.48148 22.2222C1.87439 22.2222 2.25121 22.0661 2.52905 21.7883C2.80688 21.5105 2.96296 21.1337 2.96296 20.7407V14.8148C2.96296 14.4219 2.80688 14.0451 2.52905 13.7673C2.25121 13.4894 1.87439 13.3333 1.48148 13.3333C1.08857 13.3333 0.711748 13.4894 0.433916 13.7673C0.156084 14.0451 0 14.4219 0 14.8148V20.7407C0 21.1337 0.156084 21.5105 0.433916 21.7883C0.711748 22.0661 1.08857 22.2222 1.48148 22.2222ZM7.40741 32.5926H2.96296V28.1481C2.96296 27.7552 2.80688 27.3784 2.52905 27.1006C2.25121 26.8228 1.87439 26.6667 1.48148 26.6667C1.08857 26.6667 0.711748 26.8228 0.433916 27.1006C0.156084 27.3784 0 27.7552 0 28.1481V32.5926C0 33.3784 0.312168 34.1321 0.867832 34.6877C1.4235 35.2434 2.17714 35.5556 2.96296 35.5556H7.40741C7.80032 35.5556 8.17714 35.3995 8.45497 35.1216C8.7328 34.8438 8.88889 34.467 8.88889 34.0741C8.88889 33.6812 8.7328 33.3043 8.45497 33.0265C8.17714 32.7487 7.80032 32.5926 7.40741 32.5926ZM7.40741 0H2.96296C2.17714 0 1.4235 0.312168 0.867832 0.867832C0.312168 1.4235 0 2.17714 0 2.96296V7.40741C0 7.80032 0.156084 8.17714 0.433916 8.45497C0.711748 8.7328 1.08857 8.88889 1.48148 8.88889C1.87439 8.88889 2.25121 8.7328 2.52905 8.45497C2.80688 8.17714 2.96296 7.80032 2.96296 7.40741V2.96296H7.40741C7.80032 2.96296 8.17714 2.80688 8.45497 2.52905C8.7328 2.25121 8.88889 1.87439 8.88889 1.48148C8.88889 1.08857 8.7328 0.711748 8.45497 0.433916C8.17714 0.156084 7.80032 0 7.40741 0ZM38.5185 32.5926H35.5556V29.6296C35.5556 29.2367 35.3995 28.8599 35.1216 28.5821C34.8438 28.3042 34.467 28.1481 34.0741 28.1481C33.6812 28.1481 33.3043 28.3042 33.0265 28.5821C32.7487 28.8599 32.5926 29.2367 32.5926 29.6296V32.5926H29.6296C29.2367 32.5926 28.8599 32.7487 28.5821 33.0265C28.3042 33.3043 28.1481 33.6812 28.1481 34.0741C28.1481 34.467 28.3042 34.8438 28.5821 35.1216C28.8599 35.3995 29.2367 35.5556 29.6296 35.5556H32.5926V38.5185C32.5926 38.9114 32.7487 39.2883 33.0265 39.5661C33.3043 39.8439 33.6812 40 34.0741 40C34.467 40 34.8438 39.8439 35.1216 39.5661C35.3995 39.2883 35.5556 38.9114 35.5556 38.5185V35.5556H38.5185C38.9114 35.5556 39.2883 35.3995 39.5661 35.1216C39.8439 34.8438 40 34.467 40 34.0741C40 33.6812 39.8439 33.3043 39.5661 33.0265C39.2883 32.7487 38.9114 32.5926 38.5185 32.5926Z" fill="black"/>
</svg>
