<svg width="38" height="38" viewBox="0 0 38 38" fill="none" xmlns="http://www.w3.org/2000/svg">
<path d="M15.8328 36.4155C15.8328 36.8354 15.666 37.2381 15.3691 37.535C15.0722 37.8319 14.6694 37.9988 14.2495 37.9988H1.58328C1.16337 37.9988 0.760656 37.8319 0.463733 37.535C0.16681 37.2381 0 36.8354 0 36.4155V1.58328C0 1.16337 0.16681 0.760656 0.463733 0.463733C0.760656 0.16681 1.16337 0 1.58328 0H14.2495C14.6694 0 15.0722 0.16681 15.3691 0.463733C15.666 0.760656 15.8328 1.16337 15.8328 1.58328C15.8328 2.00319 15.666 2.40591 15.3691 2.70283C15.0722 2.99975 14.6694 3.16656 14.2495 3.16656H3.16656V34.8322H14.2495C14.6694 34.8322 15.0722 34.999 15.3691 35.2959C15.666 35.5928 15.8328 35.9956 15.8328 36.4155ZM37.5356 17.8792L29.6192 9.9628C29.3222 9.66571 28.9192 9.49881 28.4991 9.49881C28.0789 9.49881 27.676 9.66571 27.3789 9.9628C27.0818 10.2599 26.9149 10.6628 26.9149 11.083C26.9149 11.5031 27.0818 11.9061 27.3789 12.2031L32.5938 17.4161H14.2495C13.8296 17.4161 13.4269 17.5829 13.13 17.8798C12.8331 18.1768 12.6663 18.5795 12.6663 18.9994C12.6663 19.4193 12.8331 19.822 13.13 20.1189C13.4269 20.4158 13.8296 20.5827 14.2495 20.5827H32.5938L27.3789 25.7956C27.0818 26.0927 26.9149 26.4956 26.9149 26.9158C26.9149 27.3359 27.0818 27.7389 27.3789 28.036C27.676 28.333 28.0789 28.4999 28.4991 28.4999C28.9192 28.4999 29.3222 28.333 29.6192 28.036L37.5356 20.1195C37.6829 19.9725 37.7996 19.7979 37.8793 19.6057C37.959 19.4135 38 19.2074 38 18.9994C38 18.7913 37.959 18.5853 37.8793 18.3931C37.7996 18.2009 37.6829 18.0262 37.5356 17.8792Z" fill="#BC0101"/>
</svg>
