<svg width="40" height="32" viewBox="0 0 40 32" fill="none" xmlns="http://www.w3.org/2000/svg">
<path d="M10 2.5C10 2.05797 10.1756 1.63405 10.4882 1.32149C10.8007 1.00893 11.2246 0.833333 11.6667 0.833333H38.3333C38.7754 0.833333 39.1993 1.00893 39.5118 1.32149C39.8244 1.63405 40 2.05797 40 2.5C40 2.94203 39.8244 3.36595 39.5118 3.67851C39.1993 3.99107 38.7754 4.16667 38.3333 4.16667H11.6667C11.2246 4.16667 10.8007 3.99107 10.4882 3.67851C10.1756 3.36595 10 2.94203 10 2.5ZM38.3333 14.1667H11.6667C11.2246 14.1667 10.8007 14.3423 10.4882 14.6548C10.1756 14.9674 10 15.3913 10 15.8333C10 16.2754 10.1756 16.6993 10.4882 17.0118C10.8007 17.3244 11.2246 17.5 11.6667 17.5H38.3333C38.7754 17.5 39.1993 17.3244 39.5118 17.0118C39.8244 16.6993 40 16.2754 40 15.8333C40 15.3913 39.8244 14.9674 39.5118 14.6548C39.1993 14.3423 38.7754 14.1667 38.3333 14.1667ZM38.3333 27.5H11.6667C11.2246 27.5 10.8007 27.6756 10.4882 27.9882C10.1756 28.3007 10 28.7246 10 29.1667C10 29.6087 10.1756 30.0326 10.4882 30.3452C10.8007 30.6577 11.2246 30.8333 11.6667 30.8333H38.3333C38.7754 30.8333 39.1993 30.6577 39.5118 30.3452C39.8244 30.0326 40 29.6087 40 29.1667C40 28.7246 39.8244 28.3007 39.5118 27.9882C39.1993 27.6756 38.7754 27.5 38.3333 27.5ZM2.5 0C2.00555 0 1.5222 0.146623 1.11108 0.421326C0.699953 0.69603 0.379521 1.08648 0.190302 1.54329C0.00108322 2.00011 -0.0484251 2.50277 0.0480379 2.98773C0.144501 3.47268 0.382603 3.91814 0.732234 4.26777C1.08187 4.6174 1.52732 4.8555 2.01228 4.95196C2.49723 5.04843 2.99989 4.99892 3.45671 4.8097C3.91352 4.62048 4.30397 4.30005 4.57867 3.88892C4.85338 3.4778 5 2.99445 5 2.5C5 1.83696 4.73661 1.20107 4.26777 0.732233C3.79893 0.263392 3.16304 0 2.5 0ZM2.5 13.3333C2.00555 13.3333 1.5222 13.48 1.11108 13.7547C0.699953 14.0294 0.379521 14.4198 0.190302 14.8766C0.00108322 15.3334 -0.0484251 15.8361 0.0480379 16.3211C0.144501 16.806 0.382603 17.2515 0.732234 17.6011C1.08187 17.9507 1.52732 18.1888 2.01228 18.2853C2.49723 18.3818 2.99989 18.3322 3.45671 18.143C3.91352 17.9538 4.30397 17.6334 4.57867 17.2223C4.85338 16.8111 5 16.3278 5 15.8333C5 15.1703 4.73661 14.5344 4.26777 14.0656C3.79893 13.5967 3.16304 13.3333 2.5 13.3333ZM2.5 26.6667C2.00555 26.6667 1.5222 26.8133 1.11108 27.088C0.699953 27.3627 0.379521 27.7531 0.190302 28.21C0.00108322 28.6668 -0.0484251 29.1694 0.0480379 29.6544C0.144501 30.1393 0.382603 30.5848 0.732234 30.9344C1.08187 31.2841 1.52732 31.5222 2.01228 31.6186C2.49723 31.7151 2.99989 31.6656 3.45671 31.4764C3.91352 31.2871 4.30397 30.9667 4.57867 30.5556C4.85338 30.1445 5 29.6611 5 29.1667C5 28.5036 4.73661 27.8677 4.26777 27.3989C3.79893 26.9301 3.16304 26.6667 2.5 26.6667Z" fill="black"/>
</svg>
