<svg width="37" height="46" viewBox="0 0 37 46" fill="none" xmlns="http://www.w3.org/2000/svg">
<path d="M26.9091 28.5906C26.9091 29.0367 26.7319 29.4644 26.4165 29.7798C26.1011 30.0952 25.6733 30.2724 25.2273 30.2724H11.7727C11.3267 30.2724 10.8989 30.0952 10.5835 29.7798C10.2681 29.4644 10.0909 29.0367 10.0909 28.5906C10.0909 28.1446 10.2681 27.7168 10.5835 27.4014C10.8989 27.086 11.3267 26.9088 11.7727 26.9088H25.2273C25.6733 26.9088 26.1011 27.086 26.4165 27.4014C26.7319 27.7168 26.9091 28.1446 26.9091 28.5906ZM25.2273 20.1815H11.7727C11.3267 20.1815 10.8989 20.3587 10.5835 20.6741C10.2681 20.9895 10.0909 21.4173 10.0909 21.8633C10.0909 22.3094 10.2681 22.7372 10.5835 23.0526C10.8989 23.368 11.3267 23.5452 11.7727 23.5452H25.2273C25.6733 23.5452 26.1011 23.368 26.4165 23.0526C26.7319 22.7372 26.9091 22.3094 26.9091 21.8633C26.9091 21.4173 26.7319 20.9895 26.4165 20.6741C26.1011 20.3587 25.6733 20.1815 25.2273 20.1815ZM37 6.72697V42.0452C37 42.9372 36.6456 43.7928 36.0148 44.4236C35.384 45.0544 34.5285 45.4088 33.6364 45.4088H3.36364C2.47154 45.4088 1.61599 45.0544 0.985186 44.4236C0.354382 43.7928 0 42.9372 0 42.0452V6.72697C0 5.83488 0.354382 4.97932 0.985186 4.34852C1.61599 3.71771 2.47154 3.36333 3.36364 3.36333H10.9865C11.9315 2.30531 13.0892 1.45879 14.384 0.879198C15.6788 0.299604 17.0814 0 18.5 0C19.9186 0 21.3212 0.299604 22.616 0.879198C23.9108 1.45879 25.0685 2.30531 26.0135 3.36333H33.6364C34.5285 3.36333 35.384 3.71771 36.0148 4.34852C36.6456 4.97932 37 5.83488 37 6.72697ZM11.7727 10.0906H25.2273C25.2273 8.30642 24.5185 6.59531 23.2569 5.3337C21.9953 4.0721 20.2842 3.36333 18.5 3.36333C16.7158 3.36333 15.0047 4.0721 13.7431 5.3337C12.4815 6.59531 11.7727 8.30642 11.7727 10.0906ZM33.6364 6.72697H28.0128C28.3954 7.80715 28.5909 8.94468 28.5909 10.0906V11.7724C28.5909 12.2185 28.4137 12.6462 28.0983 12.9616C27.7829 13.2771 27.3551 13.4542 26.9091 13.4542H10.0909C9.64486 13.4542 9.21709 13.2771 8.90168 12.9616C8.58628 12.6462 8.40909 12.2185 8.40909 11.7724V10.0906C8.40913 8.94468 8.60464 7.80715 8.98722 6.72697H3.36364V42.0452H33.6364V6.72697Z" fill="black"/>
</svg>
