<svg width="38" height="38" viewBox="0 0 38 38" fill="none" xmlns="http://www.w3.org/2000/svg">
<path d="M18.9973 10.283C17.2738 10.283 15.5889 10.7941 14.1559 11.7516C12.7228 12.7092 11.6059 14.0702 10.9464 15.6625C10.2868 17.2548 10.1142 19.0069 10.4505 20.6973C10.7867 22.3877 11.6167 23.9405 12.8354 25.1592C14.0541 26.3779 15.6068 27.2079 17.2972 27.5441C18.9876 27.8803 20.7398 27.7078 22.3321 27.0482C23.9244 26.3886 25.2854 25.2717 26.2429 23.8387C27.2005 22.4056 27.7115 20.7208 27.7115 18.9973C27.7091 16.6869 26.7903 14.4717 25.1565 12.838C23.5228 11.2043 21.3077 10.2854 18.9973 10.283ZM18.9973 24.8068C17.8483 24.8068 16.7251 24.4661 15.7697 23.8277C14.8143 23.1893 14.0697 22.282 13.63 21.2205C13.1903 20.1589 13.0752 18.9908 13.2994 17.8639C13.5236 16.737 14.0769 15.7018 14.8893 14.8893C15.7018 14.0769 16.737 13.5236 17.8639 13.2994C18.9908 13.0752 20.1589 13.1903 21.2205 13.63C22.282 14.0697 23.1893 14.8143 23.8277 15.7697C24.4661 16.7251 24.8068 17.8483 24.8068 18.9973C24.8068 20.5381 24.1947 22.0157 23.1052 23.1052C22.0157 24.1947 20.5381 24.8068 18.9973 24.8068ZM34.9734 19.3894C34.9807 19.128 34.9807 18.8666 34.9734 18.6051L37.6821 15.2211C37.8241 15.0434 37.9224 14.8349 37.9691 14.6122C38.0158 14.3896 38.0095 14.1591 37.9508 13.9394C37.5067 12.2702 36.8425 10.6676 35.9756 9.17377C35.862 8.97827 35.7045 8.81198 35.5154 8.68811C35.3262 8.56425 35.1108 8.48624 34.8863 8.46029L30.58 7.981C30.4009 7.79219 30.2193 7.61065 30.0353 7.43636L29.527 3.11917C29.5009 2.89444 29.4226 2.67892 29.2984 2.48981C29.1742 2.30069 29.0075 2.1432 28.8117 2.02989C27.3173 1.16454 25.7148 0.500965 24.0461 0.0564759C23.8262 -0.00198782 23.5956 -0.00796745 23.373 0.0390189C23.1504 0.0860052 22.9419 0.184643 22.7644 0.326981L19.3894 3.02114C19.128 3.02114 18.8666 3.02114 18.6051 3.02114L15.2211 0.317904C15.0434 0.175876 14.8349 0.0775679 14.6122 0.0308981C14.3896 -0.0157717 14.1591 -0.00949814 13.9394 0.0492139C12.2705 0.494053 10.668 1.15825 9.17377 2.02445C8.97827 2.13796 8.81198 2.29554 8.68811 2.48465C8.56425 2.67375 8.48624 2.88916 8.46029 3.11373L7.981 7.42728C7.79219 7.60762 7.61065 7.78917 7.43636 7.97193L3.11917 8.46755C2.89444 8.4937 2.67892 8.57198 2.48981 8.69617C2.30069 8.82036 2.1432 8.98701 2.02989 9.18285C1.16454 10.6773 0.500965 12.2797 0.0564759 13.9485C-0.00198782 14.1684 -0.00796745 14.3989 0.0390189 14.6215C0.0860052 14.8442 0.184643 15.0527 0.326981 15.2302L3.02114 18.6051C3.02114 18.8666 3.02114 19.128 3.02114 19.3894L0.317904 22.7735C0.175876 22.9511 0.0775679 23.1597 0.0308981 23.3823C-0.0157717 23.6049 -0.00949814 23.8354 0.0492139 24.0552C0.493259 25.7243 1.1575 27.3269 2.02445 28.8208C2.13796 29.0163 2.29554 29.1826 2.48465 29.3064C2.67375 29.4303 2.88916 29.5083 3.11373 29.5343L7.42002 30.0135C7.60036 30.2024 7.78191 30.3839 7.96467 30.5582L8.46755 34.8754C8.4937 35.1001 8.57198 35.3156 8.69617 35.5047C8.82036 35.6939 8.98701 35.8514 9.18285 35.9647C10.6773 36.83 12.2797 37.4936 13.9485 37.9381C14.1684 37.9965 14.3989 38.0025 14.6215 37.9555C14.8442 37.9086 15.0527 37.8099 15.2302 37.6676L18.6051 34.9734C18.8666 34.9807 19.128 34.9807 19.3894 34.9734L22.7735 37.6821C22.9511 37.8241 23.1597 37.9224 23.3823 37.9691C23.6049 38.0158 23.8354 38.0095 24.0552 37.9508C25.7243 37.5067 27.3269 36.8425 28.8208 35.9756C29.0163 35.862 29.1826 35.7045 29.3064 35.5154C29.4303 35.3262 29.5083 35.1108 29.5343 34.8863L30.0135 30.58C30.2024 30.4009 30.3839 30.2193 30.5582 30.0353L34.8754 29.527C35.1001 29.5009 35.3156 29.4226 35.5047 29.2984C35.6939 29.1742 35.8514 29.0075 35.9647 28.8117C36.83 27.3173 37.4936 25.7148 37.9381 24.0461C37.9965 23.8262 38.0025 23.5956 37.9555 23.373C37.9086 23.1504 37.8099 22.9419 37.6676 22.7644L34.9734 19.3894ZM32.0505 18.2094C32.0814 18.7342 32.0814 19.2604 32.0505 19.7852C32.0289 20.1445 32.1415 20.4991 32.3664 20.7801L34.9426 23.9989C34.6469 24.9383 34.2685 25.8497 33.8115 26.7221L29.7086 27.1869C29.3512 27.2265 29.0213 27.3973 28.7827 27.6661C28.4332 28.0592 28.061 28.4314 27.668 28.7808C27.3991 29.0195 27.2283 29.3494 27.1887 29.7067L26.733 33.8061C25.8607 34.2632 24.9493 34.6417 24.0098 34.9371L20.7891 32.361C20.5314 32.155 20.2113 32.043 19.8814 32.0432H19.7943C19.2694 32.0741 18.7433 32.0741 18.2184 32.0432C17.8591 32.0216 17.5046 32.1342 17.2236 32.3591L13.9957 34.9371C13.0562 34.6415 12.1449 34.263 11.2725 33.8061L10.8077 29.7086C10.768 29.3512 10.5973 29.0213 10.3284 28.7827C9.93537 28.4332 9.56317 28.061 9.21371 27.668C8.97503 27.3991 8.64513 27.2283 8.28782 27.1887L4.18849 26.7312C3.73134 25.8588 3.35283 24.9475 3.05745 24.008L5.6336 20.7873C5.85855 20.5063 5.97112 20.1518 5.94949 19.7925C5.91863 19.2676 5.91863 18.7414 5.94949 18.2166C5.97112 17.8573 5.85855 17.5028 5.6336 17.2217L3.05745 13.9957C3.35305 13.0562 3.73155 12.1449 4.18849 11.2725L8.286 10.8077C8.64332 10.768 8.97322 10.5973 9.21189 10.3284C9.56135 9.93537 9.93356 9.56317 10.3266 9.21371C10.5965 8.97488 10.768 8.64422 10.8077 8.286L11.2634 4.18849C12.1357 3.73134 13.0471 3.35283 13.9866 3.05745L17.2072 5.6336C17.4882 5.85855 17.8428 5.97112 18.2021 5.94949C18.7269 5.91863 19.2531 5.91863 19.7779 5.94949C20.1372 5.97112 20.4918 5.85855 20.7728 5.6336L23.9989 3.05745C24.9383 3.35305 25.8497 3.73155 26.7221 4.18849L27.1869 8.286C27.2265 8.64332 27.3973 8.97322 27.6661 9.21189C28.0592 9.56135 28.4314 9.93356 28.7808 10.3266C29.0195 10.5954 29.3494 10.7662 29.7067 10.8059L33.8061 11.2616C34.2632 12.1339 34.6417 13.0452 34.9371 13.9848L32.361 17.2054C32.1338 17.4888 32.0211 17.847 32.0451 18.2094H32.0505Z" fill="black"/>
</svg>
