<svg width="17" height="15" viewBox="0 0 17 15" fill="none" xmlns="http://www.w3.org/2000/svg">
<path d="M2.11296 7.5L8.22901 13.6146C8.36748 13.753 8.44526 13.9408 8.44526 14.1367C8.44526 14.3325 8.36748 14.5203 8.22901 14.6587C8.09055 14.7972 7.90275 14.875 7.70693 14.875C7.51111 14.875 7.32331 14.7972 7.18484 14.6587L0.548184 8.02208C0.479512 7.95359 0.425028 7.87221 0.387853 7.78262C0.350678 7.69304 0.331543 7.59699 0.331543 7.5C0.331543 7.40301 0.350678 7.30696 0.387853 7.21738C0.425028 7.12779 0.479512 7.04641 0.548184 6.97792L7.18484 0.341254C7.32331 0.202789 7.51111 0.125 7.70693 0.125C7.90275 0.125 8.09055 0.202789 8.22901 0.341254C8.36748 0.479719 8.44526 0.667519 8.44526 0.863338C8.44526 1.05916 8.36748 1.24696 8.22901 1.38542L2.11296 7.5Z" fill="#225A4B"/>
<path d="M1.18272 6.76257H15.9309C16.1264 6.76257 16.314 6.84026 16.4523 6.97855C16.5906 7.11685 16.6683 7.30441 16.6683 7.49998C16.6683 7.69555 16.5906 7.88312 16.4523 8.02141C16.314 8.1597 16.1264 8.23739 15.9309 8.23739H1.18272C0.987147 8.23739 0.799585 8.1597 0.661294 8.02141C0.523003 7.88312 0.445312 7.69555 0.445312 7.49998C0.445312 7.30441 0.523003 7.11685 0.661294 6.97855C0.799585 6.84026 0.987147 6.76257 1.18272 6.76257Z" fill="#225A4B"/>
</svg>
