<svg width="80" height="80" viewBox="0 0 124 110" fill="none" xmlns="http://www.w3.org/2000/svg">
<path d="M4.96116 59.6988C1.81307 63.1869 0.05221 67.7076 0.0116357 72.4061C-0.10993 77.1574 0.722117 81.8849 2.45858 86.3092C6.57389 96.2638 20.8662 103.577 31.3491 105.468C41.832 107.358 63.632 113.142 89.8809 105.773C109.762 100.212 124.138 91.4533 123.999 71.7388C123.86 52.0243 103.367 41.1521 59.6557 39.6784C28.9022 38.5661 12.1629 51.9687 4.96116 59.6988Z" fill="#EB996E"/>
<path opacity="0.2" d="M123.999 71.7741C123.976 69.9018 123.753 68.0373 123.331 66.2129C122.97 71.7741 118.299 76.3065 112.876 79.393C103.643 84.6992 93.79 88.8458 83.541 91.7389C73.4904 94.2864 63.1816 95.6765 52.8152 95.882C41.717 95.919 30.7326 93.6463 20.5602 89.2085C10.689 85.1766 2.2916 79.4208 0.400787 69.0769C0.176996 70.2126 0.0652066 71.3674 0.0670854 72.5249C-0.0447789 77.2754 0.786934 82.001 2.51403 86.4279C6.62934 96.3825 20.8939 103.668 31.3768 105.586C41.8597 107.505 63.604 113.205 89.7696 105.892C109.762 100.248 124.138 91.4886 123.999 71.7741Z" fill="black"/>
<g opacity="0.3">
<path d="M111.319 58.9195C107.356 54.6872 102.336 51.5872 96.7768 49.9381C85.9559 46.2675 74.3114 45.7659 63.2149 48.4922L19.1144 54.7486C18.017 56.6201 17.3618 58.7177 17.1989 60.8811C17.036 63.0446 17.3697 65.2166 18.1745 67.2314C18.9794 69.2461 20.234 71.0503 21.8427 72.506C23.4513 73.9618 25.3714 75.0306 27.4562 75.6309C28.45 78.1422 30.305 80.2179 32.6893 81.4865C35.0736 82.7551 37.8315 83.1337 40.4695 82.5547C42.5221 81.6959 44.6836 81.1251 46.8927 80.8585C49.1171 80.8585 51.4251 82.1376 53.4549 81.1922C54.7062 80.6082 55.457 79.3013 56.4024 78.2725C57.7436 76.8111 59.5735 75.8912 61.5465 75.6865C66.0511 75.2138 70.8059 78.4672 74.8934 76.4373C76.0514 77.4812 77.4788 78.1797 79.0136 78.4535C80.5485 78.7274 82.1293 78.5656 83.5769 77.9866C85.0244 77.4076 86.2808 76.4345 87.2033 75.1777C88.1259 73.9209 88.6778 72.4306 88.7965 70.8761C90.2094 71.7181 91.8604 72.0708 93.4941 71.8798C95.1277 71.6888 96.6528 70.9647 97.8334 69.8195C100.687 71.0506 103.763 71.6846 106.87 71.6825C108.429 71.6511 109.94 71.1443 111.203 70.2299C112.465 69.3155 113.418 68.0372 113.933 66.5662C114.119 65.1763 113.979 63.7623 113.526 62.4354C113.072 61.1086 112.317 59.9051 111.319 58.9195Z" fill="black"/>
</g>
<path d="M121.274 60.4785C121.358 60.5728 121.433 60.6752 121.496 60.7844L122.108 61.7576C122.807 63.0202 123.198 64.4304 123.248 65.8729C123.163 68.2053 122.367 70.456 120.968 72.3239C119.176 74.8274 116.908 76.9533 114.294 78.5803C111.514 80.3599 108.094 82.0838 104.507 83.8356C100.92 85.5874 96.9713 87.2558 92.7726 88.8129C88.3596 90.4392 83.8455 91.7767 79.2588 92.817C74.3232 93.8866 69.3276 94.6573 64.2992 95.1249C61.7132 95.3751 59.155 95.5698 56.6525 95.7088C54.1499 95.8479 51.6474 95.9591 49.2004 95.8757C44.5112 95.6905 39.8529 95.029 35.2974 93.9014C31.1535 92.9185 27.0838 91.6455 23.1184 90.092C19.6332 88.8205 16.2652 87.2482 13.0525 85.3928C10.4055 83.8947 7.98915 82.0216 5.87856 79.8315C4.2518 78.1794 2.89163 76.2845 1.84668 74.2147C1.2611 72.883 0.813871 71.4947 0.512005 70.0716L0.289551 68.9316C0.296613 68.8112 0.296613 68.6905 0.289551 68.5701V68.9316C0.289551 69.2096 0.428571 69.5711 0.539795 70.0438C1.41572 73.6955 3.2379 77.0521 5.82298 79.7759C7.93667 81.9625 10.3525 83.8352 12.997 85.3372C16.2442 87.1585 19.6393 88.7026 23.1462 89.953C27.075 91.4531 31.0968 92.6977 35.1862 93.679C39.7427 94.797 44.4009 95.4491 49.0892 95.6254C51.5084 95.6254 54.0109 95.6254 56.5135 95.4586C59.016 95.2917 61.5742 95.1249 64.1601 94.8746C69.1702 94.4071 74.1474 93.6364 79.0642 92.5667C83.6771 91.5456 88.219 90.2267 92.6614 88.6183C96.8601 87.0889 100.781 85.3928 104.396 83.6966C108.01 82.0004 111.291 80.2486 114.183 78.4969C116.778 76.8904 119.036 74.7937 120.829 72.3239C122.204 70.4728 123.007 68.2589 123.137 65.9563C123.133 64.5102 122.8 63.0839 122.164 61.7854L121.58 60.8122L121.274 60.4785Z" fill="#263238"/>
<path d="M6.85209 78.059L6.65747 77.8921C6.65747 77.8921 6.35158 77.5863 6.15694 77.336C5.57318 76.6283 5.06089 75.8645 4.62759 75.0559C3.1281 72.3979 2.56042 69.3148 3.01483 66.297C3.52953 63.2811 5.04836 60.5276 7.32479 58.4835C8.00242 57.8671 8.73809 57.3177 9.52149 56.8429L10.161 56.4814C10.3279 56.4814 10.4113 56.4814 10.4113 56.4814C9.41458 57.1417 8.48345 57.8959 7.63065 58.7337C5.45701 60.7886 4.00405 63.4898 3.48753 66.436C3.06445 69.3837 3.5801 72.3899 4.96129 75.0281C5.51856 76.0821 6.15042 77.095 6.85209 78.059Z" fill="white"/>
<path d="M12.7467 82.8631C12.0715 82.6221 11.4347 82.285 10.8559 81.8621C10.2357 81.5265 9.67255 81.0948 9.1875 80.583C9.86124 80.8075 10.4914 81.1461 11.0505 81.584C11.683 81.9133 12.2562 82.3456 12.7467 82.8631Z" fill="white"/>
<path d="M56.5134 21.5198C64.0211 26.8864 68.9706 27.3313 75.2825 30.6124C82.8148 34.127 91.2841 35.1027 99.4182 33.393C103.283 32.7257 107.76 31.53 110.819 33.8657C111.486 34.3662 112.042 35.0058 112.71 35.5341C113.583 36.1433 114.514 36.6649 115.49 37.0912C117.562 37.8493 119.29 39.3305 120.356 41.2621C121.19 43.292 119.828 46.2394 117.576 46.0448C118.521 46.5175 118.521 47.9634 117.993 48.8254C117.464 49.6874 116.575 50.4937 116.157 51.467C115.694 52.9828 115.763 54.6113 116.352 56.0828C117.201 56.2678 118.001 56.6299 118.7 57.1452C119.399 57.6605 119.981 58.3176 120.409 59.0734C120.837 59.8292 121.1 60.6668 121.182 61.5314C121.264 62.396 121.163 63.2682 120.884 64.0909C120.545 64.7824 120.257 65.4981 120.023 66.232C119.966 67.1023 119.966 67.9754 120.023 68.8458C119.858 70.0246 119.259 71.0996 118.344 71.8607C117.428 72.6217 116.262 73.0141 115.073 72.9611C114.805 74.2735 114.142 75.4725 113.173 76.397C112.203 77.3216 110.974 77.9273 109.651 78.133C110.163 78.3721 110.569 78.7932 110.788 79.3145C111.008 79.8358 111.026 80.42 110.839 80.9538C110.651 81.4875 110.273 81.9327 109.776 82.2027C109.279 82.4728 108.699 82.5485 108.149 82.4151C108.375 83.361 108.384 84.3454 108.178 85.2954C107.971 86.2455 107.553 87.1368 106.954 87.9033C106.356 88.6698 105.593 89.2918 104.722 89.7232C103.85 90.1546 102.893 90.3844 101.921 90.3955C100.858 93.156 98.8199 95.4312 96.1927 96.7909C95.0934 97.7462 93.6998 98.2958 92.2443 98.348C89.8808 98.1812 88.407 95.5674 86.1547 94.8723C85.1815 94.5664 84.0971 94.6498 83.1239 94.3995C82.1507 94.1493 81.1218 93.3151 81.1774 92.2863C80.8185 92.8083 80.292 93.1921 79.6852 93.3741C79.0785 93.5561 78.4277 93.5255 77.8407 93.2873C76.7217 92.6827 75.7672 91.8141 75.0601 90.757C75.7234 92.5369 75.6926 94.5012 74.974 96.2595C74.2553 98.0178 72.9014 99.4413 71.1813 100.247C69.4611 101.053 67.5008 101.182 65.6899 100.608C63.879 100.035 62.3502 98.8013 61.4073 97.1524C61.0477 97.7046 60.5037 98.1112 59.8722 98.2996C59.2407 98.4881 58.5628 98.4461 57.9594 98.1812C56.7601 97.6831 55.6937 96.9118 54.8451 95.9289C53.7884 97.4026 52.4259 99.0432 50.6186 98.9598C50.0561 98.8784 49.4848 98.8784 48.9224 98.9598C47.977 99.1266 47.4765 100.1 46.9203 100.878C46.3083 101.779 45.4758 102.507 44.5022 102.994C43.5286 103.48 42.4465 103.709 41.3591 103.659C40.2813 103.557 39.2631 103.118 38.4493 102.404C37.6355 101.691 37.0677 100.738 36.8267 99.6827C36.5251 100.374 35.998 100.943 35.3314 101.297C34.6648 101.65 33.8981 101.767 33.1563 101.629C32.4227 101.451 31.7685 101.036 31.2958 100.447C30.823 99.8589 30.5581 99.1305 30.5426 98.3758C28.8186 99.21 26.8165 97.8197 25.6765 96.2626C24.6344 94.816 23.8952 93.1738 23.5034 91.4346C23.1116 89.6953 23.0752 87.8948 23.3964 86.1411C23.1732 86.4017 22.8999 86.6147 22.5927 86.7674C22.2856 86.9202 21.9508 87.0096 21.6083 87.0304C21.2659 87.0511 20.9228 87.0028 20.5994 86.8883C20.276 86.7737 19.979 86.5953 19.726 86.3636C18.7348 85.3737 18.0743 84.1013 17.8352 82.721C17.5365 83.7304 16.8959 84.6043 16.0232 85.1929C15.1506 85.7814 14.1002 86.0479 13.0525 85.9465C12.0215 85.7385 11.0639 85.261 10.2775 84.5625C9.49113 83.864 8.90392 82.9695 8.57572 81.9702C7.93876 79.9684 7.67486 77.8666 7.79716 75.7695C7.5407 72.1593 7.98447 68.5337 9.10405 65.0919C9.97298 63.1696 11.0549 61.3508 12.3296 59.6698C14.0099 57.0786 15.8681 54.6072 17.8908 52.2733C22.9807 47.4521 28.574 43.1918 34.5744 39.566C40.5527 35.2838 48.4497 29.7226 50.9522 23.2716C51.7308 21.2417 51.7864 19.1841 52.1201 18.8782C52.4537 18.5723 56.5691 21.5198 56.5691 21.5198" fill="#455A64"/>
<path d="M52.1758 18.8852L52.5094 19.0798L53.8163 19.914C54.9286 20.637 56.597 21.7214 58.4878 23.1117C62.4084 25.8923 67.6638 29.813 73.8367 33.678C76.6909 35.5469 79.7169 37.1391 82.8737 38.4329C85.475 39.4523 88.1785 40.1888 90.9375 40.6295C92.7757 40.9314 94.6358 41.0802 96.4987 41.0744H98.2227H96.6933C94.8326 41.1136 92.972 40.9927 91.1321 40.713C88.3555 40.284 85.6333 39.5569 83.0127 38.5441C79.83 37.2682 76.7838 35.6752 73.9201 33.7892C67.7194 29.9242 62.464 25.9201 58.599 23.1395L53.9832 19.8862L52.7041 19.0242L52.3704 18.8018L52.1758 18.8852Z" fill="white"/>
<path d="M93.5515 45.0213H93.19L91.8553 44.632C90.6875 44.2706 89.0747 43.8256 86.9058 43.2695C84.4297 42.6524 82.0111 41.8245 79.6762 40.7948C76.8371 39.3175 74.2091 37.4658 71.8627 35.2892C66.7464 31.0905 62.1306 27.281 58.7383 24.5282L54.7898 21.3861L53.7054 20.4685L53.4551 20.2461L53.7609 20.4685L54.8454 21.3305L58.8773 24.556L72.0574 35.2336C74.35 37.3341 76.9122 39.1201 79.6762 40.5445C81.9951 41.5809 84.3943 42.4272 86.8502 43.0749C88.9357 43.6588 90.6318 44.1315 91.7719 44.493L93.1066 44.9379H93.4402L93.5515 45.0213Z" fill="white"/>
<path d="M95.2475 71.436H95.0807L94.6358 71.158C94.2744 70.9077 93.6904 70.574 92.9953 70.0735C90.9972 68.7002 89.093 67.1954 87.295 65.5689C86.155 64.5401 84.9593 63.3722 83.7358 62.0375C82.4161 60.602 81.1724 59.0985 80.0098 57.533C77.3329 53.9907 75.0487 50.1681 73.1973 46.1325C72.1685 44.0192 71.2231 41.9616 70.1109 40.0707C69.0348 38.2467 67.8461 36.4915 66.5517 34.8154C64.1047 31.5899 61.6578 28.8649 59.6002 26.6126C57.5425 24.3603 55.7629 22.6085 54.5673 21.3851L53.2048 19.967L54.6229 21.3294C55.8464 22.5529 57.5981 24.3047 59.7114 26.5292C62.1916 29.1251 64.5396 31.8443 66.7463 34.6764C68.0407 36.3622 69.2294 38.1266 70.3055 39.9595C71.4178 41.8503 72.391 43.9358 73.4198 46.049C75.2702 49.9803 77.5254 53.708 80.1489 57.1715C81.3723 58.7842 82.6236 60.2302 83.8193 61.5648C85.0149 62.8995 86.2384 64.0674 87.3785 65.0962C89.1422 66.7229 90.999 68.2455 92.9397 69.6564L94.5524 70.7687L94.9973 71.0745L95.2475 71.436Z" fill="white"/>
<path d="M70.0272 79.7733C70.0331 79.7178 70.0331 79.6619 70.0272 79.6064V79.1059C70.0272 78.661 70.0272 78.0215 70.0272 77.2151C70.0272 75.5467 70.0272 73.1554 70.0272 70.208C70.0272 67.2605 70.0272 63.7292 69.6935 59.8363C69.6935 57.8621 69.3042 55.8322 68.9984 53.7468C68.6491 51.5734 68.185 49.42 67.608 47.2958C67.608 46.7674 67.3022 46.2113 67.1353 45.683C66.9685 45.1547 66.8295 44.6264 66.6348 44.1259C66.2733 43.097 65.9118 42.0682 65.4948 41.095C64.6606 39.1208 63.7152 37.3134 62.7141 35.5338C60.8511 32.0858 58.9603 29.1106 57.3476 26.6358C55.7348 24.1611 54.3445 22.1869 53.3991 20.8522L52.3147 19.295L52.0366 18.8779L52.3425 19.2672C52.6206 19.6287 53.0098 20.1292 53.4825 20.7966C54.4558 22.1591 55.8461 24.1055 57.4866 26.5524C59.1272 28.9994 61.0458 32.1136 63.0478 35.4504C64.0763 37.2516 65.0046 39.1081 65.8285 41.0116C66.2734 41.9848 66.6348 43.0136 66.9963 44.0424C67.191 44.5708 67.3578 45.0991 67.5246 45.6552C67.6915 46.2113 67.8583 46.7118 67.9973 47.268C68.5654 49.3927 69.0202 51.546 69.3598 53.719C69.6657 55.8322 69.9159 57.8899 70.055 59.8363C70.3608 63.7292 70.3608 67.2605 70.333 70.2358C70.3052 73.211 70.333 75.6024 70.1384 77.2429V79.1615V79.6342L70.0272 79.7733Z" fill="white"/>
<path d="M41.6375 85.4735C41.6315 85.4181 41.6315 85.3621 41.6375 85.3067V84.8062C41.6375 84.3613 41.8878 83.7217 42.138 82.8875C42.5829 81.2192 43.3059 78.8278 44.3625 75.936C45.4191 73.0442 46.6982 69.5962 47.9773 65.7312C48.6168 63.8126 49.2286 61.7549 49.7569 59.6138C50.2648 57.3863 50.6362 55.1298 50.8691 52.857C51.3094 48.4685 51.5136 44.0595 51.4809 39.6491C51.4809 35.5894 51.4809 31.919 51.4809 28.8325C51.4809 25.746 51.6199 23.2713 51.7589 21.5195C51.7589 20.6575 51.7589 20.018 51.9258 19.5453V19.0448V18.8779V19.5453C51.9258 20.018 51.9258 20.6853 51.7867 21.5473C51.7867 23.2435 51.7867 25.746 51.6199 28.8325C51.4531 31.919 51.6199 35.5894 51.6199 39.6491C51.6759 44.0685 51.4809 48.4875 51.036 52.8848C50.8075 55.1692 50.4267 57.4358 49.8959 59.6695C49.3954 61.8383 48.7559 63.896 48.1163 65.8146C46.8094 69.6796 45.4747 73.0998 44.4181 75.9916C43.3615 78.8835 42.5829 81.247 42.1102 82.9154C41.86 83.7217 41.7209 84.3891 41.5819 84.8062L41.4429 85.3067C41.5155 85.3526 41.581 85.4088 41.6375 85.4735Z" fill="white"/>
<path d="M49.284 77.2502C49.284 77.2502 49.284 76.9721 49.284 76.4716C49.284 75.9711 49.5065 75.2203 49.6455 74.3027C49.9236 72.4953 50.2016 69.9928 50.3407 67.1844C50.4797 64.376 50.4797 61.8456 50.3407 60.0104V57.8415C50.3223 57.5731 50.3223 57.3036 50.3407 57.0352C50.3759 57.3028 50.3759 57.5739 50.3407 57.8415C50.3407 58.342 50.3407 59.0928 50.3407 60.0104C50.3407 61.8456 50.3407 64.376 50.3407 67.1844C50.2312 69.5896 49.9712 71.9856 49.5621 74.3583C49.3953 75.2481 49.2562 75.9711 49.1172 76.4716C49.2071 76.7226 49.2632 76.9844 49.284 77.2502Z" fill="white"/>
<path d="M29.6807 70.7668L29.9587 70.3775L30.7651 69.3487C31.1266 68.9038 31.5437 68.3477 32.0164 67.7081C32.4891 67.0686 33.073 66.3178 33.6569 65.4836C34.8526 63.8431 36.1873 61.841 37.661 59.5609C39.1347 57.2808 40.6084 54.7505 42.1378 52.0533C43.6671 49.3561 44.9184 46.7145 46.1974 44.2954C47.4765 41.8763 48.3941 39.6796 49.2005 37.7888C49.6176 36.8712 49.9791 36.0092 50.2849 35.2584C50.5908 34.5077 50.8411 33.8681 51.0635 33.3398L51.5362 32.1441L51.7309 31.7271C51.7309 31.7271 51.7309 31.8661 51.5918 32.1441L51.147 33.3954C50.9801 33.9237 50.7298 34.5633 50.424 35.314C50.1181 36.0648 49.7844 36.9268 49.3673 37.8722C48.5888 39.763 47.5878 41.9597 46.4199 44.4066C45.252 46.8536 43.8896 49.4673 42.388 52.1923C40.8865 54.9173 39.3293 57.4477 37.8556 59.7C36.3819 61.9523 35.075 63.9821 33.796 65.5949C33.212 66.429 32.6281 67.152 32.1276 67.7915C31.6271 68.4311 31.21 68.9872 30.8485 69.4321L29.9865 70.4331L29.6807 70.7668Z" fill="white"/>
<path d="M10.8839 81.3893C10.7202 81.1678 10.5716 80.9355 10.439 80.6941C10.3755 80.5586 10.3011 80.4284 10.2166 80.3048L10.0219 79.8043L9.7717 79.2482C9.69035 79.0404 9.62526 78.8266 9.57703 78.6087C9.24378 77.5347 9.0476 76.4229 8.99313 75.2997C8.90973 73.9342 8.97497 72.5637 9.18775 71.2122C9.56878 68.7497 10.3682 66.3704 11.5513 64.1773C11.7737 63.7602 11.9962 63.3987 12.1908 63.0651L12.7469 62.2587L13.2475 61.6191C13.14 61.877 12.9998 62.12 12.8303 62.3421C12.6325 62.5904 12.4646 62.861 12.3299 63.1485C12.1352 63.4821 11.9128 63.8436 11.7181 64.2607C10.609 66.4657 9.84917 68.8296 9.46583 71.2678C9.2491 72.6002 9.16528 73.9508 9.21558 75.2997C9.28388 76.3989 9.46081 77.4887 9.74386 78.553C10.0518 79.5259 10.4329 80.474 10.8839 81.3893Z" fill="white"/>
<path d="M19.7537 84.5868C19.3756 84.0458 19.1195 83.4291 19.003 82.7794C18.8473 82.14 18.8473 81.4725 19.003 80.833C19.003 80.833 19.142 81.695 19.3645 82.7238C19.5869 83.7526 19.8094 84.559 19.7537 84.5868Z" fill="white"/>
<path d="M26.9556 94.658C26.9556 94.658 26.8166 94.658 26.6219 94.4078C26.3779 94.1789 26.1459 93.9376 25.9268 93.6848C25.5973 93.2195 25.3089 92.7264 25.0648 92.2111C24.7676 91.5904 24.5436 90.9372 24.3974 90.2647C24.2453 89.5801 24.1706 88.8805 24.175 88.1792C24.1887 87.6183 24.2539 87.0598 24.3696 86.5108C24.4495 86.1314 24.5611 85.7593 24.7033 85.3986L24.8701 85.0371C24.8701 85.0371 24.8701 85.5932 24.5643 86.5386C24.4706 87.0804 24.4241 87.6294 24.4253 88.1792C24.4489 88.8604 24.5232 89.5389 24.6477 90.209C24.8062 90.8655 25.0201 91.5074 25.2873 92.1277C25.5092 92.6343 25.7792 93.1185 26.0936 93.5736C26.5663 94.2131 26.9834 94.6302 26.9556 94.658Z" fill="white"/>
<path d="M40.1356 101.466C39.5031 101.103 39.0275 100.518 38.8009 99.8252C38.5449 99.144 38.5449 98.3931 38.8009 97.7119C38.8563 98.3916 38.9869 99.063 39.1902 99.714C39.4434 100.329 39.7602 100.916 40.1356 101.466Z" fill="white"/>
<path d="M57.8762 96.4641C57.8762 96.4641 57.5425 96.2694 57.2089 95.7689C56.7553 95.128 56.4426 94.3983 56.2913 93.6278C56.1347 92.8665 56.1347 92.0813 56.2913 91.3199C56.3475 90.9968 56.4605 90.6861 56.6249 90.4023C56.6249 90.4023 56.625 90.7638 56.4859 91.3478C56.3361 92.0817 56.3361 92.8383 56.4859 93.5722C56.6249 94.3109 56.8982 95.0177 57.2923 95.6577C57.6538 96.2416 57.904 96.4641 57.8762 96.4641Z" fill="white"/>
<path d="M64.1879 98.4655C64.1879 98.4655 64.1879 98.4655 63.9377 98.1597C63.7187 97.8855 63.5321 97.5869 63.3816 97.2699C63.1272 96.8075 62.94 96.3113 62.8254 95.7961C62.51 94.5459 62.51 93.2369 62.8254 91.9867C62.9373 91.4695 63.1051 90.966 63.3259 90.4852C63.4665 90.1657 63.634 89.8588 63.8265 89.5676L64.0767 89.2617C64.0767 89.2617 63.8264 89.7344 63.4928 90.5686C63.306 91.0355 63.1663 91.5199 63.0757 92.0145C62.9475 92.6269 62.8915 93.2521 62.9089 93.8775C62.9214 94.5043 62.9959 95.1284 63.1313 95.7405C63.2467 96.2388 63.4145 96.7235 63.6318 97.1865C63.9099 97.9928 64.2157 98.4377 64.1879 98.4655Z" fill="white"/>
<g opacity="0.3">
<path d="M23.5914 46.0489C23.0075 48.19 22.2845 50.1642 24.1753 51.3321C26.0661 52.4999 28.2906 53.0005 30.1814 54.1127C31.1842 54.5858 32.0149 55.3594 32.558 56.326C33.1012 57.2927 33.3298 58.4045 33.2123 59.5071C32.9342 60.7862 31.9332 61.9818 32.3503 63.2331C34.3545 61.4782 35.7878 59.1637 36.4656 56.5874L41.1926 60.091C42.2171 60.7251 43.0676 61.6042 43.6674 62.6492C45.3636 66.264 40.7199 70.4627 42.1658 74.1887C43.6624 71.7687 44.8048 69.1468 45.5582 66.403C48.0051 69.1836 44.1401 74.3833 46.726 77.0805C47.2543 74.5502 47.6715 71.992 48.0051 69.406C50.676 73.5819 53.6206 77.5762 56.8197 81.3627C57.5198 82.3907 58.479 83.2156 59.6003 83.754C62.3809 84.7272 65.1615 82.03 66.9689 79.6387L68.1367 82.2803C69.7217 81.1958 69.2768 78.7211 70.1388 77.0249C71.0539 75.714 72.3719 74.7377 73.8926 74.2443C79.1201 71.8252 85.015 69.3504 90.5762 71.4637C90.3431 71.2356 90.1609 70.9607 90.0417 70.6571C89.9225 70.3535 89.869 70.028 89.8848 69.7022C89.9006 69.3764 89.9852 69.0577 90.1331 68.767C90.2811 68.4763 90.489 68.2202 90.7431 68.0157C91.8339 67.2581 93.0945 66.7806 94.4135 66.6254C100.839 65.0237 106.61 61.4679 110.93 56.4484C115.324 51.5545 118.132 42.9347 116.325 37.5959C113.352 36.7262 110.274 36.2678 107.176 36.2334C102.477 36.2334 70.0275 39.014 70.0275 39.014L43.0834 34.6484L23.5914 46.0489Z" fill="black"/>
</g>
<path d="M115.796 65.0648C117.075 62.2842 116.964 49.5768 113.794 46.9908C106.342 40.9291 88.1014 45.7952 71.807 44.2102C56.1088 42.7671 40.2791 44.2473 25.1206 48.5758C21.1443 49.8271 10.4112 47.8528 7.68619 49.7715C6.82576 53.9876 6.61943 58.3111 7.07445 62.5901C7.12718 65.586 7.99665 68.5108 9.58916 71.049C11.1817 73.5872 13.4368 75.6426 16.1114 76.9936C29.6648 83.1912 44.3911 86.4057 59.2943 86.4199C73.8091 86.4199 94.5524 82.6382 102.7 78.7176C108.639 75.9935 113.321 71.1128 115.796 65.0648Z" fill="#5C8277"/>
<path d="M115.24 51.6948C114.184 39.627 95.0807 33.6209 71.8348 31.3964C56.1367 29.968 40.3097 31.448 25.1484 35.7619C15.9724 38.7094 10.0776 43.3252 7.68623 49.665C7.54422 52.6138 8.25564 55.541 9.7352 58.0957C11.2148 60.6504 13.3997 62.7242 16.0281 64.0685C29.7258 70.5071 44.6336 73.9663 59.767 74.2177C74.2818 74.2177 94.608 69.7688 102.755 65.8759C110.902 61.9831 115.546 54.9759 115.24 51.6948Z" fill="#5C8277"/>
<path opacity="0.3" d="M69.9993 34.9531C66.8083 40.4355 63.1424 45.6274 59.0437 50.4689C55.386 55.6545 51.2829 60.5111 46.7812 64.9837C49.9749 59.4942 53.6406 54.2934 57.7369 49.4401C61.39 44.2596 65.4935 39.4118 69.9993 34.9531Z" fill="black"/>
<path opacity="0.3" d="M87.3784 36.2003C84.3227 41.4414 80.7952 46.3929 76.8399 50.9932C73.3101 55.9765 69.3361 60.6299 64.9667 64.8962C64.6052 64.5903 69.3323 57.9725 75.5052 50.0756C81.6782 42.1786 87.1004 35.9223 87.3784 36.2003Z" fill="black"/>
<path opacity="0.3" d="M102.366 41.6011C100.361 45.8523 97.758 49.7944 94.6356 53.3074C91.9407 57.1578 88.6997 60.5954 85.0146 63.5123C87.4542 59.5608 90.2461 55.8382 93.3565 52.3898C98.2225 46.2447 101.976 41.323 102.366 41.6011Z" fill="black"/>
<path opacity="0.3" d="M48.5332 35.4223C46.1683 40.4861 43.1891 45.2395 39.6631 49.5756C36.5465 54.2365 32.8668 58.4952 28.7075 62.2552C28.346 61.9493 32.8228 55.971 38.2449 48.6024C43.6671 41.2338 48.1717 35.2833 48.5332 35.4223Z" fill="black"/>
<path opacity="0.3" d="M30.6538 39.2871C29.2338 42.1266 27.4278 44.756 25.2872 47.1006C23.5753 49.7854 21.4976 52.2187 19.1143 54.3302C20.1107 51.235 21.7606 48.3902 23.9525 45.9884C25.6961 43.3131 27.9784 41.0307 30.6538 39.2871Z" fill="black"/>
<path d="M32.7394 67.9065H32.4058L31.4604 67.6562C30.6262 67.406 29.4305 67.0723 27.9846 66.5996C26.2743 66.0281 24.5944 65.3692 22.9517 64.6253C20.9638 63.7194 19.0958 62.5706 17.3905 61.2052C15.6638 59.7994 14.2039 58.0947 13.0806 56.1723C12.1684 54.61 11.5466 52.8954 11.2453 51.1116C11.0452 49.9056 11.0452 48.6749 11.2453 47.469C11.2946 47.1394 11.3689 46.814 11.4678 46.4958C11.4678 46.2733 11.4678 46.1621 11.4678 46.1621C11.4678 46.1621 11.4678 46.6348 11.2731 47.469C11.0824 48.6571 11.0824 49.8679 11.2731 51.056C11.6067 52.8044 12.2469 54.48 13.164 56.0055C14.3345 57.8712 15.8322 59.5102 17.5851 60.8437C19.3023 62.1922 21.1682 63.3397 23.1463 64.2639C24.9816 65.1259 26.6777 65.7654 28.1236 66.2937L31.5438 67.4338L32.4892 67.7674L32.7394 67.9065Z" fill="white"/>
<path d="M42.9719 68.6578C42.0478 68.7602 41.1153 68.7602 40.1913 68.6578C39.2583 68.6679 38.3268 68.5841 37.4106 68.4075C38.3339 68.2912 39.268 68.2912 40.1913 68.4075C41.1246 68.3848 42.0575 68.4688 42.9719 68.6578Z" fill="white"/>
<path d="M16.4172 74.0218C16.4172 74.0218 16.1948 74.0218 15.8611 73.7438C15.3846 73.4621 14.9292 73.1462 14.4986 72.7984C13.0827 71.6245 11.8707 70.2246 10.9116 68.6553C9.96822 67.0841 9.3005 65.3631 8.93735 63.5667C8.82658 63.0255 8.75226 62.4774 8.7149 61.9262C8.67902 61.7239 8.67902 61.5168 8.7149 61.3145C8.7149 61.3145 8.85394 62.1764 9.15981 63.5111C9.59757 65.2623 10.2909 66.9394 11.2175 68.4884C12.1862 70.0426 13.3971 71.4318 14.8044 72.6037C15.6942 73.5213 16.445 73.9662 16.4172 74.0218Z" fill="white"/>
<path d="M120.468 38.0681C116.769 23.8592 102.533 -2.13947 57.8482 0.140627C17.5016 2.19828 5.82304 21.9406 1.5131 36.9837C-1.07287 45.9929 5.60059 58.3109 13.6366 63.1214C24.759 69.7949 38.662 71.2964 51.1191 72.1028C67.9047 73.3385 84.7779 71.6832 101.003 67.2089C105.635 66.032 109.901 63.7202 113.415 60.4822C116.93 57.2443 119.583 53.1821 121.135 48.6622C121.606 45.1212 121.379 41.5221 120.468 38.0681Z" fill="#EB996E"/>
<path opacity="0.3" d="M40.136 24.7759C39.4238 24.8854 38.7494 25.1684 38.1724 25.6C37.5954 26.0315 37.1333 26.5984 36.827 27.2506C36.6793 27.4582 36.5829 27.6979 36.5456 27.95C36.5084 28.202 36.5314 28.4593 36.6128 28.7008C36.6942 28.9422 36.8316 29.161 37.0139 29.3391C37.1961 29.5172 37.4179 29.6495 37.6612 29.7254C38.4954 30.0312 39.6076 29.2805 39.9969 28.2794C40.273 27.7405 40.4285 27.148 40.4525 26.543C40.4765 25.938 40.3685 25.335 40.136 24.7759Z" fill="black"/>
<path opacity="0.3" d="M19.6982 29.0584C20.3962 29.2518 21.1309 29.2718 21.8384 29.1167C22.5459 28.9616 23.2048 28.6362 23.7579 28.1686C23.9755 28.036 24.1591 27.8544 24.2943 27.6385C24.4295 27.4225 24.5126 27.178 24.5369 26.9243C24.5611 26.6707 24.526 26.4149 24.4343 26.1772C24.3425 25.9395 24.1966 25.7264 24.0082 25.5549C23.5787 25.2706 23.0612 25.1507 22.5505 25.2171C22.0398 25.2835 21.5701 25.5317 21.2276 25.9163C20.7634 26.3007 20.3868 26.78 20.123 27.3219C19.8592 27.8638 19.7144 28.4559 19.6982 29.0584Z" fill="black"/>
<path opacity="0.3" d="M44.4177 14.0458C43.7812 13.7026 43.0694 13.5229 42.3462 13.5229C41.623 13.5229 40.9112 13.7026 40.2747 14.0458C40.0331 14.1284 39.8141 14.2662 39.6352 14.4484C39.4563 14.6305 39.3224 14.8519 39.2441 15.0949C39.1658 15.3379 39.1453 15.5958 39.1842 15.8481C39.2231 16.1004 39.3204 16.3402 39.4683 16.5483C39.8287 16.9115 40.3073 17.1337 40.8174 17.1745C41.3275 17.2153 41.8353 17.0721 42.2489 16.7708C42.7876 16.5027 43.2611 16.1198 43.6358 15.649C44.0105 15.1782 44.2774 14.6309 44.4177 14.0458Z" fill="black"/>
<path opacity="0.3" d="M59.7947 22.7983C59.6164 22.1065 59.269 21.4699 58.7836 20.9457C58.2982 20.4215 57.6901 20.0262 57.0141 19.7953C56.7909 19.6722 56.5417 19.6037 56.2869 19.5956C56.0322 19.5874 55.7791 19.6397 55.5485 19.7482C55.3179 19.8568 55.1162 20.0184 54.9601 20.2199C54.8041 20.4214 54.698 20.6571 54.6506 20.9075C54.4281 21.7695 55.3179 22.7705 56.3746 23.0764C56.9314 23.2771 57.5248 23.3561 58.1148 23.3081C58.7047 23.2601 59.2776 23.0863 59.7947 22.7983Z" fill="black"/>
<path opacity="0.3" d="M50.1184 33.4541C49.58 33.9363 49.169 34.5438 48.9216 35.2229C48.6742 35.9019 48.5982 36.6315 48.7003 37.347C48.695 37.6032 48.7498 37.8571 48.8604 38.0883C48.9709 38.3196 49.1341 38.5217 49.3369 38.6785C49.5396 38.8353 49.7763 38.9424 50.0279 38.9912C50.2795 39.0401 50.539 39.0293 50.7857 38.9597C51.2415 38.7377 51.6052 38.363 51.8134 37.9007C52.0217 37.4385 52.0615 36.9179 51.9258 36.4294C51.864 35.8304 51.6698 35.2528 51.3572 34.7382C51.0446 34.2236 50.6214 33.785 50.1184 33.4541Z" fill="black"/>
<path opacity="0.3" d="M69.6938 26.166C69.2781 26.7578 69.015 27.443 68.9276 28.1609C68.8403 28.8788 68.9316 29.6072 69.1933 30.2813C69.2407 30.5318 69.3468 30.7674 69.5029 30.9689C69.659 31.1704 69.8606 31.3321 70.0912 31.4406C70.3218 31.5491 70.5749 31.6015 70.8297 31.5933C71.0844 31.5851 71.3336 31.5167 71.5568 31.3936C72.3354 31.0321 72.5578 29.7252 72.1129 28.6129C71.9102 28.0547 71.589 27.5469 71.1714 27.1245C70.7538 26.7021 70.2498 26.3751 69.6938 26.166Z" fill="black"/>
<path opacity="0.3" d="M92.2444 36.8406C92.0092 36.167 91.6124 35.5613 91.0889 35.0766C90.5654 34.5918 89.931 34.2428 89.2413 34.06C89.0099 33.9536 88.7568 33.9026 88.5022 33.9111C88.2476 33.9195 87.9984 33.9871 87.7745 34.1085C87.5505 34.2299 87.358 34.4018 87.212 34.6106C87.066 34.8193 86.9706 35.0592 86.9334 35.3112C86.7944 36.1732 87.712 37.1464 88.7686 37.3689C89.3505 37.547 89.965 37.5919 90.5666 37.5005C91.1683 37.4091 91.7417 37.1835 92.2444 36.8406Z" fill="black"/>
<path opacity="0.3" d="M98.779 26.9457C98.9529 26.2474 98.9525 25.517 98.778 24.8188C98.6035 24.1206 98.26 23.476 97.778 22.9416C97.6446 22.723 97.461 22.5392 97.2424 22.4056C97.0238 22.272 96.7766 22.1924 96.5211 22.1734C96.2656 22.1544 96.0093 22.1965 95.7733 22.2962C95.5374 22.396 95.3286 22.5505 95.1642 22.747C94.8775 23.1822 94.7642 23.7091 94.8465 24.2237C94.9289 24.7384 95.2009 25.2036 95.6091 25.5276C95.9971 25.9868 96.4836 26.3527 97.0324 26.5982C97.5811 26.8437 98.1781 26.9625 98.779 26.9457Z" fill="black"/>
<path opacity="0.3" d="M81.2334 15.8226C81.7156 16.3609 82.3231 16.772 83.0022 17.0194C83.6812 17.2667 84.4108 17.3428 85.1262 17.2407C85.3794 17.2448 85.6301 17.1901 85.8586 17.0811C86.0872 16.9721 86.2874 16.8117 86.4436 16.6124C86.5998 16.4131 86.7078 16.1804 86.759 15.9324C86.8103 15.6844 86.8034 15.428 86.739 15.1831C86.5313 14.7206 86.1643 14.3482 85.7049 14.1338C85.2455 13.9194 84.7243 13.8773 84.2365 14.0152C83.6347 14.0805 83.0545 14.276 82.5359 14.5882C82.0173 14.9003 81.5728 15.3215 81.2334 15.8226Z" fill="black"/>
<path opacity="0.3" d="M57.4033 10.8971C57.8855 11.4354 58.493 11.8465 59.172 12.0938C59.8511 12.3412 60.5807 12.4172 61.2962 12.3152C61.5512 12.3252 61.8049 12.2744 62.0365 12.1672C62.2681 12.06 62.471 11.8994 62.6284 11.6985C62.7859 11.4977 62.8934 11.2623 62.9421 11.0118C62.9909 10.7613 62.9795 10.5028 62.9089 10.2575C62.7143 9.39555 61.4908 8.89505 60.4063 9.08969C59.8046 9.15502 59.2243 9.35052 58.7058 9.66263C58.1872 9.97474 57.7428 10.396 57.4033 10.8971Z" fill="black"/>
<path d="M40.136 23.3311C39.4238 23.4406 38.7494 23.7236 38.1724 24.1551C37.5954 24.5867 37.1333 25.1536 36.827 25.8058C36.6793 26.0134 36.5829 26.2531 36.5456 26.5051C36.5084 26.7572 36.5314 27.0145 36.6128 27.256C36.6942 27.4974 36.8316 27.7162 37.0139 27.8943C37.1961 28.0723 37.4179 28.2047 37.6612 28.2805C38.4954 28.5864 39.6076 27.8356 39.9969 26.8346C40.273 26.2957 40.4285 25.7032 40.4525 25.0982C40.4765 24.4931 40.3685 23.8901 40.136 23.3311Z" fill="white"/>
<path d="M19.6982 27.6141C20.3962 27.8074 21.1309 27.8274 21.8384 27.6724C22.5459 27.5173 23.2048 27.1919 23.7579 26.7243C23.9755 26.5916 24.1591 26.4101 24.2943 26.1941C24.4295 25.9782 24.5126 25.7336 24.5369 25.48C24.5611 25.2264 24.526 24.9705 24.4343 24.7328C24.3425 24.4951 24.1966 24.2821 24.0082 24.1105C23.5787 23.8263 23.0612 23.7064 22.5505 23.7728C22.0398 23.8391 21.5701 24.0874 21.2276 24.472C20.7634 24.8564 20.3868 25.3357 20.123 25.8776C19.8592 26.4195 19.7144 27.0116 19.6982 27.6141Z" fill="white"/>
<path d="M44.4177 12.6009C43.7812 12.2578 43.0694 12.0781 42.3462 12.0781C41.623 12.0781 40.9112 12.2578 40.2747 12.6009C40.0331 12.6836 39.8141 12.8214 39.6352 13.0035C39.4563 13.1857 39.3224 13.4071 39.2441 13.6501C39.1658 13.8931 39.1453 14.151 39.1842 14.4033C39.2231 14.6556 39.3204 14.8954 39.4683 15.1035C39.8287 15.4667 40.3073 15.6889 40.8174 15.7297C41.3275 15.7705 41.8353 15.6272 42.2489 15.3259C42.7876 15.0579 43.2611 14.675 43.6358 14.2042C44.0105 13.7334 44.2774 13.1861 44.4177 12.6009Z" fill="white"/>
<path d="M59.7948 21.3862C59.6165 20.6944 59.269 20.0578 58.7837 19.5336C58.2983 19.0094 57.6902 18.6141 57.0141 18.3832C56.791 18.2601 56.5418 18.1916 56.287 18.1834C56.0322 18.1753 55.7792 18.2276 55.5486 18.3361C55.3179 18.4446 55.1163 18.6063 54.9602 18.8078C54.8041 19.0093 54.6981 19.245 54.6507 19.4954C54.456 20.3574 55.318 21.3584 56.3746 21.6643C56.9315 21.8649 57.5249 21.9439 58.1148 21.896C58.7048 21.848 59.2776 21.6742 59.7948 21.3862Z" fill="white"/>
<path d="M50.1184 32.0098C49.58 32.4919 49.169 33.0995 48.9216 33.7785C48.6742 34.4576 48.5982 35.1872 48.7003 35.9026C48.7007 36.157 48.7592 36.408 48.8715 36.6362C48.9838 36.8645 49.1467 37.0641 49.348 37.2197C49.5492 37.3754 49.7834 37.4829 50.0326 37.5342C50.2818 37.5854 50.5394 37.579 50.7857 37.5154C51.2357 37.2943 51.5952 36.9241 51.8031 36.4679C52.0109 36.0116 52.0543 35.4974 51.9258 35.0128C51.8661 34.4096 51.6729 33.8271 51.3603 33.3077C51.0477 32.7883 50.6235 32.345 50.1184 32.0098Z" fill="white"/>
<path d="M69.7217 24.7212C69.2991 25.3095 69.0296 25.9937 68.9374 26.7121C68.8452 27.4305 68.9331 28.1605 69.1934 28.8365C69.2408 29.0869 69.3469 29.3226 69.503 29.5241C69.659 29.7256 69.8607 29.8873 70.0913 29.9958C70.3219 30.1043 70.575 30.1566 70.8298 30.1485C71.0845 30.1403 71.3337 30.0718 71.5569 29.9487C71.9774 29.6368 72.2689 29.1816 72.3765 28.6692C72.4841 28.1569 72.4003 27.6229 72.1408 27.1681C71.9333 26.6125 71.6104 26.1072 71.1934 25.6855C70.7764 25.2637 70.2749 24.9351 69.7217 24.7212Z" fill="white"/>
<path d="M92.2444 35.2874C92.0092 34.6138 91.6124 34.0081 91.0889 33.5233C90.5654 33.0386 89.931 32.6895 89.2413 32.5067C89.0099 32.4004 88.7568 32.3494 88.5022 32.3578C88.2476 32.3663 87.9984 32.4338 87.7745 32.5553C87.5505 32.6767 87.358 32.8486 87.212 33.0573C87.066 33.2661 86.9706 33.506 86.9334 33.758C86.7944 34.62 87.712 35.5932 88.7686 35.8157C89.3505 35.9937 89.965 36.0387 90.5666 35.9473C91.1683 35.8558 91.7417 35.6303 92.2444 35.2874Z" fill="white"/>
<path d="M98.779 25.414C98.9529 24.7156 98.9525 23.9853 98.778 23.2871C98.6035 22.5889 98.26 21.9443 97.778 21.4099C97.6446 21.1912 97.461 21.0075 97.2424 20.8739C97.0238 20.7403 96.7766 20.6607 96.5211 20.6417C96.2656 20.6226 96.0093 20.6647 95.7733 20.7645C95.5374 20.8642 95.3286 21.0188 95.1642 21.2153C94.8775 21.6505 94.7642 22.1773 94.8465 22.692C94.9289 23.2066 95.2009 23.6718 95.6091 23.9959C95.9971 24.455 96.4836 24.8209 97.0324 25.0664C97.5811 25.3119 98.1781 25.4307 98.779 25.414Z" fill="white"/>
<path d="M81.2334 14.2914C81.7156 14.8297 82.3231 15.2407 83.0022 15.4881C83.6812 15.7355 84.4108 15.8115 85.1262 15.7095C85.3794 15.7135 85.6301 15.6589 85.8586 15.5499C86.0872 15.4409 86.2874 15.2804 86.4436 15.0811C86.5998 14.8819 86.7078 14.6491 86.759 14.4011C86.8103 14.1532 86.8034 13.8967 86.739 13.6518C86.5313 13.1893 86.1643 12.8169 85.7049 12.6026C85.2455 12.3882 84.7243 12.3461 84.2365 12.484C83.6347 12.5493 83.0545 12.7448 82.5359 13.0569C82.0173 13.369 81.5728 13.7902 81.2334 14.2914Z" fill="white"/>
<path d="M57.4033 9.45226C57.8855 9.99058 58.493 10.4016 59.172 10.649C59.8511 10.8964 60.5807 10.9724 61.2962 10.8704C61.5512 10.8803 61.8049 10.8296 62.0365 10.7224C62.2681 10.6152 62.471 10.4546 62.6284 10.2537C62.7859 10.0529 62.8934 9.81749 62.9421 9.56698C62.9909 9.31647 62.9795 9.05797 62.9089 8.81272C62.7143 7.95073 61.4908 7.45023 60.4063 7.64487C59.8046 7.7102 59.2243 7.9057 58.7058 8.2178C58.1872 8.52991 57.7428 8.95114 57.4033 9.45226Z" fill="white"/>
<path d="M87.6287 70.4624H87.3784H86.6554C86.0159 70.4624 85.0705 70.7126 83.8748 70.8516C81.4557 71.1853 77.8965 71.5746 73.531 71.8805C69.1654 72.1863 63.9101 72.381 58.0986 72.3254C55.318 72.3254 52.1481 72.3254 49.006 72.0751C45.8639 71.8249 42.5828 71.7414 39.2461 71.2965C35.9093 70.8516 32.6839 70.2677 29.5974 69.5726C28.0681 69.2111 26.5665 68.8496 25.0928 68.3769C23.674 67.9375 22.2815 67.4176 20.9219 66.8198C18.3818 65.7429 15.9436 64.44 13.6367 62.9269C11.5783 61.6751 9.70623 60.14 8.07546 58.3667C5.77044 55.7494 3.96134 52.7343 2.7367 49.4688C2.25925 48.2846 1.86893 47.0672 1.56885 45.8262C1.56885 45.8262 1.56885 45.8262 1.56885 46.0764L1.7913 46.7716C1.98594 47.3833 2.2918 48.2731 2.7367 49.5522C4.01831 52.7684 5.84299 55.7406 8.13109 58.3389C9.76942 60.0806 11.6409 61.5871 13.6923 62.8157C15.9999 64.3033 18.4274 65.5961 20.9497 66.6807C22.2844 67.2369 23.7303 67.7652 25.1206 68.2101C26.5923 68.6744 28.0864 69.0642 29.5974 69.3779C32.6839 70.0731 35.8815 70.6848 39.2183 71.1019C42.555 71.519 45.7805 71.7136 48.9226 71.8805C52.0647 72.0473 55.1233 72.1307 58.0152 72.1585C63.8266 72.1585 69.1376 72.1585 73.4198 71.7692C77.7019 71.38 81.3445 71.1297 83.7914 70.8516L86.572 70.5458H87.295L87.6287 70.4624Z" fill="#263238"/>
<path d="M102.977 58.2295L102.06 58.6744C101.476 58.9524 100.586 59.3139 99.4738 59.731C93.7264 61.8724 87.6691 63.065 81.5389 63.2624C84.5914 63.0978 87.6293 62.7262 90.6315 62.1501C93.631 61.5596 96.5856 60.7606 99.4738 59.7588L102.088 58.8134C102.358 58.5816 102.657 58.3853 102.977 58.2295Z" fill="#263238"/>
<g opacity="0.3">
<path d="M32.9342 33.4541C33.3856 33.4634 33.8187 33.6339 34.1553 33.9348C34.4919 34.2357 34.7097 34.6471 34.7694 35.0947C34.7774 35.5467 34.6257 35.987 34.3408 36.338C34.0559 36.689 33.6562 36.9282 33.2122 37.0133C32.7602 37.0501 32.3102 36.9207 31.9467 36.6493C31.5833 36.378 31.3313 35.9834 31.238 35.5396C31.1697 35.0921 31.2717 34.6352 31.524 34.2593C31.7763 33.8835 32.1604 33.616 32.6005 33.5097" fill="black"/>
</g>
<g opacity="0.3">
<path d="M32.9064 15.8266C33.2475 15.8157 33.5846 15.9031 33.8774 16.0784C34.1702 16.2537 34.4064 16.5095 34.5579 16.8153C34.7094 17.1211 34.7697 17.464 34.7318 17.8032C34.6938 18.1423 34.5592 18.4634 34.3438 18.7282C34.1285 18.9929 33.8416 19.1902 33.5173 19.2964C33.193 19.4027 32.8449 19.4134 32.5147 19.3274C32.1844 19.2414 31.8859 19.0622 31.6546 18.8113C31.4233 18.5604 31.2691 18.2482 31.2103 17.912C31.1483 17.4654 31.253 17.0116 31.5043 16.6372C31.7556 16.2628 32.136 15.9941 32.5728 15.8822" fill="black"/>
</g>
<g opacity="0.3">
<path d="M101.615 31.1396C102.326 31.2075 102.984 31.5467 103.452 32.0867C103.92 32.6267 104.162 33.3262 104.128 34.0399C104.094 34.7537 103.787 35.427 103.27 35.9201C102.753 36.4132 102.066 36.6883 101.351 36.6883C100.636 36.6883 99.9492 36.4132 99.432 35.9201C98.9149 35.427 98.6074 34.7537 98.5735 34.0399C98.5395 33.3262 98.7816 32.6267 99.2496 32.0867C99.7175 31.5467 100.375 31.2075 101.087 31.1396" fill="black"/>
</g>
<g opacity="0.3">
<path d="M71.9184 13.6489C72.2299 13.7078 72.5134 13.8675 72.7253 14.1034C72.9371 14.3392 73.0656 14.6382 73.0909 14.9543C73.1162 15.2703 73.0369 15.5859 72.8652 15.8524C72.6935 16.119 72.439 16.3217 72.1408 16.4295C71.7706 16.4709 71.3986 16.3705 71.0994 16.1487C70.8001 15.9269 70.596 15.6 70.528 15.2338C70.4753 14.8675 70.5596 14.4947 70.7649 14.1868C70.9702 13.8789 71.2819 13.6576 71.6403 13.5654" fill="black"/>
</g>
<g opacity="0.3">
<path d="M37.6612 38.5369C37.5779 38.5776 37.504 38.6352 37.4441 38.706C37.3843 38.7768 37.3399 38.8594 37.3137 38.9483C37.2875 39.0373 37.2802 39.1307 37.2922 39.2226C37.3041 39.3146 37.3351 39.403 37.3831 39.4823C37.4373 39.557 37.5083 39.6178 37.5905 39.6597C37.6727 39.7016 37.7636 39.7234 37.8558 39.7234C37.9481 39.7234 38.039 39.7016 38.1212 39.6597C38.2033 39.6178 38.2744 39.557 38.3286 39.4823C38.4954 39.1486 38.0227 38.4257 37.6612 38.5369Z" fill="black"/>
</g>
<path d="M23.1461 11.9043L22.8681 12.0989L22.0895 12.5716L20.866 13.3502L19.2811 14.4347C18.725 14.8517 18.0854 15.3244 17.4459 15.8528C16.8063 16.3811 16.139 16.965 15.4438 17.6045C13.9506 18.9876 12.5569 20.4743 11.2729 22.0535C10.0142 23.6632 8.86247 25.3538 7.82501 27.1142C7.38011 27.9206 6.93518 28.6992 6.5737 29.4499C6.21222 30.2007 5.87857 30.8959 5.60051 31.5632C5.32245 32.2305 5.09997 32.8145 4.87752 33.3428C4.65508 33.8711 4.51605 34.316 4.40483 34.7053L4.09896 35.5673C4.09896 35.7619 4.09899 35.8731 3.95996 35.8731C3.96587 35.762 3.96587 35.6506 3.95996 35.5395L4.21021 34.6775C4.21021 34.2882 4.46047 33.8155 4.65511 33.2872C4.84976 32.7589 5.04437 32.1193 5.32243 31.4798C5.60049 30.8402 5.87854 30.0895 6.26783 29.3387C6.65711 28.5879 7.04641 27.7816 7.4913 26.9474C8.51884 25.1653 9.6808 23.4642 10.9671 21.8589C12.2603 20.2616 13.6633 18.7565 15.1658 17.3543C15.8888 16.7426 16.5561 16.1308 17.2234 15.6303C17.8908 15.1298 18.5025 14.6571 19.0864 14.24C19.6704 13.8229 20.2265 13.4892 20.727 13.1834C21.2275 12.8775 21.6168 12.6551 21.9783 12.4604L22.7847 12.0433L23.1461 11.9043Z" fill="white"/>
<path d="M29.6531 8.98291C29.1707 9.37694 28.6255 9.68711 28.0403 9.90051C27.0949 10.3454 26.3164 10.6235 26.2886 10.5122C26.7594 10.1016 27.3078 9.78959 27.9013 9.59464C28.4439 9.28735 29.0372 9.08014 29.6531 8.98291Z" fill="white"/>
</svg>
