<svg width="80" height="80" viewBox="0 0 129 110" fill="none" xmlns="http://www.w3.org/2000/svg">
<path d="M57.9475 73.04V92.6627H51.2046L65.7322 109.596L79.3695 93.0226H72.4751V73.04H57.9475Z" fill="#5F7C73"/>
<path opacity="0.3" d="M57.9475 73.04V92.6627H51.2046L65.7322 109.596L79.3695 93.0226H72.4751V73.04H57.9475Z" fill="black"/>
<path d="M105.337 29.3077C103.529 22.2831 99.8001 15.901 94.5677 10.8775C89.3353 5.85391 82.8067 2.38752 75.7143 0.867153C68.6219 -0.653215 61.2461 -0.16744 54.4143 2.26999C47.5826 4.70743 41.565 9.00013 37.0367 14.6665C35.779 14.5223 34.5145 14.4464 33.2486 14.4392C28.9205 14.3347 24.6153 15.0968 20.5862 16.6809C16.5571 18.2649 12.8856 20.6388 9.78753 23.6628C6.68952 26.6869 4.22765 30.3001 2.54678 34.2897C0.865911 38.2794 0 42.565 0 46.8943C0 51.2235 0.865911 55.5091 2.54678 59.4987C4.22765 63.4884 6.68952 67.1016 9.78753 70.1256C12.8856 73.1497 16.5571 75.5236 20.5862 77.1076C24.6153 78.6917 28.9205 79.4538 33.2486 79.3492H103.954C110.477 79.3508 116.742 76.8074 121.418 72.2602C126.093 67.713 128.81 61.5209 128.99 55.0012C129.171 48.4815 126.8 42.1487 122.382 37.3503C117.965 32.5518 111.849 29.6664 105.337 29.3077Z" fill="#7D9A90"/>
<path d="M112.799 70.558C112.799 70.4254 114.087 69.5163 115.906 67.6411C118.285 65.2048 120.125 62.294 121.304 59.0988C122.434 55.8865 122.885 52.4748 122.63 49.0792C122.421 46.4653 121.948 44.8743 122.099 44.8364C122.793 46.124 123.207 47.5443 123.311 49.0034C123.806 52.5141 123.435 56.0924 122.23 59.4267C121.025 62.761 119.023 65.7501 116.398 68.1336C115.382 69.1858 114.156 70.0119 112.799 70.558Z" fill="#263238"/>
<path d="M37.945 24.1187C37.945 24.2892 36.0509 23.8914 33.2288 23.8536C29.4684 23.7835 25.7373 24.5276 22.2915 26.0347C18.8456 27.5419 15.7665 29.7765 13.2652 32.5853C11.3711 34.7256 10.4241 36.3734 10.2915 36.2219C10.824 34.7084 11.6549 33.3172 12.7349 32.1307C15.1886 29.1 18.3342 26.7027 21.907 25.1404C25.4799 23.5781 29.3756 22.8965 33.2667 23.1528C34.8744 23.1643 36.4642 23.4925 37.945 24.1187Z" fill="#263238"/>
<path d="M59.8605 8.09509C58.7923 8.44311 57.7044 8.72771 56.6027 8.94742C54.0376 9.67503 51.6205 10.8483 49.462 12.4136C47.3131 13.9782 45.4487 15.9002 43.9502 18.0958C43.3836 19.0844 42.7508 20.0336 42.0562 20.9369C42.2203 19.7909 42.6412 18.6966 43.2873 17.7359C44.6557 15.3081 46.5366 13.2075 48.7991 11.5802C51.0536 9.93005 53.638 8.78645 56.3754 8.22766C57.511 7.91305 58.7043 7.86766 59.8605 8.09509Z" fill="#263238"/>
<path d="M90.2597 79.0452C90.2597 79.3104 80.7893 79.5377 68.9513 79.5377C57.1133 79.5377 47.624 79.3104 47.624 79.0452C47.624 78.78 57.1702 78.5527 68.9134 78.5527C80.6567 78.5527 90.2597 78.7611 90.2597 79.0452Z" fill="#263238"/>
</svg>
