<svg width="19" height="14" viewBox="0 0 19 14" fill="none" xmlns="http://www.w3.org/2000/svg">
<path d="M18.9454 6.73675C18.9177 6.67256 18.2471 5.14587 16.7564 3.61594C14.7701 1.57737 12.2613 0.5 9.5 0.5C6.73866 0.5 4.22987 1.57737 2.24358 3.61594C0.752868 5.14587 0.0791591 6.675 0.0546175 6.73675C0.018607 6.81988 0 6.90984 0 7.00081C0 7.09179 0.018607 7.18175 0.0546175 7.26487C0.0823258 7.32906 0.752868 8.85494 2.24358 10.3849C4.22987 12.4226 6.73866 13.5 9.5 13.5C12.2613 13.5 14.7701 12.4226 16.7564 10.3849C18.2471 8.85494 18.9177 7.32906 18.9454 7.26487C18.9814 7.18175 19 7.09179 19 7.00081C19 6.90984 18.9814 6.81988 18.9454 6.73675ZM9.5 12.2C7.06325 12.2 4.93445 11.2908 3.1722 9.49844C2.44913 8.76044 1.83396 7.9189 1.34583 7C1.83383 6.08101 2.44901 5.23946 3.1722 4.50156C4.93445 2.70919 7.06325 1.8 9.5 1.8C11.9368 1.8 14.0655 2.70919 15.8278 4.50156C16.5523 5.23928 17.1688 6.08083 17.6581 7C17.0873 8.09363 14.6007 12.2 9.5 12.2ZM9.5 3.1C8.74843 3.1 8.01374 3.32873 7.38883 3.75727C6.76392 4.18581 6.27687 4.7949 5.98925 5.50753C5.70164 6.22017 5.62639 7.00433 5.77301 7.76085C5.91964 8.51738 6.28155 9.21229 6.81299 9.75772C7.34443 10.3031 8.02153 10.6746 8.75866 10.8251C9.49578 10.9755 10.2598 10.8983 10.9542 10.6031C11.6486 10.3079 12.242 9.80808 12.6596 9.16672C13.0771 8.52537 13.3 7.77135 13.3 7C13.299 5.96599 12.8983 4.97463 12.1859 4.24347C11.4734 3.51231 10.5075 3.10108 9.5 3.1ZM9.5 9.6C8.99895 9.6 8.50916 9.44751 8.09255 9.16182C7.67595 8.87613 7.35124 8.47006 7.1595 7.99498C6.96776 7.51989 6.91759 6.99712 7.01534 6.49276C7.11309 5.98841 7.35437 5.52514 7.70866 5.16152C8.06295 4.79791 8.51435 4.55028 9.00577 4.44996C9.49719 4.34964 10.0066 4.40112 10.4695 4.59791C10.9324 4.7947 11.328 5.12795 11.6064 5.55552C11.8848 5.98309 12.0333 6.48577 12.0333 7C12.0333 7.68956 11.7664 8.35088 11.2913 8.83848C10.8162 9.32607 10.1719 9.6 9.5 9.6Z" fill="#808080"/>
</svg>
