<svg width="18" height="18" viewBox="0 0 18 18" fill="none" xmlns="http://www.w3.org/2000/svg">
<path d="M6.04311 0.48224C4.2275 1.09946 2.66171 2.27097 1.57575 3.82468C0.489784 5.37839 -0.0591185 7.23242 0.00966484 9.11443C0.0784481 10.9964 0.761292 12.8072 1.9579 14.2808C3.1545 15.7544 4.8018 16.8132 6.65782 17.3015C8.16254 17.682 9.73904 17.6987 11.2518 17.3502C12.6222 17.0486 13.8892 16.4034 14.9287 15.4777C16.0106 14.4849 16.7959 13.2219 17.2001 11.8245C17.6395 10.3049 17.7177 8.70677 17.4287 7.15292H8.97894V10.5877H13.8725C13.7747 11.1356 13.5651 11.6584 13.2563 12.125C12.9475 12.5916 12.5458 12.9924 12.0752 13.3033C11.4776 13.6907 10.804 13.9513 10.0976 14.0685C9.38914 14.1975 8.66244 14.1975 7.95396 14.0685C7.23588 13.923 6.5566 13.6325 5.95935 13.2157C4.99988 12.5501 4.27945 11.6046 3.90086 10.514C3.51587 9.403 3.51587 8.19854 3.90086 7.08754C4.17035 6.30878 4.61584 5.59973 5.2041 5.0133C5.87728 4.32988 6.72956 3.84137 7.66741 3.60136C8.60526 3.36135 9.59246 3.37913 10.5207 3.65273C11.2458 3.87085 11.9089 4.25196 12.4571 4.76567C13.0089 4.22775 13.5597 3.68843 14.1096 3.14773C14.3935 2.85698 14.703 2.58013 14.9826 2.28242C14.1458 1.51933 13.1636 0.925547 12.0922 0.535104C10.1412 -0.159106 8.00645 -0.177762 6.04311 0.48224Z" fill="#322115"/>
<path d="M6.04314 0.482428C8.00632 -0.178023 10.1411 -0.159858 12.0923 0.533901C13.1638 0.926996 14.1456 1.52364 14.9813 2.28956C14.6973 2.58728 14.3978 2.86551 14.1082 3.15487C13.5573 3.69372 13.007 4.23072 12.4571 4.76586C11.9089 4.25215 11.2458 3.87104 10.5207 3.65292C9.5928 3.37835 8.60564 3.35955 7.66753 3.59858C6.72943 3.8376 5.87664 4.32522 5.20271 5.00792C4.61446 5.59435 4.16896 6.3034 3.89947 7.08216L0.956543 4.84933C2.00993 2.8023 3.83381 1.23648 6.04314 0.482428Z" fill="#E33629"/>
<path d="M0.176032 7.06109C0.334211 6.29287 0.596821 5.54892 0.956839 4.84912L3.89977 7.08752C3.51478 8.19852 3.51478 9.40299 3.89977 10.514C2.91927 11.2559 1.93829 12.0016 0.956839 12.751C0.0555761 10.993 -0.219293 8.98996 0.176032 7.06109Z" fill="#F8BD00"/>
<path d="M8.97915 7.15137H17.4289C17.7179 8.70522 17.6397 10.3033 17.2003 11.8229C16.7961 13.2203 16.0108 14.4833 14.9289 15.4762C13.9791 14.75 13.0251 14.0293 12.0754 13.3031C12.5463 12.9919 12.9482 12.5907 13.257 12.1236C13.5658 11.6565 13.7752 11.1331 13.8727 10.5848H8.97915C8.97773 9.44124 8.97915 8.2963 8.97915 7.15137Z" fill="#587DBD"/>
<path d="M0.955566 12.7517C1.93702 12.0097 2.91799 11.264 3.8985 10.5146C4.27784 11.6056 4.9993 12.5512 5.95983 13.2163C6.55893 13.6312 7.23969 13.9193 7.95869 14.0621C8.66718 14.1912 9.39388 14.1912 10.1024 14.0621C10.8088 13.945 11.4824 13.6843 12.0799 13.297C13.0297 14.0232 13.9837 14.7438 14.9334 15.47C13.8941 16.3962 12.6271 17.0419 11.2565 17.3439C9.74377 17.6924 8.16727 17.6757 6.66255 17.2952C5.47247 16.9839 4.36084 16.4349 3.39736 15.6829C2.37757 14.8895 1.54466 13.8896 0.955566 12.7517Z" fill="#319F43"/>
</svg>
