<svg width="80" height="80" viewBox="0 0 137 110" fill="none" xmlns="http://www.w3.org/2000/svg">
<path d="M68.617 108.617C98.4328 108.617 122.603 84.4464 122.603 54.6307C122.603 24.815 98.4328 0.644531 68.617 0.644531C38.8013 0.644531 14.6309 24.815 14.6309 54.6307C14.6309 84.4464 38.8013 108.617 68.617 108.617Z" fill="white"/>
<path d="M112.822 83.9917C107.99 91.2958 101.424 97.2887 93.7103 101.435C85.9966 105.581 77.3756 107.751 68.6182 107.751C59.8608 107.751 51.2398 105.581 43.526 101.435C35.8123 97.2887 29.2462 91.2958 24.4147 83.9917H22.3369C27.2736 91.7985 34.1052 98.2294 42.1957 102.686C50.2863 107.142 59.3728 109.479 68.6095 109.479C77.8462 109.479 86.9327 107.142 95.0233 102.686C103.114 98.2294 109.945 91.7985 114.882 83.9917H112.822Z" fill="#5C8277"/>
<path d="M15.6001 51.7545C16.374 38.2175 22.2968 25.4893 32.1544 16.1792C42.012 6.86907 55.0575 1.68237 68.6166 1.68237C82.1757 1.68237 95.2212 6.86907 105.079 16.1792C114.936 25.4893 120.859 38.2175 121.633 51.7545H123.365C122.578 37.7668 116.467 24.6108 106.286 14.9866C96.1049 5.36238 82.6264 0 68.6166 0C54.6068 0 41.1283 5.36238 30.9474 14.9866C20.7666 24.6108 14.6556 37.7668 13.8687 51.7545H15.6001Z" fill="#5C8277"/>
<path d="M72.6329 94.0898C72.0198 94.0908 71.4091 94.0152 70.8149 93.8647C63.6814 92.1333 54.5221 85.3287 52.3058 80.1518C51.6479 78.6108 51.2324 77.3641 50.8688 76.256C50.0419 73.4238 48.6455 70.7902 46.7653 68.5165L46.4882 68.1356L45.8303 67.2526L44.2373 71.4599H43.7699C43.2613 71.458 42.7599 71.3401 42.3038 71.115C41.8477 70.89 41.449 70.5638 41.1381 70.1614C41.465 67.5752 42.2444 65.0668 43.4409 62.7508L43.5621 62.5084L43.4755 62.266C42.9279 60.6657 42.5223 59.0203 42.2635 57.3488V57.0717L42.0558 56.9332C41.3711 56.395 40.8296 55.6964 40.4793 54.8991C40.129 54.1019 39.9806 53.2305 40.0473 52.3622C39.9261 46.3368 44.7222 37.8874 50.332 34.3034C50.6863 34.08 51.0567 33.8832 51.4401 33.7147C55.838 29.9228 61.292 21.5946 61.9326 16.5042C62.624 16.1282 63.3965 15.9262 64.1835 15.9155C64.8616 15.9187 65.5282 16.0913 66.1227 16.4176C65.7612 18.5463 65.139 20.6223 64.27 22.5989L65.257 23.2741C66.7707 21.7081 68.524 20.3931 70.4513 19.3784L70.9014 19.1879L70.3301 15.8463C70.3334 15.7638 70.3535 15.6828 70.3892 15.6084C70.425 15.534 70.4755 15.4676 70.5378 15.4134C70.9346 15.0464 71.4519 14.837 71.9922 14.8247C72.1276 14.7833 72.2724 14.7833 72.4078 14.8247C72.6848 15.9848 72.9445 17.4911 72.9445 17.5085L73.0657 18.1318L76.2516 17.3873L75.888 14.1321C75.888 13.9071 76.5113 13.6473 77.1865 13.6473C77.4768 13.6207 77.768 13.6874 78.0176 13.8378C78.1042 14.9113 78.1908 16.6427 78.1908 16.6427V17.2141H81.2554L81.8788 14.0802C81.8788 13.9417 82.1904 13.9071 82.3982 13.9071C82.6585 13.8946 82.9182 13.9411 83.1581 14.043C83.3979 14.145 83.6116 14.2997 83.7833 14.4958L82.8484 17.7682L83.2812 17.9933C83.9241 18.3444 84.5429 18.7377 85.1338 19.1706L85.4801 19.4303L85.8437 19.1706C86.9691 18.3569 87.9387 17.7162 88.7698 17.2314C89.0741 17.2346 89.3738 17.3063 89.6465 17.4412C89.9193 17.5761 90.1582 17.7707 90.3455 18.0106C90.5322 18.2545 90.6682 18.5334 90.7455 18.8308C90.8229 19.1281 90.8399 19.438 90.7956 19.742C89.9472 20.2961 89.0642 20.8501 88.3024 21.4734L87.8348 21.8024L88.1465 22.3045C88.7876 23.4257 89.3657 24.5818 89.878 25.7674C89.4643 26.4075 88.9147 26.9488 88.2684 27.3527C87.6221 27.7567 86.8948 28.0135 86.1381 28.1048C85.5723 27.1328 84.9478 26.1961 84.2681 25.2999L83.8872 24.7805L83.4024 25.1787C80.7187 27.3257 78.7968 29.0744 77.6713 30.1826L77.0654 30.7712L77.8272 31.1522C79.2127 31.8821 80.4374 32.8831 81.4286 34.0956H81.5151C82.1882 34.4663 82.9456 34.6572 83.7141 34.6497C84.6586 34.6053 85.5944 34.4484 86.5017 34.1822H86.7441C87.6501 33.9737 88.532 33.6719 89.3759 33.2818C89.8271 33.6867 90.1812 34.188 90.412 34.7485C90.6428 35.3091 90.7444 35.9144 90.709 36.5196L86.1554 39.1514C85.6382 39.4846 85.2432 39.9768 85.0299 40.5538V40.727V40.9348C85.2149 41.631 85.3252 42.3449 85.3589 43.0644V43.3241L85.5494 43.4973C87.5649 45.1538 89.0218 47.3905 89.7222 49.9036C91.973 58.8205 89.22 67.0102 86.7787 74.1437C86.2246 75.8751 85.6879 77.3815 85.2377 78.8878C83.3677 86.004 78.7968 94.0898 72.6329 94.0898Z" fill="white"/>
<path d="M85.3423 79.0428C87.697 71.0435 92.597 60.9839 89.8267 50.0066C89.249 47.8743 88.0994 45.9404 86.5023 44.4141C84.8568 42.9129 82.8012 41.9364 80.5981 41.6091C79.0684 41.3501 77.5585 40.9856 76.0791 40.5183C74.9571 39.9648 73.8004 39.4847 72.6162 39.0813C71.1099 38.7523 69.4823 38.9081 67.9586 38.6138C71.4215 43.6349 79.3688 43.583 83.0568 48.4137C84.6836 50.9039 85.4945 53.839 85.3769 56.8111C85.4347 58.2719 85.336 59.7346 85.0825 61.1744C84.615 63.4425 83.5069 65.5549 82.9529 67.8231C82.6239 69.2255 82.4854 70.6626 82.243 72.0997C81.5128 76.3675 79.7272 80.3851 77.0487 83.7869C76.5687 84.4536 75.984 85.0383 75.3172 85.5183C72.3565 87.4575 68.1491 85.6915 65.5 83.9774C63.7463 82.8007 62.1213 81.4427 60.652 79.9258C59.429 78.5349 58.3715 77.0068 57.5008 75.3721L54.7305 70.9223C53.8031 69.5956 53.0687 68.144 52.5489 66.6111C52.1164 64.8033 52.0108 62.9327 52.2372 61.0878C52.6181 56.2917 53.7262 51.0628 57.5354 48.1367C59.1629 46.9073 61.1368 46.1974 62.8163 45.0547C63.702 44.5499 64.4349 43.8153 64.9378 42.9284C65.4406 42.0416 65.6947 41.0355 65.6731 40.0162V39.6873C65.3634 40.7236 64.7624 41.6491 63.9417 42.3537C62.9244 43.1447 61.7991 43.7861 60.6 44.2582C56.2037 46.309 52.2329 49.1696 48.8955 52.6903C47.0429 54.6295 45.121 56.915 42.4546 57.244C42.993 61.3093 44.534 65.1768 46.939 68.4983C50.7655 73.3463 50.4019 75.2682 52.4969 80.1336C54.592 84.9989 63.6647 92.0285 70.9713 93.8119C78.278 95.5953 83.2126 86.3841 85.3423 79.0428Z" fill="#5C8277"/>
<path opacity="0.6" d="M85.3423 79.0428C87.697 71.0435 92.597 60.9839 89.8267 50.0066C89.249 47.8743 88.0994 45.9404 86.5023 44.4141C84.8568 42.9129 82.8012 41.9364 80.5981 41.6091C79.0684 41.3501 77.5585 40.9856 76.0791 40.5183C74.9571 39.9648 73.8004 39.4847 72.6162 39.0813C71.1099 38.7523 69.4823 38.9081 67.9586 38.6138C71.4215 43.6349 79.3688 43.583 83.0568 48.4137C84.6836 50.9039 85.4945 53.839 85.3769 56.8111C85.4347 58.2719 85.336 59.7346 85.0825 61.1744C84.615 63.4425 83.5069 65.5549 82.9529 67.8231C82.6239 69.2255 82.4854 70.6626 82.243 72.0997C81.5128 76.3675 79.7272 80.3851 77.0487 83.7869C76.5687 84.4536 75.984 85.0383 75.3172 85.5183C72.3565 87.4575 68.1491 85.6915 65.5 83.9774C63.7463 82.8007 62.1213 81.4427 60.652 79.9258C59.429 78.5349 58.3715 77.0068 57.5008 75.3721L54.7305 70.9223C53.8031 69.5956 53.0687 68.144 52.5489 66.6111C52.1164 64.8033 52.0108 62.9327 52.2372 61.0878C52.6181 56.2917 53.7262 51.0628 57.5354 48.1367C59.1629 46.9073 61.1368 46.1974 62.8163 45.0547C63.702 44.5499 64.4349 43.8153 64.9378 42.9284C65.4406 42.0416 65.6947 41.0355 65.6731 40.0162V39.6873C65.3634 40.7236 64.7624 41.6491 63.9417 42.3537C62.9244 43.1447 61.7991 43.7861 60.6 44.2582C56.2037 46.309 52.2329 49.1696 48.8955 52.6903C47.0429 54.6295 45.121 56.915 42.4546 57.244C42.993 61.3093 44.534 65.1768 46.939 68.4983C50.7655 73.3463 50.4019 75.2682 52.4969 80.1336C54.592 84.9989 63.6647 92.0285 70.9713 93.8119C78.278 95.5953 83.2126 86.3841 85.3423 79.0428Z" fill="white"/>
<path d="M81.6027 41.8881C79.0402 41.5418 75.1271 41.3167 74.1056 38.4252C73.7942 37.5162 73.7942 36.5293 74.1056 35.6203C74.2364 35.1067 74.4042 34.6033 74.6077 34.1139C74.7462 33.8196 75.2656 33.2482 75.2829 32.9712C75.1801 33.8526 75.2448 34.7455 75.4734 35.603C76.0448 37.2305 77.378 37.6807 78.9363 38.0443L81.4469 38.6503C81.8181 38.7719 82.2184 38.7719 82.5896 38.6503C83.2475 38.356 83.2822 37.4383 83.2129 36.7111C84.6836 38.4578 85.471 40.6786 85.4292 42.9616C84.2689 42.2768 82.9499 41.9068 81.6027 41.8881Z" fill="#5C8277"/>
<path opacity="0.35" d="M81.6027 41.8881C79.0402 41.5418 75.1271 41.3167 74.1056 38.4252C73.7942 37.5162 73.7942 36.5293 74.1056 35.6203C74.2364 35.1067 74.4042 34.6033 74.6077 34.1139C74.7462 33.8196 75.2656 33.2482 75.2829 32.9712C75.1801 33.8526 75.2448 34.7455 75.4734 35.603C76.0448 37.2305 77.378 37.6807 78.9363 38.0443L81.4469 38.6503C81.8181 38.7719 82.2184 38.7719 82.5896 38.6503C83.2475 38.356 83.2822 37.4383 83.2129 36.7111C84.6836 38.4578 85.471 40.6786 85.4292 42.9616C84.2689 42.2768 82.9499 41.9068 81.6027 41.8881Z" fill="white"/>
<path d="M41.7454 49.0919C41.7997 49.6509 42.0127 50.1826 42.3594 50.6244C42.7061 51.0662 43.1719 51.3995 43.7019 51.5852C44.1483 51.6626 44.6062 51.6407 45.0432 51.521C45.4801 51.4013 45.8852 51.1868 46.2298 50.8926C47.3681 49.8039 48.3578 48.5697 49.1732 47.222C50.8603 45.0586 53.2585 43.562 55.9432 42.9973C56.9647 42.7722 58.0209 42.7029 59.0078 42.3913C59.8381 42.1458 60.5965 41.7024 61.2178 41.0993C61.839 40.4961 62.3046 39.7512 62.5745 38.9284C62.8151 38.0918 62.7763 37.1996 62.4638 36.3872C62.1513 35.5747 61.5823 34.8864 60.8431 34.4267C61.366 34.3609 61.8971 34.419 62.3934 34.5965C62.8897 34.774 63.3373 35.0658 63.7 35.4482C64.4157 36.2134 64.9485 37.131 65.2583 38.1319C65.5053 38.7349 65.6119 39.3863 65.5699 40.0365C65.4667 40.5818 65.2418 41.0966 64.912 41.5429C63.8839 42.8864 62.5316 43.9469 60.9816 44.6248C59.4753 45.3693 57.865 45.9234 56.376 46.7199C53.8534 48.1357 51.6211 50.0156 49.7966 52.2605C48.4199 54.2616 46.4965 55.8243 44.256 56.7622C43.7868 56.9392 43.2859 57.0167 42.7852 56.9899C42.2845 56.9631 41.7948 56.8325 41.3472 56.6064C39.4945 55.2732 39.8062 52.1912 40.2217 50.2693C40.4039 49.2636 40.6644 48.2737 41.0009 47.3086C41.4164 46.2697 42.3514 45.4213 42.7323 44.3997C42.372 45.2842 42.0938 46.2 41.9012 47.1354C41.7442 47.7749 41.6916 48.4356 41.7454 49.0919Z" fill="#5C8277"/>
<path opacity="0.6" d="M41.7454 49.0919C41.7997 49.6509 42.0127 50.1826 42.3594 50.6244C42.7061 51.0662 43.1719 51.3995 43.7019 51.5852C44.1483 51.6626 44.6062 51.6407 45.0432 51.521C45.4801 51.4013 45.8852 51.1868 46.2298 50.8926C47.3681 49.8039 48.3578 48.5697 49.1732 47.222C50.8603 45.0586 53.2585 43.562 55.9432 42.9973C56.9647 42.7722 58.0209 42.7029 59.0078 42.3913C59.8381 42.1458 60.5965 41.7024 61.2178 41.0993C61.839 40.4961 62.3046 39.7512 62.5745 38.9284C62.8151 38.0918 62.7763 37.1996 62.4638 36.3872C62.1513 35.5747 61.5823 34.8864 60.8431 34.4267C61.366 34.3609 61.8971 34.419 62.3934 34.5965C62.8897 34.774 63.3373 35.0658 63.7 35.4482C64.4157 36.2134 64.9485 37.131 65.2583 38.1319C65.5053 38.7349 65.6119 39.3863 65.5699 40.0365C65.4667 40.5818 65.2418 41.0966 64.912 41.5429C63.8839 42.8864 62.5316 43.9469 60.9816 44.6248C59.4753 45.3693 57.865 45.9234 56.376 46.7199C53.8534 48.1357 51.6211 50.0156 49.7966 52.2605C48.4199 54.2616 46.4965 55.8243 44.256 56.7622C43.7868 56.9392 43.2859 57.0167 42.7852 56.9899C42.2845 56.9631 41.7948 56.8325 41.3472 56.6064C39.4945 55.2732 39.8062 52.1912 40.2217 50.2693C40.4039 49.2636 40.6644 48.2737 41.0009 47.3086C41.4164 46.2697 42.3514 45.4213 42.7323 44.3997C42.372 45.2842 42.0938 46.2 41.9012 47.1354C41.7442 47.7749 41.6916 48.4356 41.7454 49.0919Z" fill="white"/>
<path d="M81.0488 33.0047C82.7803 34.7361 84.7714 34.1821 86.7625 33.68C87.7547 33.474 88.7113 33.124 89.6021 32.6411C90.2618 33.1413 90.7786 33.806 91.1007 34.5687C91.4228 35.3314 91.5389 36.1653 91.4374 36.987L86.6067 39.7573C85.6371 40.3287 85.464 42.0082 85.464 42.0082C85.464 42.0082 83.8884 35.4114 81.0488 33.0047Z" fill="#5C8277"/>
<path d="M65.1372 36.7449C65.1372 30.9446 71.1972 25.2828 71.1972 25.2828C74.2099 22.2701 79.6639 20.2097 82.5208 23.8976C83.8037 25.3942 84.9293 27.0187 85.8798 28.7456C86.8616 28.6961 87.8148 28.3985 88.6505 27.8808C89.4862 27.363 90.177 26.6419 90.6585 25.7849C88.7539 21.9757 87.8017 19.8287 83.5597 17.5086L84.3734 14.6691C84.6504 13.6475 81.6897 12.6433 81.2914 14.0111L80.7201 16.6948H78.7289C78.7289 16.6948 78.6423 14.9634 78.5385 13.8033C78.4346 12.6433 75.2314 12.8684 75.2314 14.2881L75.5258 17.0065L73.4827 17.474C73.4827 17.474 73.2057 15.9503 72.9286 14.7729C72.6516 13.5956 69.4657 14.3747 69.6735 15.9503L70.193 18.8418C70.193 18.8418 62.869 21.9757 57.7959 32.9877C57.8305 32.9877 63.9252 33.1781 65.1372 36.7449Z" fill="#5C8277"/>
<path d="M65.1362 36.7475C65.1362 36.7475 67.7853 41.0934 74.8669 40.0199C74.5206 37.5266 74.0704 35.2584 76.1481 32.7825C80.6791 28.0049 85.7787 23.8008 91.3328 20.2642C91.4435 19.8502 91.456 19.416 91.3693 18.9964C91.2826 18.5767 91.0991 18.183 90.8335 17.8467C90.5678 17.5104 90.2273 17.2408 89.839 17.0593C89.4508 16.8778 89.0255 16.7895 88.5971 16.8013C84.8399 18.9656 79.94 23.2942 77.4987 24.766C75.5166 25.6362 73.3078 25.8486 71.1963 25.372C71.1963 25.372 65.1362 30.9818 65.1362 36.7475Z" fill="#455A64"/>
<path d="M49.5532 34.4432C53.6394 32.0884 60.8422 21.7691 61.327 16.2285C62.1186 15.6743 63.0616 15.377 64.028 15.377C64.9944 15.377 65.9374 15.6743 66.7291 16.2285C66.1923 21.1977 62.1061 29.9415 57.8295 33.0754C54.9034 32.4867 49.5532 34.4432 49.5532 34.4432Z" fill="#455A64"/>
<path d="M43.3381 61.7075C41.8018 64.3652 40.8348 67.3133 40.4985 70.3647C40.9414 71.0416 41.5784 71.5691 42.326 71.878C43.0736 72.187 43.8971 72.263 44.6886 72.0961L46.2815 67.8887C46.2815 67.8887 43.3381 64.27 43.3381 61.7075Z" fill="#455A64"/>
<path d="M43.2168 58.0276C42.7489 58.0251 42.294 57.8735 41.9182 57.5947C41.8445 57.5477 41.7811 57.486 41.7321 57.4135C41.6831 57.3411 41.6494 57.2593 41.6332 57.1734C41.617 57.0874 41.6185 56.999 41.6378 56.9136C41.657 56.8283 41.6935 56.7478 41.7451 56.6771C41.7951 56.6066 41.8585 56.5466 41.9317 56.5006C42.0049 56.4546 42.0864 56.4235 42.1717 56.409C42.2569 56.3945 42.3441 56.397 42.4284 56.4163C42.5126 56.4355 42.5923 56.4712 42.6627 56.5212C43.8228 57.335 46.1256 55.0149 48.4631 52.5736C50.241 50.6319 52.1943 48.8583 54.298 47.2754C55.8365 46.236 57.4383 45.2934 59.0941 44.4531C63.5439 42.1157 65.7948 40.7132 64.5135 36.956C64.4578 36.7929 64.4683 36.6145 64.5428 36.4591C64.6172 36.3037 64.7497 36.1837 64.9117 36.1249C65.0794 36.0695 65.2621 36.082 65.4207 36.1597C65.5793 36.2373 65.7011 36.374 65.7601 36.5405C67.4915 41.527 63.6997 43.4662 59.7174 45.6305C58.1006 46.4321 56.5389 47.3402 55.0425 48.3489C53.0162 49.9097 51.1331 51.648 49.4154 53.5432C46.9914 55.9672 44.9829 58.0276 43.2168 58.0276Z" fill="#455A64"/>
<path d="M64.9803 70.8062C64.1367 70.4549 63.2044 70.3762 62.3139 70.5811C61.6261 70.681 60.931 70.7215 60.2362 70.7023C59.4833 70.6216 58.737 70.4885 58.0026 70.3041C56.8332 70.0822 55.6429 69.9893 54.4532 70.027C55.9657 69.49 57.4167 68.7935 58.7817 67.9493C60.0361 67.1986 61.1983 66.3038 62.2446 65.2829C63.3907 64.0376 64.4007 62.6736 65.2573 61.214C65.2573 61.214 65.2574 61.0063 65.1535 61.1101C63.9464 62.5947 62.5626 63.9262 61.0326 65.0751C59.6991 66.1604 58.2539 67.1006 56.7214 67.88C55.2324 68.6246 53.6394 69.0401 52.1158 69.7154C51.4545 69.9672 50.8703 70.3871 50.4209 70.9337C49.9716 71.4802 49.6725 72.1345 49.5532 72.832C49.5532 73.2994 50.1246 73.7842 50.2458 73.1609C50.3895 72.5177 50.7578 71.9468 51.2847 71.5507C53.5336 70.8665 55.9244 70.7948 58.2104 71.3429C59.3429 71.6269 60.5217 71.674 61.6733 71.4814C62.7279 71.1679 63.8346 71.0679 64.9284 71.1871C65.0149 71.1178 65.1361 70.8062 64.9803 70.8062Z" fill="#455A64"/>
<path d="M80.9624 67.9636C80.9624 65.1241 80.5814 62.3018 80.4256 59.4796C80.3562 58.2802 80.3562 57.0777 80.4256 55.8782C80.6259 54.5074 80.9034 53.1489 81.2567 51.8094C81.5337 50.3099 81.5337 48.7724 81.2567 47.273C80.72 45.5443 79.8472 43.9386 78.6884 42.5481C77.5296 41.1575 76.1077 40.0095 74.5041 39.1699C74.3029 39.0616 74.0727 39.0192 73.8461 39.0487C73.6211 39.0487 73.4306 39.3603 73.5345 39.5681C73.6384 39.7759 73.673 39.7066 73.7596 39.7759C75.1664 40.7569 76.4358 41.9215 77.5341 43.2388C78.6628 44.3675 79.48 45.7693 79.9062 47.3076C80.8758 51.0822 79.0578 54.7009 79.3175 58.4927C79.3768 59.6462 79.3768 60.802 79.3175 61.9556C79.1951 62.7083 78.8721 63.414 78.3825 63.9987C77.8977 64.7259 77.3956 65.4184 76.8935 66.1456C75.9125 67.5181 75.3095 69.1243 75.1447 70.8032C75.1447 70.9244 75.2486 70.9244 75.2832 70.8032C75.8622 69.1291 76.7687 67.5871 77.9496 66.2668C78.4748 65.6234 78.966 64.953 79.4214 64.2584C79.6105 63.9557 79.7727 63.6371 79.9062 63.3061C80.0793 64.4315 80.2351 65.5569 80.339 66.7689C80.7083 69.8014 80.3155 72.8781 79.1963 75.7205C80.4591 73.336 81.0685 70.6598 80.9624 67.9636Z" fill="#455A64"/>
<path d="M85.4635 44.083C85.3765 44.0867 85.2897 44.0716 85.209 44.0387C85.1283 44.0059 85.0557 43.956 84.9961 43.8925C83.5497 43.0114 81.9211 42.4725 80.2346 42.3169C77.988 42.0386 75.824 41.2956 73.8802 40.1353C73.7405 40.0317 73.6476 39.877 73.6216 39.7051C73.5957 39.5331 73.6389 39.3579 73.7417 39.2177C73.7928 39.1479 73.8575 39.0892 73.932 39.0451C74.0064 39.001 74.0889 38.9724 74.1747 38.9611C74.2604 38.9498 74.3476 38.9559 74.4309 38.9792C74.5142 39.0024 74.5919 39.0423 74.6594 39.0965C76.4609 40.1244 78.4514 40.7781 80.5116 41.0183C82.4472 41.1984 84.3056 41.8655 85.9137 42.9575C86.0305 43.0852 86.0953 43.252 86.0953 43.425C86.0953 43.5981 86.0305 43.7649 85.9137 43.8925C85.7937 44.0115 85.6325 44.0797 85.4635 44.083Z" fill="#455A64"/>
<path d="M72.6337 94.6909C71.9681 94.6936 71.305 94.6122 70.6599 94.4485C63.3878 92.7171 54.0207 85.7913 51.7526 80.3893C51.0773 78.8483 50.6618 77.567 50.2809 76.4416C49.4897 73.6734 48.1272 71.1018 46.2812 68.8925C43.8225 65.5176 42.24 61.585 41.6757 57.4477C40.9162 56.8519 40.3129 56.0804 39.9178 55.1997C39.5227 54.319 39.3476 53.3554 39.4075 52.392C39.2863 46.1761 44.2208 37.4843 49.9692 33.7963C51.4181 32.9766 53.0174 32.4575 54.6715 32.2701C56.3255 32.0827 58.0004 32.2308 59.596 32.7055C61.5199 33.1355 63.3057 34.0402 64.7903 35.3373C65.3285 33.7195 66.3573 32.3094 67.7337 31.3031C70.0019 29.6929 73.1185 29.3292 76.9969 30.2123C81.2909 31.407 85.8619 37.9864 86.0869 43.1807C88.186 44.9212 89.7075 47.2577 90.4501 49.8814C92.753 58.9887 89.948 67.1957 87.4894 74.5543C86.9353 76.2857 86.3986 77.7748 85.9657 79.2811C83.8014 86.657 79.0919 94.6909 72.6337 94.6909ZM55.9427 33.502C54.1148 33.4794 52.3165 33.9649 50.7484 34.9045C44.9307 38.6444 40.6887 47.1977 40.7926 52.3746C40.7258 53.1581 40.8592 53.9457 41.1802 54.6635C41.5012 55.3812 41.9994 56.0057 42.6279 56.4781C42.7196 56.5286 42.7975 56.6008 42.8549 56.6883C42.9122 56.7758 42.9472 56.8761 42.9569 56.9802C43.4745 60.9857 44.9799 64.7996 47.3374 68.0788C49.2802 70.4071 50.7188 73.1132 51.5621 76.026C51.9257 77.1341 52.3413 78.3635 52.9819 79.8698C54.8865 84.3369 63.5783 91.3492 71.0062 93.1672C77.551 94.8987 82.5029 86.4666 84.7364 78.8656C85.1866 77.3419 85.7233 75.749 86.2774 74.0868C88.6841 66.9533 91.4717 58.8848 89.2035 50.1584C88.4964 47.7009 87.0446 45.5232 85.0481 43.9252C84.975 43.8679 84.9165 43.7941 84.8774 43.7099C84.8382 43.6256 84.8196 43.5333 84.823 43.4404C84.823 38.7656 80.529 32.4978 76.7199 31.4243C73.257 30.6451 70.4867 30.9395 68.5302 32.3246C67.0798 33.4158 66.1011 35.0201 65.7945 36.809C65.7848 36.9488 65.7282 37.0812 65.634 37.1849C65.5397 37.2885 65.4133 37.3574 65.2751 37.3804C65.1396 37.4076 64.999 37.3903 64.8742 37.331C64.7494 37.2717 64.647 37.1736 64.5825 37.0514C63.248 35.4186 61.3761 34.3139 59.3017 33.9349C58.2048 33.6493 57.0761 33.5038 55.9427 33.502Z" fill="#455A64"/>
<path d="M17.5914 82.2628C17.4063 82.2639 17.2257 82.2056 17.0761 82.0966C16.9265 81.9875 16.8158 81.8334 16.7603 81.6568L9.28046 57.5206H0.865717C0.636115 57.5206 0.415929 57.4294 0.253575 57.267C0.0912218 57.1047 0 56.8845 0 56.6548C0.0044326 56.4266 0.0970339 56.209 0.258437 56.0476C0.419839 55.8862 0.637503 55.7936 0.865717 55.7891H9.92109C10.1039 55.789 10.2819 55.8479 10.4286 55.9571C10.5752 56.0663 10.6826 56.2199 10.7349 56.3951L17.4009 77.8822L26.8718 29.8522C26.9057 29.6459 27.0146 29.4593 27.1775 29.3283C27.3405 29.1973 27.5461 29.1311 27.7549 29.1424C27.9642 29.1497 28.1638 29.2327 28.3166 29.376C28.4695 29.5192 28.5652 29.7131 28.586 29.9215L31.7718 56.6029H37.8665C38.0947 56.6073 38.3123 56.7 38.4737 56.8614C38.6351 57.0228 38.7278 57.2404 38.7322 57.4686C38.7322 57.6982 38.641 57.9184 38.4786 58.0808C38.3163 58.2431 38.0961 58.3343 37.8665 58.3343H30.9407C30.7291 58.3322 30.5252 58.2541 30.3663 58.1143C30.2074 57.9744 30.1041 57.7822 30.075 57.5725L27.4433 35.5487L18.3878 81.5702C18.3492 81.76 18.2481 81.9315 18.1005 82.057C17.953 82.1826 17.7676 82.255 17.5741 82.2628H17.5914Z" fill="#455A64"/>
<path d="M120.543 81.9C120.355 81.9 120.173 81.8392 120.023 81.7268C119.873 81.6144 119.764 81.4565 119.711 81.2766L107.938 39.3586L103.003 57.6945C102.953 57.8804 102.842 58.0444 102.689 58.1604C102.535 58.2764 102.347 58.3379 102.155 58.3351H95.229C94.9994 58.3351 94.7792 58.2439 94.6169 58.0816C94.4545 57.9192 94.3633 57.699 94.3633 57.4694C94.3633 57.2398 94.4545 57.0196 94.6169 56.8573C94.7792 56.6949 94.9994 56.6037 95.229 56.6037H101.497L107.089 35.8265C107.133 35.6404 107.24 35.4751 107.391 35.3584C107.542 35.2417 107.729 35.1808 107.92 35.1858C108.108 35.1858 108.29 35.2466 108.44 35.359C108.59 35.4714 108.699 35.6293 108.751 35.8092L120.491 77.5887L125.685 56.4132C125.728 56.2255 125.834 56.0581 125.985 55.9385C126.136 55.8189 126.323 55.7543 126.516 55.7553H135.693C135.921 55.7597 136.138 55.8524 136.3 56.0138C136.461 56.1752 136.554 56.3928 136.558 56.621C136.558 56.8506 136.467 57.0708 136.305 57.2332C136.142 57.3955 135.922 57.4867 135.693 57.4867H127.209L121.339 81.1901C121.296 81.3778 121.19 81.5452 121.039 81.6648C120.888 81.7844 120.701 81.849 120.508 81.848L120.543 81.9Z" fill="#455A64"/>
</svg>
