<svg width="28" height="28" viewBox="0 0 28 28" fill="none" xmlns="http://www.w3.org/2000/svg">
<path d="M14.0001 9.01602C12.9766 9.01602 11.976 9.31952 11.125 9.88816C10.274 10.4568 9.6107 11.265 9.21902 12.2106C8.82734 13.1562 8.72486 14.1968 8.92453 15.2006C9.12421 16.2045 9.61708 17.1266 10.3408 17.8503C11.0646 18.574 11.9867 19.0669 12.9905 19.2666C13.9944 19.4663 15.0349 19.3638 15.9805 18.9721C16.9261 18.5804 17.7343 17.9171 18.303 17.0661C18.8716 16.2151 19.1751 15.2145 19.1751 14.191C19.1737 12.819 18.628 11.5035 17.6578 10.5333C16.6876 9.56312 15.3722 9.01744 14.0001 9.01602ZM14.0001 17.641C13.3178 17.641 12.6507 17.4387 12.0834 17.0596C11.516 16.6805 11.0738 16.1417 10.8127 15.5113C10.5516 14.8809 10.4833 14.1872 10.6164 13.518C10.7495 12.8487 11.0781 12.234 11.5606 11.7515C12.0431 11.269 12.6578 10.9404 13.327 10.8073C13.9963 10.6742 14.6899 10.7425 15.3204 11.0036C15.9508 11.2648 16.4896 11.7069 16.8687 12.2743C17.2478 12.8416 17.4501 13.5087 17.4501 14.191C17.4501 15.106 17.0866 15.9835 16.4396 16.6305C15.7926 17.2775 14.9151 17.641 14.0001 17.641ZM19.1751 2.97852H8.8251C7.22438 2.98023 5.68971 3.61687 4.55783 4.74875C3.42595 5.88063 2.78931 7.4153 2.7876 9.01602V19.366C2.78931 20.9667 3.42595 22.5014 4.55783 23.6333C5.68971 24.7652 7.22438 25.4018 8.8251 25.4035H19.1751C20.7758 25.4018 22.3105 24.7652 23.4424 23.6333C24.5742 22.5014 25.2109 20.9667 25.2126 19.366V9.01602C25.2109 7.4153 24.5742 5.88063 23.4424 4.74875C22.3105 3.61687 20.7758 2.98023 19.1751 2.97852ZM23.4876 19.366C23.4876 20.5098 23.0332 21.6067 22.2245 22.4154C21.4157 23.2242 20.3188 23.6785 19.1751 23.6785H8.8251C7.68135 23.6785 6.58445 23.2242 5.7757 22.4154C4.96695 21.6067 4.5126 20.5098 4.5126 19.366V9.01602C4.5126 7.87227 4.96695 6.77537 5.7757 5.96662C6.58445 5.15787 7.68135 4.70352 8.8251 4.70352H19.1751C20.3188 4.70352 21.4157 5.15787 22.2245 5.96662C23.0332 6.77537 23.4876 7.87227 23.4876 9.01602V19.366ZM20.9001 8.58477C20.9001 8.84064 20.8242 9.09078 20.6821 9.30353C20.5399 9.51629 20.3378 9.68211 20.1014 9.78003C19.865 9.87796 19.6049 9.90358 19.3539 9.85366C19.103 9.80374 18.8725 9.68052 18.6915 9.49958C18.5106 9.31865 18.3874 9.08813 18.3375 8.83716C18.2875 8.5862 18.3132 8.32607 18.4111 8.08967C18.509 7.85327 18.6748 7.65121 18.8876 7.50905C19.1003 7.36689 19.3505 7.29102 19.6063 7.29102C19.9495 7.29102 20.2785 7.42732 20.5212 7.66995C20.7638 7.91257 20.9001 8.24164 20.9001 8.58477Z" fill="#225A4B"/>
</svg>
