<svg width="23" height="22" viewBox="0 0 23 22" fill="none" xmlns="http://www.w3.org/2000/svg">
<path d="M5.18106 3.14099C5.18075 3.75099 4.93814 4.33588 4.50659 4.767C4.07504 5.19812 3.4899 5.44015 2.8799 5.43984C2.26991 5.43954 1.68501 5.19693 1.2539 4.76538C0.822778 4.33383 0.58075 3.74869 0.581055 3.13869C0.58136 2.5287 0.823973 1.9438 1.25552 1.51269C1.68707 1.08157 2.27221 0.839539 2.8822 0.839844C3.4922 0.840149 4.0771 1.08276 4.50821 1.51431C4.93933 1.94586 5.18136 2.531 5.18106 3.14099ZM5.25005 7.14299H0.650055V21.541H5.25005V7.14299ZM12.5181 7.14299H7.94106V21.541H12.4721V13.9855C12.4721 9.77649 17.9576 9.38549 17.9576 13.9855V21.541H22.5001V12.4215C22.5001 5.32599 14.3811 5.59049 12.4721 9.07499L12.5181 7.14299Z" fill="#225A4B"/>
</svg>
