<svg width="80" height="80" viewBox="0 0 78 159" fill="none" xmlns="http://www.w3.org/2000/svg">
<path d="M65.6281 158.983H11.9398C5.45491 158.956 -0.0192379 153.424 5.08197e-05 146.935L0.571002 11.7173C0.577067 10.174 0.887174 8.64705 1.4836 7.22368C2.08003 5.8003 2.95109 4.5084 4.04701 3.4218C5.14292 2.3352 6.44221 1.4752 7.87063 0.89094C9.29904 0.306682 10.8286 0.00961867 12.3719 0.0167261L66.307 0.26748C67.8495 0.274051 69.3755 0.584433 70.798 1.18089C72.2205 1.77736 73.5115 2.64821 74.5973 3.74372C75.6831 4.83922 76.5425 6.13791 77.1263 7.56561C77.7102 8.99331 78.007 10.522 77.9999 12.0645L77.4289 147.282C77.4229 148.826 77.1128 150.353 76.5163 151.776C75.9199 153.199 75.0488 154.491 73.9529 155.578C72.857 156.665 71.5577 157.525 70.1293 158.109C68.7009 158.693 67.1713 158.99 65.6281 158.983Z" fill="#263238"/>
<path d="M66.2339 5.40019L55.7755 5.36933C55.4345 5.37535 55.0981 5.44849 54.7854 5.58456C54.4727 5.72064 54.1899 5.91698 53.9531 6.16237C53.7163 6.40777 53.5302 6.69741 53.4053 7.01475C53.2805 7.3321 53.2194 7.67092 53.2255 8.01188V9.9099C53.2369 10.5982 52.9748 11.2629 52.4968 11.7583C52.0188 12.2537 51.3638 12.5393 50.6756 12.5525L30.2912 12.456C29.9502 12.447 29.6144 12.3709 29.3028 12.2321C28.9912 12.0932 28.7101 11.8943 28.4754 11.6467C28.2408 11.3992 28.0572 11.1078 27.9352 10.7893C27.8132 10.4707 27.7551 10.1313 27.7644 9.79031V7.89615C27.781 7.20706 27.5241 6.53942 27.0499 6.03918C26.5757 5.53893 25.9227 5.24678 25.2337 5.22659H21.5573L12.4028 5.18416C11.3222 5.17959 10.2513 5.3879 9.25123 5.79721C8.25114 6.20652 7.34147 6.80881 6.57415 7.56968C5.80683 8.33055 5.19689 9.23511 4.77916 10.2317C4.36142 11.2283 4.14408 12.2974 4.13953 13.378L3.58015 145.332C3.57092 147.514 4.4285 149.61 5.96431 151.16C7.50013 152.709 9.58847 153.585 11.7702 153.596L65.5973 153.842C66.6784 153.848 67.7499 153.641 68.7507 153.232C69.7515 152.823 70.6618 152.221 71.4296 151.459C72.1974 150.698 72.8077 149.794 73.2255 148.796C73.6433 147.799 73.8604 146.73 73.8645 145.649L74.4084 13.6635C74.4166 11.4848 73.5609 9.39162 72.0286 7.84272C70.4963 6.29382 68.4125 5.41549 66.2339 5.40019Z" fill="#F5F5F5"/>
<path d="M43.388 128.905C43.3263 130.499 43.2684 131.992 43.2183 133.238H50.9338L49.9886 128.485L43.388 128.905Z" fill="#F5F5F5"/>
<path d="M11.9629 130.889L12.0285 133.234H42.4468C42.497 131.915 42.5548 130.457 42.6127 128.952L11.9629 130.889Z" fill="#F5F5F5"/>
<path d="M50.3936 128.459L51.3426 133.231H65.6008L65.4272 127.51L50.3936 128.459Z" fill="#F5F5F5"/>
<path d="M44.16 61.7256L46.8566 46.0979L39.7969 45.5732V61.7256H44.16Z" fill="#F5F5F5"/>
<path d="M11.3267 122.212L3.66524 125.214L3.64209 130.642L11.5543 130.14L11.3267 122.212Z" fill="#F5F5F5"/>
<path d="M11.2914 120.997L10.8747 106.442H10.867V101.307L3.76104 102.059L3.66846 123.975L11.2875 120.989L11.2914 120.997Z" fill="#F5F5F5"/>
<path d="M10.8673 89.8501L3.8192 88.9165L3.76904 100.899L10.8673 100.146V89.8501Z" fill="#F5F5F5"/>
<path d="M63.4058 101.523L63.1087 105.697L54.7837 106.592L55.4279 109.895L64.8756 109.181L64.7367 104.447L65.4889 101.315L63.4058 101.523Z" fill="#F5F5F5"/>
<path d="M48.3997 110.422L55.0389 109.921L53.5922 102.514L47.7979 103.1L48.3997 110.422Z" fill="#F5F5F5"/>
<path d="M48.4648 111.194L48.9702 117.371L49.8691 125.842L50.2394 127.698L65.4042 126.741L64.8989 109.952L48.4648 111.194Z" fill="#F5F5F5"/>
<path d="M22.3632 82.0253L22.9457 83.0244L11.2529 89.8565V106.04L23.5977 105.164L47.4038 102.753L46.532 92.148L23.806 89.1775L23.9564 88.0202L46.4355 90.956L44.9619 73.0058L22.7104 75.143L22.6371 74.3715L44.8963 72.2343L44.1248 62.8677H22.7142L3.92315 66.2856L3.83057 87.7347L10.9404 88.6992L22.3632 82.0253ZM12.4488 104.481C12.4488 104.481 12.5375 91.1411 12.4488 90.6435L21.9928 85.5667L23.2312 103.802L12.4488 104.481Z" fill="#F5F5F5"/>
<path d="M62.6228 101.604L53.9775 102.475L54.6333 105.832L62.3836 104.998L62.6228 101.604Z" fill="#F5F5F5"/>
<path d="M43.4961 126.047C43.4691 126.749 43.4421 127.444 43.4189 128.131L49.8537 127.722L49.5219 126.063L43.4961 126.047Z" fill="#F5F5F5"/>
<path d="M29.6352 61.728L30.7694 56.5856H39.4107V45.5486L12.3949 43.5464V53.9122L3.95801 55.8217L3.91943 65.1266L22.6025 61.728H29.6352Z" fill="#F5F5F5"/>
<path d="M47.6623 31.0054L47.4309 30.0603L57.7465 25.9788L51.0379 12.5075C50.9103 12.5282 50.7813 12.5385 50.6521 12.5384L39.2524 12.4844L39.5611 31.3372L47.6623 31.0054Z" fill="#F5F5F5"/>
<path d="M63.2941 23.7803V5.39038L55.7754 5.37109C55.4344 5.37712 55.098 5.45026 54.7853 5.58633C54.4726 5.7224 54.1898 5.91874 53.953 6.16414C53.7162 6.40953 53.53 6.69917 53.4052 7.01652C53.2804 7.33386 53.2192 7.67269 53.2254 8.01365V9.91166C53.2251 10.3355 53.1251 10.7533 52.9334 11.1312C52.7418 11.5092 52.4638 11.8368 52.1221 12.0874L58.8346 25.5664L63.2941 23.7803Z" fill="#F5F5F5"/>
<path d="M24.5163 24.5724L23.6444 5.20655H21.5574L13.3982 5.16797L9.92627 22.4854L24.5163 24.5724ZM22.6568 7.17014L22.9346 22.9406L12.0905 21.3551L14.463 7.17014H22.6568Z" fill="#F5F5F5"/>
<path d="M24.9097 24.6285V24.7905C24.9097 26.3027 24.956 29.034 24.9792 31.9312L39.1873 31.3525L38.8786 12.4843L30.2797 12.4418C29.9387 12.4328 29.6029 12.3567 29.2913 12.2179C28.9798 12.079 28.6986 11.8801 28.464 11.6326C28.2293 11.385 28.0457 11.0936 27.9237 10.7751C27.8017 10.4566 27.7437 10.1171 27.7529 9.77612V7.88197C27.7695 7.19287 27.5126 6.52523 27.0384 6.02499C26.5642 5.52475 25.9112 5.2326 25.2222 5.2124H24.0225L24.8943 24.6285H24.9097Z" fill="#F5F5F5"/>
<path d="M8.77618 22.3113L12.2173 5.16357C10.0681 5.20186 8.01935 6.08 6.50955 7.60999C4.99975 9.13998 4.14891 11.2002 4.13917 13.3497L4.10059 21.8985L4.13917 21.6477L8.77618 22.3113Z" fill="#F5F5F5"/>
<path d="M11.2376 43.461L4.01207 42.9248L3.96191 54.6331L11.2376 52.9858V43.461Z" fill="#F5F5F5"/>
<path d="M8.69947 22.6909L4.10103 22.0312L4.02002 40.9921L5.01146 41.0654L8.69947 22.6909Z" fill="#F5F5F5"/>
<path d="M23.293 120.771L23.4126 105.552L11.2568 106.413L11.6889 121.323L23.293 120.771Z" fill="#F5F5F5"/>
<path d="M25.5305 117.246L42.7437 125.494C42.9521 120.093 43.1295 115.078 43.1295 114.742L43.5153 114.723L43.7005 114.36C43.9435 114.48 43.9435 114.48 43.8162 118.156C43.7429 120.205 43.6426 122.932 43.5384 125.659H49.4909L48.6152 117.388L47.4579 103.115L24.9634 105.383L25.5305 117.246Z" fill="#F5F5F5"/>
<path d="M67.7308 91.9987L67.534 89.9888L46.8989 92.1375L47.7669 102.712L65.5859 100.914L67.7308 91.9987Z" fill="#F5F5F5"/>
<path d="M39.411 57.7368H31.6994L30.8198 61.7219H39.411V57.7368Z" fill="#F5F5F5"/>
<path d="M64.5439 59.0838L45.2359 57.749L44.4644 62.3089L45.2783 72.2079L65.6395 70.2481L64.5439 59.0838ZM45.9457 62.3012L46.9835 59.4233L63.7531 60.4842L64.7214 68.7166L46.5128 70.8769L45.9457 62.3012Z" fill="#F5F5F5"/>
<path d="M66.5462 79.7742L65.6975 71.021L45.3247 72.9769L46.0924 82.2933L66.5462 79.7742Z" fill="#F5F5F5"/>
<path d="M11.5773 130.918L3.67281 131.415L3.64194 130.902L3.63037 133.232H11.6429L11.5773 130.918Z" fill="#F5F5F5"/>
<path d="M74.2809 19.43L74.3967 19.7271L74.4082 13.6627C74.4164 11.4813 73.5585 9.38586 72.023 7.83652C70.4874 6.28718 68.3996 5.41064 66.2182 5.39941H63.6528V23.6389L74.2809 19.43Z" fill="#F5F5F5"/>
<path d="M42.7285 125.927L25.1565 117.506L24.5354 105.442L23.8024 105.516L23.6751 121.14L11.6968 121.707V122.054L11.9282 130.109L42.6321 128.18C42.6706 127.428 42.7015 126.675 42.7285 125.927ZM12.449 122.702L29.2148 121.545L40.1207 126.602L12.449 128.099V122.702Z" fill="#F5F5F5"/>
<path d="M69.2855 39.7081L70.0069 35.4453C63.7033 33.1962 63.2674 26.6226 63.2867 24.6436L59.1743 26.2715L65.366 38.705L69.2855 39.7081Z" fill="#F5F5F5"/>
<path d="M46.8023 90.9859L55.3704 90.0948L53.6845 82.5259L46.1851 83.4517L46.8023 90.9859Z" fill="#F5F5F5"/>
<path d="M64.5714 46.2263H48.5694L47.2424 46.126L45.4331 56.6075L64.4287 57.9191L63.9889 53.3631L65.8599 46.6352L64.5714 46.2263Z" fill="#F5F5F5"/>
<path d="M64.1817 44.2958L64.3823 39.2807L58.0942 26.6543L48.3418 30.512L51.6942 44.2765L64.1817 44.2958ZM57.7123 28.2051L63.4757 39.1688L62.6425 42.5868L52.7821 42.201L50.317 31.8314L57.7123 28.2051Z" fill="#F5F5F5"/>
<path d="M66.6699 104.647L66.967 114.473L73.8993 114.083L73.9225 114.469L66.9785 114.858L67.3296 126.617L73.8878 126.2L73.9341 126.972L67.3527 127.388L67.5302 133.233H73.9186L74.0575 100.45L67.5225 101.109L66.6699 104.647Z" fill="#F5F5F5"/>
<path d="M24.5275 24.9584L9.84494 22.8521L6.17236 41.1455L24.5931 42.5111C24.6664 39.7027 24.6008 31.0536 24.5275 24.9584Z" fill="#F5F5F5"/>
<path d="M48.6772 44.2952H50.8992L47.7552 31.3872L39.5845 31.7228L39.7812 43.6356L48.6772 44.2952Z" fill="#F5F5F5"/>
<path d="M24.9673 42.5424L39.3914 43.611L39.1985 31.7407L24.9866 32.3194C25.029 36.3353 25.029 40.6174 24.9673 42.5424Z" fill="#F5F5F5"/>
<path d="M66.6581 80.9292L54.0664 82.48L55.76 90.0528L67.4219 88.8414L66.6581 80.9292Z" fill="#F5F5F5"/>
<path d="M70.0723 35.0368L70.8786 30.2532L74.3505 30.5233L74.3968 20.2192L63.6761 24.4628C63.4562 31.7115 68.0123 34.2614 70.0723 35.0368Z" fill="#F5F5F5"/>
<path d="M65.9443 53.5338L66.3803 58.0551L74.2346 58.5991L74.2732 49.2903L67.6996 47.2148L65.9443 53.5338Z" fill="#F5F5F5"/>
<path d="M69.6787 92.1355L67.6187 100.711L74.0572 100.059L74.0958 91.0669C72.1206 90.5461 70.3962 90.1218 69.4665 89.9443L69.6787 92.1355Z" fill="#F5F5F5"/>
<path d="M65.335 44.443L74.2811 47.2707L74.3042 42.1824L65.5163 39.9102L65.335 44.443Z" fill="#F5F5F5"/>
<path d="M69.3547 88.7713C70.0761 88.8794 71.4418 89.1571 74.0998 89.8708L74.1846 70.1963L67.6265 70.829L69.3547 88.7713Z" fill="#F5F5F5"/>
<path d="M67.5453 70.0672L74.1884 69.4268L74.227 59.7555L66.4922 59.2192L67.5453 70.0672Z" fill="#F5F5F5"/>
<path d="M70.813 35.2836C71.9686 35.6419 73.1416 35.9419 74.3274 36.1824V31.2985L71.4997 31.0786L70.813 35.2836Z" fill="#F5F5F5"/>
<path d="M70.0376 39.8816L74.3081 40.9849L74.3274 36.5755C73.2202 36.3517 72.0128 36.0508 70.7474 35.665L70.0376 39.8816Z" fill="#F5F5F5"/>
<path d="M11.5771 130.915L11.6427 133.23H12.0285L11.9629 130.884L42.6127 128.955C42.5549 130.46 42.497 131.918 42.4468 133.238H43.2184C43.2685 131.991 43.3264 130.499 43.3881 128.905L50.0042 128.485L50.9493 133.238H51.3351L50.3861 128.462L65.4313 127.513L65.6049 133.238H67.5338L67.3563 127.389L73.9376 126.973L73.8913 126.201L67.3332 126.618L66.9821 114.859L73.9261 114.473L73.9029 114.088L66.959 114.473L66.6619 104.648L67.5145 101.11L74.0495 100.451V100.065L67.6109 100.717L69.671 92.1409L69.4588 89.9497C70.3885 90.1272 72.1129 90.5515 74.0881 91.0723V89.8571C71.4301 89.155 70.0645 88.8657 69.3431 88.7577L67.6071 70.8269L74.1652 70.1942V69.4226L67.5222 70.063L66.469 59.215L74.1845 59.7513V58.5939L66.3302 58.05L65.8942 53.5287L67.6495 47.2097L74.2077 49.2852V47.2676L65.2616 44.4399L65.4429 39.907L74.2308 42.1792V40.9833L69.9603 39.88L70.6701 35.6635C71.9509 36.0492 73.1429 36.3502 74.2501 36.5739V36.1881C73.0643 35.9476 71.8914 35.6476 70.7357 35.2893L71.4417 31.0843L74.2694 31.3042V30.5327L70.7974 30.2626L69.9912 35.0462C67.9311 34.2747 63.3751 31.7209 63.595 24.4683L74.3157 20.2248V19.7348L74.2 19.4378L63.5989 23.635V5.39557H63.2131V23.7855L58.7458 25.5562L52.0333 12.0772C51.7148 12.3068 51.3456 12.4563 50.957 12.5131L57.6657 25.9844L47.4311 30.062L47.6625 31.0072L39.5612 31.3389L39.2526 12.4861H38.8668L39.1755 31.3544L24.9674 31.933C24.9442 29.0243 24.9134 26.3046 24.8979 24.7923V24.6303L24.0261 5.21426H23.6403L24.5122 24.5802L9.91831 22.4854L13.3903 5.16797H12.395H12.2098L8.7687 22.3157L4.1394 21.6521L4.10082 21.9029V22.034L8.69926 22.6937L5.01125 41.0682L4.01981 40.9949V42.9238L11.2454 43.46V52.9848L3.96966 54.632V55.8202L12.4066 53.8913V43.5641L39.4108 45.5663V56.6072H30.7694L29.6353 61.7457H22.6026L3.91951 65.1444V66.321L22.7145 62.8837H44.1172L44.8888 72.2504L22.6296 74.3876L22.7029 75.1591L44.9544 73.0219L46.428 90.972L23.9489 88.0363L23.7985 89.1936L46.5245 92.1641L47.404 102.754L23.6133 105.153L11.2685 106.029V89.8571L22.9614 83.0366L22.3788 82.0375L10.9406 88.6998L3.81149 87.7508V88.9081L10.8673 89.8571V100.153L3.76905 100.906V102.063L10.875 101.311V106.445L11.2955 121.001L3.67647 123.987V125.229L11.338 122.228L11.5656 130.155L3.65332 130.657V130.915L3.68418 131.428L11.5771 130.915ZM43.419 128.13C43.4421 127.443 43.4691 126.749 43.4961 126.047H49.5219L49.8537 127.705L43.419 128.13ZM50.2395 127.698L49.8537 125.842L48.9549 117.355L48.4495 111.183L64.8835 109.941L65.3889 126.726L50.2395 127.698ZM53.9622 102.476L62.6113 101.604L62.3683 104.999L54.618 105.832L53.9622 102.476ZM53.5764 102.514L55.0231 109.921L48.3839 110.423L47.7821 103.093L53.5764 102.514ZM64.8604 109.181L55.4127 109.894L54.7685 106.592L63.0935 105.697L63.3906 101.523L65.4737 101.315L64.7215 104.447L64.8604 109.181ZM53.6729 82.5274L55.3587 90.0963L46.7907 90.9874L46.1734 83.4533L53.6729 82.5274ZM55.7484 90.0539L54.0548 82.4811L66.6465 80.938L67.418 88.8503L55.7484 90.0539ZM64.4167 57.9188L45.4212 56.6033L47.2304 46.1257L48.5575 46.226H64.5633L65.8479 46.6349L63.9924 53.3628L64.4167 57.9188ZM63.2594 24.6149C63.2401 26.6055 63.676 33.1791 69.9796 35.4166L69.2852 39.7064L65.3657 38.6918L59.174 26.2428L63.2594 24.6149ZM58.0669 26.6711L64.3781 39.2975L64.1775 44.3125H51.6939L48.3415 30.5481L58.0669 26.6711ZM47.7281 31.3891L50.8722 44.2971H48.6771L39.7811 43.6413L39.5844 31.7247L47.7281 31.3891ZM39.1716 31.7401L39.3645 43.6104L24.9404 42.5418C25.0021 40.613 24.9905 36.3347 24.9404 32.3188L39.1716 31.7401ZM9.81801 22.8673L24.5006 24.9736C24.5739 31.0689 24.6395 39.7103 24.5662 42.5264L6.14543 41.1608L9.81801 22.8673ZM46.8292 46.1103L44.1288 61.738H39.7966V45.574L46.8292 46.1103ZM31.6721 57.7568H39.3876V61.738H30.8157L31.6721 57.7568ZM44.4027 62.3244L45.1743 57.7645L64.4823 59.0993L65.5625 70.2636L45.2013 72.2234L44.4027 62.3244ZM65.6512 71.0352L66.4999 79.7884L46.0538 82.3114L45.2823 72.9911L65.6512 71.0352ZM46.8524 92.1525L67.4875 90.0037L67.6842 92.0136L65.5393 100.929L47.7204 102.727L46.8524 92.1525ZM48.5421 117.417L49.4178 125.688H43.5116C43.6157 122.96 43.716 120.233 43.7893 118.185C43.9166 114.508 43.9166 114.508 43.6736 114.389L43.4884 114.751L43.1027 114.77C43.1027 115.091 42.9368 120.133 42.7169 125.522L25.5306 117.247L24.9211 105.392L47.404 103.139L48.5421 117.417ZM23.3664 105.566L23.2468 120.785L11.6427 121.336L11.2106 106.426L23.3664 105.566ZM11.662 122.077V121.73L23.6403 121.163L23.7676 105.539L24.5006 105.466L25.1217 117.529L42.6937 125.95C42.6667 126.699 42.6359 127.451 42.6089 128.199L11.905 130.128L11.662 122.077Z" fill="white"/>
<path d="M29.215 121.53L12.4492 122.703V128.088L40.1247 126.588L29.215 121.53Z" fill="#EBEBEB"/>
<path d="M63.7532 60.4876L46.9835 59.4268L45.9458 62.3046L46.5129 70.8804L64.7215 68.7201L63.7532 60.4876Z" fill="#EBEBEB"/>
<path d="M11.7702 153.599L65.5974 153.846C66.6785 153.852 67.75 153.644 68.7508 153.235C69.7515 152.827 70.6619 152.224 71.4297 151.463C72.1975 150.702 72.8078 149.797 73.2256 148.8C73.6434 147.803 73.8605 146.734 73.8645 145.653L73.9186 133.238H3.63038L3.5918 142.628V145.583C3.64591 147.72 4.52996 149.752 6.0566 151.249C7.58325 152.745 9.63254 153.588 11.7702 153.599Z" fill="#EBEBEB"/>
<path d="M22.9345 22.9414L22.6567 7.1709H14.4667L12.0903 21.3558L22.9345 22.9414Z" fill="#EBEBEB"/>
<path d="M62.6419 42.5877L63.4752 39.1698L57.7117 28.2061L50.3164 31.8478L52.7815 42.2174L62.6419 42.5877Z" fill="#EBEBEB"/>
<path d="M12.4492 90.6251C12.5379 91.1228 12.4492 104.463 12.4492 104.463L23.2509 103.784L22.0126 85.5483L12.4492 90.6251Z" fill="#EBEBEB"/>
<path d="M48.4035 101.473L47.8325 93.206L66.3227 90.8296V92.257L64.0852 99.8606L48.4035 101.473Z" fill="#EBEBEB"/>
<path d="M34.7275 32.9087C34.7275 33.3543 34.5954 33.7899 34.3478 34.1603C34.1003 34.5308 33.7484 34.8196 33.3368 34.9901C32.9251 35.1606 32.4721 35.2053 32.0351 35.1183C31.5981 35.0314 31.1966 34.8168 30.8815 34.5017C30.5665 34.1867 30.3519 33.7852 30.265 33.3482C30.178 32.9112 30.2227 32.4582 30.3932 32.0465C30.5637 31.6349 30.8525 31.283 31.2229 31.0354C31.5934 30.7879 32.029 30.6558 32.4746 30.6558C33.0721 30.6558 33.6452 30.8931 34.0677 31.3156C34.4902 31.7381 34.7275 32.3112 34.7275 32.9087Z" fill="#5C8277"/>
<g opacity="0.6">
<path d="M34.7239 32.8153C34.7434 33.2606 34.6303 33.7017 34.399 34.0827C34.1677 34.4637 33.8285 34.7676 33.4245 34.9558C33.0204 35.144 32.5696 35.2081 32.1291 35.1401C31.6886 35.072 31.2782 34.8748 30.9498 34.5734C30.6214 34.272 30.3898 33.88 30.2843 33.4469C30.1787 33.0139 30.204 32.5592 30.357 32.1405C30.5099 31.7219 30.7836 31.358 31.1435 31.0949C31.5033 30.8318 31.9331 30.6814 32.3784 30.6626C32.9748 30.6375 33.5567 30.8501 33.9965 31.2537C34.4362 31.6573 34.6979 32.2189 34.7239 32.8153Z" fill="white"/>
</g>
<path d="M32.4743 34.332C33.301 34.332 33.9711 33.6619 33.9711 32.8352C33.9711 32.0085 33.301 31.3384 32.4743 31.3384C31.6477 31.3384 30.9775 32.0085 30.9775 32.8352C30.9775 33.6619 31.6477 34.332 32.4743 34.332Z" fill="#5C8277"/>
<path d="M67.2828 122.855C67.2797 123.045 67.2209 123.229 67.1136 123.386C67.0063 123.542 66.8553 123.663 66.6795 123.734C66.5037 123.805 66.3108 123.823 66.1251 123.785C65.9393 123.747 65.7689 123.655 65.6351 123.521C65.5013 123.386 65.4101 123.215 65.3728 123.03C65.3356 122.844 65.3539 122.651 65.4255 122.475C65.4972 122.3 65.619 122.149 65.7757 122.043C65.9325 121.936 66.1172 121.878 66.3067 121.876C66.4357 121.874 66.5636 121.898 66.683 121.947C66.8024 121.996 66.9107 122.068 67.0017 122.159C67.0927 122.251 67.1645 122.359 67.2128 122.479C67.261 122.598 67.2848 122.727 67.2828 122.855Z" fill="#5C8277"/>
<path d="M65.7436 122.543L65.5082 117.142L49.2594 117.933C48.8335 117.953 48.4096 117.862 48.0288 117.671L24.9787 106.028C24.7164 105.895 24.4938 105.695 24.3333 105.448C24.1728 105.202 24.0801 104.917 24.0645 104.624L20.9242 43.7716C20.9167 43.6275 20.94 43.4834 20.9925 43.3489C21.0451 43.2145 21.1257 43.0928 21.2291 42.9921C21.3324 42.8913 21.456 42.8137 21.5917 42.7645C21.7274 42.7153 21.8721 42.6957 22.016 42.7069L31.8957 43.436V32.6343H33.053V43.5826C33.0558 43.7224 33.0298 43.8613 32.9767 43.9907C32.9236 44.1201 32.8446 44.2372 32.7444 44.3348C32.6405 44.429 32.5185 44.5012 32.3859 44.547C32.2533 44.5927 32.1128 44.6111 31.9728 44.601L22.1009 43.8719L25.2295 104.566C25.2352 104.656 25.2641 104.742 25.3135 104.817C25.3629 104.892 25.431 104.953 25.5111 104.994L48.5612 116.644C48.7628 116.746 48.9875 116.794 49.2131 116.783L65.6008 115.985C65.8719 115.973 66.1367 116.069 66.3377 116.251C66.4384 116.342 66.52 116.451 66.5777 116.574C66.6353 116.696 66.6678 116.829 66.6733 116.965L66.9086 122.493L65.7436 122.543Z" fill="#5C8277"/>
<path d="M22.8149 73.1166C24.4256 73.1166 25.7314 71.8109 25.7314 70.2001C25.7314 68.5894 24.4256 67.2837 22.8149 67.2837C21.2042 67.2837 19.8984 68.5894 19.8984 70.2001C19.8984 71.8109 21.2042 73.1166 22.8149 73.1166Z" fill="#5C8277"/>
<path d="M22.8149 72.2279C23.9334 72.2279 24.8402 71.3211 24.8402 70.2026C24.8402 69.084 23.9334 68.1772 22.8149 68.1772C21.6963 68.1772 20.7896 69.084 20.7896 70.2026C20.7896 71.3211 21.6963 72.2279 22.8149 72.2279Z" fill="#FAFAFA"/>
<path d="M22.8149 72.3707C22.3852 72.3714 21.9649 72.2447 21.6072 72.0065C21.2496 71.7683 20.9706 71.4294 20.8056 71.0326C20.6406 70.6358 20.5971 70.199 20.6804 69.7774C20.7638 69.3559 20.9703 68.9685 21.2739 68.6644C21.5775 68.3602 21.9645 68.153 22.3859 68.0689C22.8074 67.9848 23.2442 68.0275 23.6413 68.1918C24.0384 68.3561 24.3779 68.6345 24.6167 68.9917C24.8555 69.349 24.983 69.769 24.983 70.1988C24.982 70.7738 24.7533 71.3251 24.3471 71.7321C23.9408 72.139 23.39 72.3686 22.8149 72.3707ZM22.8149 68.3162C22.4424 68.3154 22.0781 68.4252 21.768 68.6316C21.4579 68.838 21.216 69.1317 21.0729 69.4757C20.9298 69.8196 20.892 70.1982 20.9642 70.5637C21.0364 70.9291 21.2154 71.2649 21.4785 71.5286C21.7417 71.7923 22.0771 71.9719 22.4424 72.0449C22.8077 72.1178 23.1864 72.0808 23.5306 71.9384C23.8748 71.796 24.1691 71.5547 24.3761 71.2451C24.5831 70.9354 24.6937 70.5713 24.6937 70.1988C24.6926 69.7005 24.4945 69.2228 24.1425 68.8701C23.7905 68.5173 23.3132 68.3182 22.8149 68.3162Z" fill="#5C8277"/>
<path d="M39.9931 57.9683H26.1052C25.7809 57.9683 25.4698 58.0972 25.2405 58.3265C25.0112 58.5558 24.8823 58.8669 24.8823 59.1912V64.2063C24.8823 64.5306 25.0112 64.8417 25.2405 65.071C25.4698 65.3004 25.7809 65.4292 26.1052 65.4292H26.2673V66.629L27.6599 65.4292H40.0047C40.329 65.4292 40.6401 65.3004 40.8694 65.071C41.0988 64.8417 41.2276 64.5306 41.2276 64.2063V59.1912C41.2276 59.0296 41.1956 58.8697 41.1334 58.7205C41.0712 58.5714 40.9801 58.4361 40.8653 58.3224C40.7506 58.2087 40.6144 58.1188 40.4647 58.0581C40.315 57.9973 40.1547 57.9668 39.9931 57.9683Z" fill="#5C8277"/>
<g opacity="0.4">
<path d="M39.9931 57.9683H26.1052C25.7809 57.9683 25.4698 58.0972 25.2405 58.3265C25.0112 58.5558 24.8823 58.8669 24.8823 59.1912V64.2063C24.8823 64.5306 25.0112 64.8417 25.2405 65.071C25.4698 65.3004 25.7809 65.4292 26.1052 65.4292H26.2673V66.629L27.6599 65.4292H40.0047C40.329 65.4292 40.6401 65.3004 40.8694 65.071C41.0988 64.8417 41.2276 64.5306 41.2276 64.2063V59.1912C41.2276 59.0296 41.1956 58.8697 41.1334 58.7205C41.0712 58.5714 40.9801 58.4361 40.8653 58.3224C40.7506 58.2087 40.6144 58.1188 40.4647 58.0581C40.315 57.9973 40.1547 57.9668 39.9931 57.9683Z" fill="white"/>
</g>
<path d="M28.0074 61.6234C28.0013 61.4576 28.0448 61.2937 28.1323 61.1528C28.2199 61.0118 28.3476 60.9002 28.499 60.8323C28.6504 60.7644 28.8186 60.7432 28.9821 60.7715C29.1456 60.7997 29.2969 60.8762 29.4167 60.991C29.5365 61.1058 29.6193 61.2538 29.6545 61.4159C29.6896 61.5781 29.6756 61.7471 29.6141 61.9012C29.5526 62.0553 29.4466 62.1876 29.3095 62.2811C29.1724 62.3745 29.0105 62.4249 28.8445 62.4258C28.7361 62.4311 28.6278 62.4142 28.5262 62.3761C28.4245 62.3381 28.3317 62.2798 28.2534 62.2047C28.175 62.1296 28.1128 62.0393 28.0705 61.9394C28.0282 61.8394 28.0068 61.7319 28.0074 61.6234ZM29.4502 61.6234C29.451 61.5025 29.4158 61.3841 29.3491 61.2833C29.2824 61.1825 29.1873 61.1038 29.0757 61.0572C28.9642 61.0106 28.8413 60.9982 28.7227 61.0216C28.6041 61.0449 28.4952 61.1031 28.4097 61.1886C28.3242 61.274 28.2661 61.383 28.2427 61.5016C28.2193 61.6202 28.2317 61.743 28.2783 61.8546C28.3249 61.9661 28.4036 62.0613 28.5045 62.128C28.6053 62.1946 28.7237 62.2298 28.8445 62.2291C28.9248 62.2318 29.0048 62.2179 29.0795 62.1884C29.1542 62.159 29.222 62.1144 29.2788 62.0576C29.3356 62.0009 29.3801 61.933 29.4096 61.8583C29.4391 61.7836 29.4529 61.7037 29.4502 61.6234Z" fill="white"/>
<path d="M31.2018 61.8195C31.2062 61.8996 31.1938 61.9796 31.1654 62.0546C31.137 62.1295 31.0932 62.1977 31.0369 62.2547C30.9806 62.3118 30.913 62.3564 30.8384 62.3857C30.7638 62.4151 30.6839 62.4285 30.6039 62.4252C30.5221 62.4292 30.4406 62.4131 30.3665 62.3781C30.2925 62.3431 30.2283 62.2904 30.1795 62.2246V62.4136H29.9712V60.7471H30.1872V61.4029C30.2371 61.3411 30.3008 61.2918 30.3731 61.259C30.4455 61.2261 30.5245 61.2107 30.6039 61.2139C30.6839 61.2105 30.7638 61.2239 30.8384 61.2533C30.913 61.2827 30.9806 61.3273 31.0369 61.3843C31.0932 61.4414 31.137 61.5095 31.1654 61.5845C31.1938 61.6594 31.2062 61.7395 31.2018 61.8195ZM30.9858 61.8195C30.9798 61.7448 30.9522 61.6735 30.9063 61.6143C30.8604 61.555 30.7983 61.5104 30.7275 61.4859C30.6567 61.4613 30.5803 61.458 30.5076 61.4762C30.4349 61.4943 30.3691 61.5333 30.3182 61.5883C30.2673 61.6433 30.2335 61.7119 30.2209 61.7858C30.2084 61.8596 30.2176 61.9356 30.2475 62.0043C30.2774 62.073 30.3266 62.1315 30.3892 62.1727C30.4518 62.2139 30.5251 62.2359 30.6 62.2362C30.6547 62.2385 30.7092 62.2293 30.76 62.2089C30.8108 62.1886 30.8566 62.1577 30.8946 62.1183C30.9325 62.0789 30.9617 62.0319 30.98 61.9804C30.9984 61.9289 31.0056 61.874 31.0012 61.8195H30.9858Z" fill="white"/>
<path d="M31.105 62.7862L31.1744 62.6203C31.2246 62.6604 31.2877 62.681 31.3519 62.6782C31.4638 62.6782 31.5293 62.6049 31.5293 62.4699V61.2238H31.7415V62.466C31.7463 62.5179 31.7395 62.5701 31.7218 62.6191C31.7041 62.6681 31.6758 62.7125 31.639 62.7493C31.6022 62.7862 31.5578 62.8144 31.5088 62.8321C31.4598 62.8498 31.4076 62.8566 31.3557 62.8518C31.2674 62.8564 31.1798 62.8335 31.105 62.7862ZM31.4908 60.8574C31.4907 60.8388 31.4945 60.8204 31.5017 60.8033C31.5089 60.7862 31.5195 60.7707 31.5328 60.7578C31.5461 60.7448 31.5619 60.7347 31.5792 60.7279C31.5965 60.7212 31.6149 60.718 31.6335 60.7185C31.652 60.7174 31.6706 60.7201 31.6881 60.7264C31.7056 60.7327 31.7217 60.7424 31.7353 60.755C31.749 60.7676 31.76 60.7828 31.7677 60.7997C31.7754 60.8166 31.7796 60.8349 31.7801 60.8535C31.7807 60.8727 31.7772 60.8919 31.77 60.9097C31.7628 60.9275 31.7519 60.9437 31.7382 60.9571C31.7244 60.9705 31.708 60.9809 31.6899 60.9876C31.6719 60.9944 31.6527 60.9973 31.6335 60.9962C31.6145 60.9974 31.5954 60.9944 31.5776 60.9877C31.5597 60.9809 31.5436 60.9704 31.5301 60.9569C31.5166 60.9434 31.5061 60.9273 31.4993 60.9094C31.4926 60.8916 31.4896 60.8725 31.4908 60.8535V60.8574Z" fill="white"/>
<path d="M33.2229 61.8853H32.2585C32.2633 61.9368 32.2783 61.9868 32.3028 62.0323C32.3273 62.0779 32.3607 62.1181 32.401 62.1504C32.4413 62.1828 32.4877 62.2068 32.5374 62.2209C32.5872 62.235 32.6393 62.2389 32.6906 62.2325C32.7547 62.2347 32.8185 62.2231 32.8778 62.1985C32.937 62.1739 32.9903 62.1368 33.0339 62.0898L33.1535 62.2287C33.0652 62.3169 32.9535 62.3779 32.8315 62.4045C32.7096 62.4311 32.5826 62.4221 32.4656 62.3787C32.3486 62.3352 32.2465 62.2591 32.1715 62.1593C32.0965 62.0595 32.0517 61.9403 32.0425 61.8159C32.0393 61.7361 32.0525 61.6566 32.0813 61.5822C32.1101 61.5077 32.1539 61.44 32.21 61.3833C32.266 61.3265 32.3332 61.2818 32.4072 61.252C32.4813 61.2223 32.5606 61.208 32.6404 61.2102C32.72 61.2079 32.7993 61.2222 32.873 61.2523C32.9468 61.2825 33.0134 61.3277 33.0686 61.3851C33.1239 61.4425 33.1665 61.5108 33.1937 61.5857C33.2209 61.6605 33.2322 61.7403 33.2268 61.8197C33.2274 61.8417 33.2261 61.8636 33.2229 61.8853ZM32.2585 61.731H33.03C33.03 61.6287 32.9894 61.5306 32.9171 61.4582C32.8447 61.3859 32.7466 61.3452 32.6443 61.3452C32.542 61.3452 32.4438 61.3859 32.3715 61.4582C32.2991 61.5306 32.2585 61.6287 32.2585 61.731Z" fill="white"/>
<path d="M33.4161 61.8167C33.4144 61.7347 33.4297 61.6533 33.461 61.5775C33.4922 61.5017 33.5389 61.4331 33.598 61.3762C33.657 61.3194 33.7272 61.2753 33.8042 61.2469C33.8811 61.2184 33.9631 61.2063 34.045 61.2111C34.1406 61.2048 34.2361 61.2249 34.3211 61.2691C34.4061 61.3133 34.4774 61.38 34.5272 61.4618L34.3652 61.5698C34.3298 61.5162 34.2817 61.4723 34.2251 61.442C34.1686 61.4116 34.1053 61.3959 34.0411 61.3962C33.937 61.4062 33.8404 61.4547 33.7701 61.5321C33.6998 61.6094 33.6608 61.7102 33.6608 61.8148C33.6608 61.9194 33.6998 62.0202 33.7701 62.0976C33.8404 62.1749 33.937 62.2234 34.0411 62.2334C34.1049 62.2341 34.168 62.219 34.2245 62.1894C34.2811 62.1597 34.3294 62.1165 34.3652 62.0636L34.5272 62.1678C34.4775 62.2501 34.4064 62.3172 34.3214 62.3621C34.2365 62.4069 34.1409 62.4278 34.045 62.4224C33.9632 62.4266 33.8815 62.414 33.8048 62.3854C33.7281 62.3568 33.6582 62.3127 33.5992 62.2559C33.5403 62.1991 33.4936 62.1309 33.4621 62.0553C33.4306 61.9798 33.415 61.8986 33.4161 61.8167Z" fill="white"/>
<path d="M35.4912 62.3423C35.4152 62.3976 35.3229 62.4261 35.2289 62.4233C35.1763 62.432 35.1224 62.428 35.0716 62.4117C35.0208 62.3954 34.9747 62.3672 34.937 62.3295C34.8992 62.2918 34.8711 62.2456 34.8548 62.1949C34.8384 62.1441 34.8345 62.0902 34.8431 62.0375V61.3817H34.6387V61.2081H34.8431V60.9458H35.0592V61.2081H35.3986V61.3817H35.0592V62.026C35.055 62.0519 35.0568 62.0785 35.0644 62.1037C35.072 62.1288 35.0852 62.152 35.103 62.1713C35.1208 62.1906 35.1428 62.2056 35.1673 62.2152C35.1918 62.2248 35.2181 62.2287 35.2443 62.2266C35.3041 62.2277 35.3626 62.2087 35.4102 62.1726L35.4912 62.3423Z" fill="white"/>
<path d="M35.7114 60.8535C35.7119 60.8347 35.7161 60.8162 35.7238 60.7991C35.7314 60.782 35.7423 60.7665 35.7559 60.7536C35.7696 60.7407 35.7856 60.7306 35.8031 60.7239C35.8206 60.7172 35.8393 60.7141 35.858 60.7146C35.8766 60.7135 35.8952 60.7162 35.9126 60.7225C35.9301 60.7288 35.9462 60.7385 35.9599 60.7511C35.9735 60.7637 35.9845 60.7789 35.9922 60.7958C35.9999 60.8127 36.0041 60.831 36.0046 60.8496C36.0046 60.8885 35.9892 60.9258 35.9617 60.9533C35.9342 60.9807 35.8969 60.9962 35.858 60.9962C35.8191 60.9962 35.7819 60.9807 35.7544 60.9533C35.7269 60.9258 35.7114 60.8885 35.7114 60.8496V60.8535ZM35.75 61.2392H35.966V62.4274H35.75V61.2392Z" fill="white"/>
<path d="M37.428 61.2222L36.9072 62.4104H36.6873L36.1665 61.2222H36.3941L36.7799 62.175L37.1965 61.2222H37.428Z" fill="white"/>
<path d="M38.6663 61.8853H37.7019C37.7066 61.9368 37.7217 61.9868 37.7462 62.0323C37.7706 62.0779 37.804 62.1181 37.8443 62.1504C37.8846 62.1828 37.931 62.2068 37.9808 62.2209C38.0305 62.235 38.0826 62.2389 38.1339 62.2325C38.198 62.2347 38.2619 62.2231 38.3211 62.1985C38.3804 62.1739 38.4336 62.1368 38.4773 62.0898L38.593 62.2287C38.5347 62.2938 38.4624 62.3449 38.3816 62.3783C38.3008 62.4117 38.2135 62.4265 38.1262 62.4215C38.0435 62.4274 37.9605 62.4161 37.8825 62.3882C37.8044 62.3603 37.733 62.3165 37.6728 62.2595C37.6126 62.2026 37.5649 62.1337 37.5327 62.0574C37.5005 61.981 37.4845 61.8987 37.4858 61.8159C37.4826 61.7361 37.4958 61.6566 37.5247 61.5822C37.5535 61.5077 37.5973 61.44 37.6533 61.3833C37.7094 61.3265 37.7765 61.2818 37.8506 61.252C37.9246 61.2223 38.004 61.208 38.0838 61.2102C38.1634 61.2079 38.2426 61.2222 38.3164 61.2523C38.3901 61.2825 38.4568 61.3277 38.512 61.3851C38.5672 61.4425 38.6098 61.5108 38.6371 61.5857C38.6643 61.6605 38.6756 61.7403 38.6701 61.8197C38.6707 61.8417 38.6694 61.8636 38.6663 61.8853ZM37.7019 61.731H38.4734C38.4734 61.6287 38.4328 61.5306 38.3604 61.4582C38.2881 61.3859 38.1899 61.3452 38.0876 61.3452C37.9853 61.3452 37.8872 61.3859 37.8148 61.4582C37.7425 61.5306 37.7019 61.6287 37.7019 61.731Z" fill="white"/>
<path d="M35.4064 25.3455C35.4098 24.9001 35.3101 24.46 35.1151 24.0595C34.92 23.6591 34.6349 23.3092 34.2821 23.0374C33.9293 22.7655 33.5183 22.579 33.0814 22.4925C32.6445 22.4059 32.1934 22.4217 31.7636 22.5386C31.3338 22.6555 30.9369 22.8703 30.604 23.1662C30.271 23.4621 30.0111 23.831 29.8446 24.2441C29.678 24.6572 29.6094 25.1033 29.644 25.5473C29.6786 25.9914 29.8155 26.4214 30.0441 26.8037C30.156 26.9889 30.2948 27.1239 30.4299 27.3207L32.108 29.5389C32.1565 29.6036 32.2194 29.6561 32.2917 29.6922C32.364 29.7284 32.4438 29.7472 32.5246 29.7472C32.6055 29.7472 32.6852 29.7284 32.7575 29.6922C32.8298 29.6561 32.8927 29.6036 32.9413 29.5389L34.5885 27.3554C34.7391 27.1783 34.8795 26.9929 35.009 26.7999C35.2683 26.359 35.4055 25.857 35.4064 25.3455ZM32.5208 26.5877C32.2688 26.5885 32.0223 26.5145 31.8124 26.375C31.6026 26.2356 31.4388 26.0371 31.3419 25.8045C31.2449 25.572 31.2192 25.3159 31.2678 25.0687C31.3165 24.8215 31.4375 24.5943 31.6154 24.4158C31.7932 24.2374 32.0201 24.1158 32.2671 24.0663C32.5142 24.0169 32.7703 24.0419 33.0032 24.1381C33.236 24.2344 33.4351 24.3975 33.5751 24.607C33.7152 24.8164 33.79 25.0627 33.79 25.3147C33.79 25.6516 33.6564 25.9748 33.4185 26.2135C33.1805 26.4521 32.8577 26.5867 32.5208 26.5877Z" fill="#5C8277"/>
<path d="M16.7115 139.098H16.1753V138.901H17.4715V139.098H16.9276V140.471H16.7038L16.7115 139.098Z" fill="#263238"/>
<path d="M17.4525 139.88C17.451 139.758 17.4858 139.638 17.5525 139.535C17.6192 139.433 17.7148 139.353 17.8273 139.304C17.9397 139.256 18.0638 139.243 18.1839 139.266C18.3041 139.288 18.4148 139.346 18.502 139.432C18.5893 139.517 18.6491 139.627 18.674 139.746C18.6989 139.866 18.6877 139.991 18.6418 140.104C18.5959 140.217 18.5174 140.314 18.4162 140.383C18.3151 140.452 18.1958 140.489 18.0736 140.489C17.9919 140.494 17.9101 140.481 17.8336 140.452C17.7571 140.423 17.6874 140.379 17.629 140.321C17.5706 140.264 17.5247 140.195 17.4943 140.119C17.464 140.043 17.4497 139.962 17.4525 139.88ZM18.4709 139.88C18.4709 139.774 18.4289 139.672 18.354 139.597C18.2791 139.523 18.1776 139.481 18.0717 139.481C17.9658 139.481 17.8642 139.523 17.7893 139.597C17.7144 139.672 17.6724 139.774 17.6724 139.88C17.6724 139.986 17.7144 140.087 17.7893 140.162C17.8642 140.237 17.9658 140.279 18.0717 140.279C18.1776 140.279 18.2791 140.237 18.354 140.162C18.4289 140.087 18.4709 139.986 18.4709 139.88Z" fill="#263238"/>
<path d="M19.6554 140.396C19.5824 140.454 19.4905 140.485 19.3969 140.48C19.3445 140.488 19.2909 140.484 19.2405 140.467C19.1902 140.45 19.1444 140.422 19.1069 140.385C19.0694 140.347 19.0412 140.301 19.0245 140.251C19.0079 140.201 19.0033 140.147 19.0111 140.095V139.443H18.8105V139.265H19.0111V139.007H19.2426V139.265H19.5821V139.443H19.2426V140.087C19.2384 140.113 19.2402 140.14 19.2478 140.165C19.2554 140.19 19.2686 140.213 19.2864 140.232C19.3043 140.252 19.3263 140.267 19.3508 140.276C19.3752 140.286 19.4016 140.29 19.4278 140.288C19.4891 140.287 19.5485 140.267 19.5975 140.23L19.6554 140.396Z" fill="#263238"/>
<path d="M20.8591 139.756V140.473H20.6547V140.319C20.609 140.377 20.55 140.422 20.4828 140.452C20.4156 140.481 20.3421 140.494 20.2689 140.489C19.9988 140.489 19.8291 140.346 19.8291 140.138C19.8291 139.929 19.9525 139.791 20.3036 139.791H20.6469V139.748C20.6469 139.567 20.5428 139.459 20.3267 139.459C20.1865 139.454 20.0494 139.501 19.941 139.59L19.8484 139.428C19.9903 139.321 20.1647 139.267 20.3422 139.274C20.4096 139.262 20.4789 139.266 20.5445 139.286C20.6101 139.305 20.6703 139.34 20.7204 139.386C20.7705 139.433 20.809 139.491 20.8331 139.555C20.8572 139.619 20.8661 139.688 20.8591 139.756ZM20.6431 140.111V139.945H20.3113C20.0991 139.945 20.0374 140.03 20.0374 140.13C20.0374 140.23 20.1339 140.323 20.2997 140.323C20.372 140.328 20.4442 140.311 20.5059 140.273C20.5676 140.234 20.6156 140.178 20.6431 140.111Z" fill="#263238"/>
<path d="M21.2563 138.812H21.4724V140.475H21.2563V138.812Z" fill="#263238"/>
<path d="M23.6054 138.812V140.475H23.4009V140.286C23.3521 140.352 23.288 140.405 23.2141 140.44C23.1401 140.476 23.0586 140.493 22.9766 140.49C22.8238 140.478 22.6812 140.409 22.5772 140.296C22.4733 140.183 22.4155 140.036 22.4155 139.883C22.4155 139.729 22.4733 139.582 22.5772 139.469C22.6812 139.356 22.8238 139.287 22.9766 139.275C23.0564 139.272 23.1358 139.287 23.2083 139.321C23.2808 139.354 23.3442 139.405 23.3932 139.468V138.812H23.6054ZM23.3932 139.881C23.3865 139.806 23.3583 139.735 23.312 139.677C23.2658 139.618 23.2034 139.574 23.1326 139.55C23.0618 139.526 22.9856 139.523 22.9132 139.542C22.8407 139.56 22.7753 139.599 22.7248 139.655C22.6742 139.71 22.6408 139.778 22.6285 139.852C22.6162 139.926 22.6256 140.001 22.6556 140.07C22.6855 140.138 22.7347 140.197 22.7972 140.238C22.8597 140.279 22.9327 140.301 23.0075 140.301C23.0612 140.301 23.1144 140.29 23.1636 140.269C23.2128 140.247 23.257 140.216 23.2933 140.176C23.3296 140.137 23.3573 140.09 23.3745 140.039C23.3917 139.988 23.3981 139.934 23.3932 139.881Z" fill="#263238"/>
<path d="M23.9761 138.916C23.9761 138.897 23.9799 138.878 23.9873 138.861C23.9947 138.843 24.0056 138.827 24.0192 138.814C24.0329 138.801 24.0491 138.79 24.0669 138.783C24.0846 138.776 24.1036 138.773 24.1227 138.773C24.1431 138.77 24.164 138.771 24.184 138.777C24.204 138.782 24.2225 138.792 24.2383 138.805C24.2542 138.819 24.2669 138.835 24.2756 138.854C24.2843 138.873 24.2888 138.893 24.2888 138.914C24.2888 138.935 24.2843 138.955 24.2756 138.974C24.2669 138.993 24.2542 139.01 24.2383 139.023C24.2225 139.037 24.204 139.046 24.184 139.052C24.164 139.057 24.1431 139.058 24.1227 139.055C24.1039 139.056 24.0853 139.052 24.0677 139.046C24.0502 139.039 24.0342 139.029 24.0206 139.016C24.007 139.003 23.996 138.988 23.9884 138.97C23.9808 138.953 23.9766 138.935 23.9761 138.916ZM24.0146 139.283H24.2307V140.471H24.0146V139.283Z" fill="#263238"/>
<path d="M24.4893 140.351L24.5818 140.178C24.7055 140.259 24.8504 140.302 24.9985 140.301C25.1991 140.301 25.2801 140.243 25.2801 140.143C25.2801 139.873 24.5085 140.104 24.5085 139.634C24.5085 139.418 24.7014 139.275 25.0062 139.275C25.1571 139.273 25.3058 139.311 25.4383 139.383L25.3457 139.553C25.2426 139.489 25.1233 139.457 25.0023 139.46C24.8133 139.46 24.7246 139.53 24.7246 139.622C24.7246 139.904 25.4961 139.676 25.4961 140.135C25.4961 140.351 25.2994 140.49 24.983 140.49C24.8083 140.494 24.6365 140.445 24.4893 140.351Z" fill="#263238"/>
<path d="M26.4336 140.396C26.3596 140.455 26.2662 140.485 26.1713 140.48C26.1188 140.488 26.0653 140.484 26.0149 140.467C25.9645 140.45 25.9188 140.422 25.8812 140.385C25.8437 140.347 25.8155 140.301 25.7989 140.251C25.7823 140.201 25.7777 140.147 25.7855 140.095V139.443H25.5811V139.265H25.8009V139.007H26.017V139.265H26.3565V139.443H26.017V140.087C26.0128 140.113 26.0146 140.14 26.0222 140.165C26.0298 140.19 26.043 140.213 26.0608 140.232C26.0787 140.252 26.1006 140.267 26.1251 140.276C26.1496 140.286 26.1759 140.29 26.2022 140.288C26.2624 140.287 26.3207 140.267 26.368 140.23L26.4336 140.396Z" fill="#263238"/>
<path d="M27.637 139.755V140.472H27.4325V140.318C27.3866 140.375 27.3276 140.42 27.2604 140.45C27.1933 140.48 27.1199 140.492 27.0467 140.487C26.7805 140.487 26.6069 140.345 26.6069 140.136C26.6069 139.928 26.7304 139.789 27.0853 139.789H27.4286V139.747C27.4286 139.565 27.3206 139.457 27.1084 139.457C26.9685 139.455 26.8319 139.501 26.7227 139.589L26.6339 139.427C26.7759 139.32 26.9503 139.265 27.1277 139.272C27.1946 139.262 27.263 139.267 27.3276 139.287C27.3922 139.307 27.4514 139.342 27.5005 139.389C27.5497 139.435 27.5875 139.492 27.6112 139.556C27.6348 139.619 27.6436 139.687 27.637 139.755ZM27.4209 140.109V139.944H27.0892C26.8731 139.944 26.8153 140.028 26.8153 140.129C26.8153 140.229 26.9117 140.322 27.0776 140.322C27.1499 140.327 27.222 140.309 27.2837 140.271C27.3454 140.233 27.3934 140.177 27.4209 140.109Z" fill="#263238"/>
<path d="M29.161 139.79V140.473H28.9488V139.813C28.9488 139.582 28.8292 139.466 28.6248 139.466C28.5729 139.461 28.5207 139.468 28.4717 139.485C28.4227 139.503 28.3783 139.531 28.3415 139.568C28.3046 139.605 28.2764 139.65 28.2587 139.698C28.241 139.747 28.2342 139.8 28.239 139.852V140.461H28.0229V139.273H28.2274V139.454C28.2787 139.39 28.3447 139.339 28.4199 139.305C28.4951 139.271 28.5773 139.256 28.6595 139.261C28.7295 139.254 28.8003 139.263 28.8664 139.287C28.9325 139.312 28.9921 139.351 29.0406 139.402C29.0891 139.453 29.1252 139.515 29.146 139.582C29.1669 139.649 29.172 139.72 29.161 139.79Z" fill="#263238"/>
<path d="M29.4577 139.878C29.4559 139.796 29.4712 139.714 29.5025 139.638C29.5338 139.563 29.5804 139.494 29.6395 139.437C29.6985 139.38 29.7688 139.336 29.8457 139.308C29.9226 139.279 30.0046 139.267 30.0865 139.272C30.1829 139.267 30.279 139.288 30.3645 139.332C30.4501 139.377 30.522 139.444 30.5725 139.527L30.4067 139.631C30.3709 139.578 30.3226 139.535 30.266 139.505C30.2095 139.475 30.1465 139.46 30.0826 139.461C29.9785 139.471 29.8819 139.519 29.8116 139.597C29.7413 139.674 29.7023 139.775 29.7023 139.88C29.7023 139.984 29.7413 140.085 29.8116 140.162C29.8819 140.24 29.9785 140.288 30.0826 140.298C30.1465 140.299 30.2095 140.284 30.266 140.254C30.3226 140.225 30.3709 140.181 30.4067 140.128L30.5725 140.229C30.5221 140.311 30.4504 140.379 30.3649 140.425C30.2794 140.47 30.1832 140.492 30.0865 140.487C30.0044 140.491 29.9223 140.479 29.8454 140.45C29.7685 140.421 29.6983 140.377 29.6393 140.319C29.5803 140.262 29.5337 140.193 29.5025 140.117C29.4712 140.041 29.456 139.96 29.4577 139.878Z" fill="#263238"/>
<path d="M31.8997 139.954H30.9353C30.94 140.006 30.9551 140.056 30.9796 140.101C31.004 140.147 31.0374 140.187 31.0777 140.219C31.118 140.252 31.1644 140.276 31.2142 140.29C31.2639 140.304 31.316 140.308 31.3673 140.301C31.4314 140.304 31.4953 140.292 31.5545 140.267C31.6138 140.243 31.667 140.206 31.7107 140.159L31.8303 140.297C31.7703 140.362 31.6972 140.412 31.616 140.445C31.5348 140.479 31.4473 140.494 31.3596 140.49C31.2766 140.496 31.1933 140.485 31.115 140.457C31.0366 140.429 30.9651 140.384 30.9048 140.327C30.8445 140.27 30.7969 140.2 30.7649 140.124C30.733 140.047 30.7174 139.964 30.7192 139.881C30.716 139.801 30.7292 139.722 30.7581 139.647C30.7869 139.573 30.8307 139.505 30.8867 139.448C30.9428 139.391 31.0099 139.347 31.084 139.317C31.158 139.287 31.2374 139.273 31.3172 139.275C31.3971 139.273 31.4767 139.287 31.5508 139.318C31.6248 139.348 31.6916 139.393 31.7469 139.451C31.8022 139.509 31.8447 139.578 31.8717 139.653C31.8987 139.729 31.9095 139.809 31.9036 139.889C31.9041 139.91 31.9028 139.932 31.8997 139.954ZM30.9353 139.8H31.7068C31.7068 139.697 31.6662 139.599 31.5938 139.527C31.5215 139.455 31.4233 139.414 31.321 139.414C31.2187 139.414 31.1206 139.455 31.0482 139.527C30.9759 139.599 30.9353 139.697 30.9353 139.8Z" fill="#263238"/>
<path d="M18.1237 142.237V145.979H17.2557V142.931H16.5073V142.237H18.1237Z" fill="#263238"/>
<path d="M19.7864 145.5C19.7782 145.686 19.7294 145.867 19.6437 146.032L19.3351 146.804H18.8065L19.0419 145.955C18.9525 145.918 18.8766 145.855 18.8248 145.773C18.773 145.692 18.7477 145.596 18.7525 145.5C18.7525 145.363 18.807 145.231 18.9039 145.134C19.0009 145.037 19.1324 144.983 19.2695 144.983C19.4066 144.983 19.5381 145.037 19.635 145.134C19.7319 145.231 19.7864 145.363 19.7864 145.5Z" fill="#263238"/>
<path d="M21.5576 142.237V145.979H20.6703V142.931H19.9219V142.237H21.5576Z" fill="#263238"/>
<path d="M22.1899 144.109C22.1899 142.874 22.8728 142.18 23.7948 142.18C24.7168 142.18 25.3996 142.882 25.3996 144.109C25.3996 145.335 24.7206 146.037 23.7948 146.037C22.8689 146.037 22.1899 145.343 22.1899 144.109ZM24.5277 144.109C24.5277 143.26 24.2268 142.905 23.7948 142.905C23.3627 142.905 23.0657 143.26 23.0657 144.109C23.0657 144.957 23.3666 145.312 23.7948 145.312C24.223 145.312 24.5277 144.961 24.5277 144.109Z" fill="#263238"/>
<path d="M25.8198 144.109C25.8198 142.874 26.5065 142.18 27.4285 142.18C28.3505 142.18 29.0333 142.882 29.0333 144.109C29.0333 145.335 28.3544 146.037 27.4285 146.037C26.5026 146.037 25.8198 145.343 25.8198 144.109ZM28.1615 144.109C28.1615 143.26 27.8606 142.905 27.4285 142.905C26.9964 142.905 26.6994 143.26 26.6994 144.109C26.6994 144.957 27.0003 145.312 27.4285 145.312C27.8567 145.312 28.1615 144.961 28.1615 144.109Z" fill="#263238"/>
<path d="M36.0082 144.331V145.978H35.175V144.462C35.175 143.995 34.9666 143.779 34.6272 143.779C34.2877 143.779 33.9906 144.022 33.9906 144.551V145.994H33.1574V144.478C33.1574 144.011 32.9606 143.795 32.6134 143.795C32.2662 143.795 31.9807 144.038 31.9807 144.566V146.009H31.1475V143.093H31.9422V143.424C32.0556 143.297 32.1956 143.197 32.3523 143.13C32.509 143.064 32.6785 143.032 32.8487 143.039C33.0335 143.029 33.2176 143.067 33.3832 143.15C33.5488 143.232 33.6903 143.356 33.7939 143.509C33.9198 143.357 34.0786 143.236 34.2584 143.154C34.4382 143.073 34.6343 143.033 34.8316 143.039C35.5183 143.058 36.0082 143.455 36.0082 144.331Z" fill="#263238"/>
<path d="M14.2061 142.672C14.6142 140.936 13.5378 139.198 11.8019 138.789C10.0659 138.381 8.32777 139.458 7.91964 141.194C7.51152 142.93 8.58794 144.668 10.3239 145.076C12.0599 145.484 13.798 144.408 14.2061 142.672Z" fill="#5C8277"/>
<path d="M9.76036 142.53C10.035 142.49 10.3124 142.474 10.5898 142.48C11.1183 142.48 11.8744 142.453 12.7771 142.445L12.7115 142.588C12.4531 142.295 12.1792 141.971 11.886 141.635L11.8358 141.577L11.886 141.511L12.7 140.497L12.7771 140.659H12.3913H9.74107L9.83366 140.57C9.83366 141.55 9.81051 142.376 9.79508 142.954C9.80151 143.26 9.78345 143.566 9.74107 143.869C9.70115 143.565 9.6831 143.26 9.68706 142.954C9.68706 142.376 9.66006 141.55 9.65234 140.57V140.481H9.74107H12.3913H12.9661L12.835 140.643L12.0133 141.658V141.535L12.8234 142.499L12.9469 142.642H12.7578C11.8551 142.642 11.099 142.619 10.5705 142.607C10.2987 142.605 10.0277 142.579 9.76036 142.53Z" fill="#FAFAFA"/>
<path d="M63.3059 136.427H53.5458C53.0496 136.427 52.5737 136.624 52.2228 136.975C51.8719 137.326 51.6748 137.802 51.6748 138.298V145.983C51.6758 146.478 51.8734 146.953 52.2242 147.303C52.5749 147.653 53.0503 147.85 53.5458 147.85H53.7927V149.682L55.9183 147.85H63.3059C63.8015 147.85 64.2768 147.653 64.6276 147.303C64.9783 146.953 65.1759 146.478 65.1769 145.983V138.298C65.1769 137.802 64.9798 137.326 64.6289 136.975C64.278 136.624 63.8021 136.427 63.3059 136.427Z" fill="#5C8277"/>
<path d="M54.4751 139.958V143.901C54.4751 143.942 54.4914 143.981 54.5203 144.01C54.5492 144.039 54.5885 144.055 54.6294 144.055H62.8927C62.913 144.055 62.9329 144.05 62.9515 144.042C62.97 144.034 62.9867 144.022 63.0007 144.007C63.0147 143.992 63.0256 143.975 63.0329 143.956C63.0402 143.937 63.0437 143.917 63.0432 143.897L63.0239 142.454C63.0244 142.422 63.015 142.391 62.9969 142.365L61.8087 140.78C61.7951 140.761 61.7772 140.745 61.7564 140.734C61.7356 140.724 61.7125 140.718 61.6891 140.718H60.3234C60.2832 140.718 60.2445 140.702 60.2157 140.674C60.1868 140.646 60.1701 140.608 60.1691 140.568V139.97C60.1697 139.95 60.1661 139.93 60.1588 139.911C60.1515 139.892 60.1405 139.875 60.1265 139.861C60.1124 139.846 60.0957 139.835 60.0772 139.827C60.0587 139.819 60.0388 139.815 60.0187 139.815H54.6178C54.5809 139.818 54.5461 139.834 54.5199 139.86C54.4937 139.886 54.4778 139.921 54.4751 139.958Z" fill="#FAFAFA"/>
<path d="M60.5553 141.052V142.322C60.5553 142.345 60.5646 142.368 60.5813 142.384C60.5979 142.401 60.6205 142.41 60.644 142.41L62.4687 142.379C62.4846 142.379 62.4999 142.374 62.5132 142.365C62.5265 142.357 62.5373 142.345 62.5444 142.33C62.5515 142.316 62.5546 142.3 62.5535 142.285C62.5525 142.269 62.5471 142.254 62.5382 142.241L61.6779 140.975C61.6703 140.963 61.6594 140.953 61.6465 140.946C61.6336 140.939 61.6191 140.936 61.6046 140.937L60.6324 140.964C60.6106 140.966 60.5904 140.976 60.576 140.992C60.5616 141.009 60.5542 141.03 60.5553 141.052Z" fill="#5C8277"/>
<path d="M63.2094 144.174H54.3096V144.448H63.2094V144.174Z" fill="#FAFAFA"/>
<path d="M57.2527 144.278C57.2534 144.453 57.2022 144.624 57.1054 144.77C57.0086 144.916 56.8707 145.03 56.7091 145.097C56.5475 145.165 56.3696 145.182 56.1979 145.149C56.0261 145.115 55.8684 145.03 55.7446 144.907C55.6208 144.783 55.5366 144.625 55.5026 144.453C55.4687 144.282 55.4865 144.104 55.5538 143.942C55.6212 143.78 55.735 143.642 55.8809 143.546C56.0267 143.449 56.1981 143.398 56.3731 143.398C56.6064 143.398 56.8301 143.491 56.9951 143.656C57.16 143.821 57.2527 144.045 57.2527 144.278Z" fill="#5C8277"/>
<path d="M56.8902 144.277C56.891 144.381 56.861 144.482 56.8041 144.568C56.7471 144.654 56.6658 144.722 56.5705 144.761C56.4752 144.801 56.3701 144.812 56.2688 144.792C56.1674 144.772 56.0742 144.722 56.0012 144.649C55.9281 144.576 55.8784 144.483 55.8585 144.382C55.8385 144.28 55.8491 144.175 55.889 144.08C55.9289 143.985 55.9963 143.903 56.0825 143.846C56.1687 143.789 56.2699 143.76 56.3733 143.76C56.5104 143.76 56.6419 143.815 56.7388 143.912C56.8357 144.009 56.8902 144.14 56.8902 144.277Z" fill="#FAFAFA"/>
<path d="M60.1655 144.054C60.1423 144.054 60.123 143.102 60.123 141.929C60.123 140.756 60.123 139.803 60.1655 139.803C60.2079 139.803 60.2041 140.756 60.2041 141.929C60.2041 143.102 60.1848 144.054 60.1655 144.054Z" fill="#5C8277"/>
<path d="M62.0638 144.278C62.0638 144.452 62.0122 144.622 61.9156 144.767C61.8189 144.911 61.6816 145.024 61.5209 145.091C61.3601 145.157 61.1833 145.175 61.0127 145.141C60.842 145.107 60.6853 145.023 60.5623 144.9C60.4393 144.777 60.3555 144.62 60.3216 144.45C60.2876 144.279 60.3051 144.102 60.3716 143.941C60.4382 143.781 60.551 143.643 60.6956 143.547C60.8402 143.45 61.0103 143.398 61.1843 143.398C61.4175 143.398 61.6413 143.491 61.8062 143.656C61.9712 143.821 62.0638 144.045 62.0638 144.278Z" fill="#5C8277"/>
<path d="M61.6778 144.277C61.6786 144.38 61.6487 144.481 61.5919 144.568C61.5352 144.654 61.4541 144.721 61.359 144.761C61.2639 144.801 61.1591 144.812 61.0578 144.792C60.9565 144.773 60.8634 144.723 60.7901 144.651C60.7169 144.578 60.6669 144.485 60.6465 144.384C60.6261 144.283 60.6362 144.178 60.6755 144.083C60.7148 143.987 60.7816 143.906 60.8673 143.848C60.953 143.791 61.0538 143.76 61.157 143.76C61.2945 143.76 61.4264 143.815 61.5239 143.911C61.6215 144.008 61.6768 144.14 61.6778 144.277Z" fill="#FAFAFA"/>
<path d="M61.1726 142.653C61.1726 142.676 61.0453 142.691 60.891 142.691C60.7367 142.691 60.6094 142.691 60.6094 142.653C60.6094 142.614 60.7367 142.61 60.891 142.61C61.0453 142.61 61.1726 142.63 61.1726 142.653Z" fill="#5C8277"/>
</svg>
