<svg width="80" height="80" viewBox="0 0 82 159" fill="none" xmlns="http://www.w3.org/2000/svg">
<path d="M75.0927 0H6.89893C5.98432 0.00826163 5.0803 0.196669 4.23854 0.554453C3.39678 0.912237 2.63377 1.43239 1.99311 2.08517C1.35245 2.73796 0.846706 3.5106 0.504775 4.35892C0.162844 5.20725 -0.00856654 6.11464 0.000329322 7.02925V151.445C-0.0153973 153.291 0.702203 155.069 1.9956 156.386C3.289 157.704 5.05249 158.455 6.89893 158.474H75.0927C76.9403 158.456 78.7053 157.706 80.0003 156.388C81.2952 155.07 82.0143 153.292 81.9997 151.445V7.02925C82.0155 5.18133 81.2967 3.4028 80.0015 2.08466C78.7063 0.766531 76.9406 0.0166924 75.0927 0ZM77.6844 147.104C77.6844 150.8 74.9157 153.788 71.5022 153.788H10.4978C7.07592 153.788 4.30721 150.8 4.30721 147.104V12.3517C4.30721 4.82102 7.07592 4.45438 10.4978 4.45438H22.7189C23.4269 4.45438 24.0085 5.2635 24.0085 6.26226V6.68368C24.0085 9.02676 25.2727 9.03519 26.8657 9.03519H55.1259C56.7147 9.03519 57.9916 9.03519 57.9916 6.68368V6.26226C57.9916 5.2635 58.5647 4.45438 59.2853 4.45438H71.5065C74.9199 4.45438 77.6886 5.45736 77.6886 12.3517L77.6844 147.104Z" fill="#263238"/>
<path d="M77.6843 12.352V147.104C77.6843 150.8 74.9156 153.788 71.5022 153.788H10.4978C7.07584 153.788 4.30713 150.8 4.30713 147.104V12.352C4.30713 4.82122 7.07584 4.45459 10.4978 4.45459H22.7189C23.4268 4.45459 24.0084 5.26371 24.0084 6.26247V6.68389C24.0084 9.02697 25.2727 9.0354 26.8656 9.0354H55.1259C56.7146 9.0354 57.9915 9.0354 57.9915 6.68389V6.26247C57.9915 5.26371 58.5646 4.45459 59.2853 4.45459H71.5064C74.9156 4.45459 77.6843 5.45756 77.6843 12.352Z" fill="white"/>
<path d="M77.6843 12.3477V147.104C77.6843 150.8 74.9156 153.788 71.5022 153.788H10.4978C7.07584 153.788 4.30713 150.8 4.30713 147.104V12.3477C4.30713 4.82122 7.07584 4.45459 10.4978 4.45459H22.7189C23.4268 4.45459 24.0084 5.26371 24.0084 6.26247V6.68389C24.0084 9.03118 25.2727 9.03961 26.8656 9.03961H55.1259C56.7146 9.03961 57.9915 9.03961 57.9915 6.68389V6.26247C57.9915 5.26371 58.5646 4.45459 59.2853 4.45459H71.5064C74.9156 4.45459 77.6843 5.45756 77.6843 12.3477Z" fill="white"/>
<path d="M20.6071 7.39586C20.5692 7.43379 20.5271 7.47172 20.4891 7.51386L20.4217 7.58128C20.2725 7.43144 20.0952 7.31254 19.9 7.23141C19.7047 7.15028 19.4953 7.10851 19.2839 7.10851C19.0724 7.10851 18.8631 7.15028 18.6678 7.23141C18.4726 7.31254 18.2952 7.43144 18.1461 7.58128L18.0828 7.51386C18.0449 7.47593 18.0028 7.438 17.9648 7.39586L18.1166 7.26101C18.2222 7.17392 18.3383 7.10031 18.4621 7.04187C18.606 6.96933 18.7591 6.91686 18.9173 6.88594L19.149 6.85645H19.3471H19.503C19.647 6.87314 19.7885 6.9071 19.9244 6.95759C20.0224 6.99395 20.1169 7.03908 20.2068 7.09244C20.3039 7.14686 20.3956 7.21035 20.4807 7.28208L20.6029 7.39165L20.6071 7.39586Z" fill="white"/>
<path d="M18.5209 7.9514L18.3354 7.76598C18.5389 7.55769 18.8057 7.42281 19.094 7.38249C19.3008 7.35196 19.5118 7.37038 19.7101 7.43625C19.9085 7.50212 20.0886 7.61362 20.236 7.76176L20.0464 7.94719C19.8435 7.74595 19.5694 7.63302 19.2836 7.63302C18.9979 7.63302 18.7237 7.74595 18.5209 7.94719V7.9514Z" fill="white"/>
<path d="M19.8617 8.13889L19.6763 8.32432C19.6257 8.27176 19.5648 8.23036 19.4973 8.20278C19.4298 8.1752 19.3573 8.16205 19.2844 8.16418C19.2117 8.16354 19.1396 8.17737 19.0723 8.20486C19.005 8.23235 18.9439 8.27296 18.8924 8.32432L18.707 8.13889C18.7826 8.0627 18.8726 8.00222 18.9717 7.96095C19.0708 7.91968 19.177 7.89844 19.2844 7.89844C19.3917 7.89844 19.498 7.91968 19.5971 7.96095C19.6962 8.00222 19.7861 8.0627 19.8617 8.13889Z" fill="white"/>
<path d="M19.4529 8.48888C19.4529 8.52222 19.443 8.55481 19.4244 8.58253C19.4059 8.61025 19.3796 8.63186 19.3488 8.64462C19.318 8.65737 19.2841 8.66071 19.2514 8.65421C19.2187 8.6477 19.1887 8.63165 19.1651 8.60808C19.1415 8.5845 19.1255 8.55446 19.119 8.52176C19.1125 8.48907 19.1158 8.45517 19.1286 8.42437C19.1413 8.39357 19.1629 8.36724 19.1906 8.34872C19.2184 8.3302 19.251 8.32031 19.2843 8.32031C19.329 8.32031 19.3719 8.33807 19.4035 8.36968C19.4351 8.4013 19.4529 8.44417 19.4529 8.48888Z" fill="white"/>
<path d="M9.09426 7.74646C9.09342 7.64942 9.12149 7.55433 9.17489 7.4733C9.22828 7.39226 9.30458 7.32896 9.39408 7.29144C9.48357 7.25392 9.5822 7.24388 9.67742 7.26261C9.77264 7.28133 9.86013 7.32798 9.92875 7.3966C9.99737 7.46522 10.044 7.55271 10.0627 7.64792C10.0815 7.74314 10.0714 7.84178 10.0339 7.93127C9.99639 8.02077 9.93308 8.09707 9.85205 8.15046C9.77102 8.20385 9.67593 8.23192 9.57889 8.23109C9.4507 8.22999 9.32807 8.17858 9.23742 8.08793C9.14677 7.99728 9.09536 7.87465 9.09426 7.74646Z" fill="white"/>
<path d="M10.6245 7.74648C10.6237 7.64962 10.6517 7.55469 10.7049 7.47375C10.7581 7.39281 10.8341 7.3295 10.9234 7.29185C11.0126 7.2542 11.111 7.24392 11.2061 7.2623C11.3012 7.28069 11.3887 7.32691 11.4575 7.39511C11.5263 7.4633 11.5733 7.55039 11.5925 7.64533C11.6117 7.74027 11.6023 7.83878 11.5654 7.92835C11.5285 8.01792 11.4659 8.09452 11.3854 8.14842C11.3049 8.20232 11.2102 8.2311 11.1134 8.23111C10.9845 8.23111 10.8607 8.18019 10.7692 8.08942C10.6776 7.99865 10.6256 7.8754 10.6245 7.74648Z" fill="white"/>
<path d="M12.1587 7.74646C12.1579 7.64942 12.1859 7.55433 12.2393 7.4733C12.2927 7.39226 12.369 7.32896 12.4585 7.29144C12.548 7.25392 12.6467 7.24388 12.7419 7.26261C12.8371 7.28133 12.9246 7.32798 12.9932 7.3966C13.0618 7.46522 13.1085 7.55271 13.1272 7.64792C13.1459 7.74314 13.1359 7.84178 13.0984 7.93127C13.0608 8.02077 12.9975 8.09707 12.9165 8.15046C12.8355 8.20385 12.7404 8.23192 12.6433 8.23109C12.5797 8.23109 12.5167 8.21855 12.4579 8.1942C12.3991 8.16985 12.3457 8.13415 12.3007 8.08914C12.2557 8.04414 12.22 7.99072 12.1956 7.93192C12.1712 7.87312 12.1587 7.8101 12.1587 7.74646Z" fill="white"/>
<path d="M13.6875 7.74648C13.6867 7.64962 13.7146 7.55469 13.7678 7.47375C13.8211 7.39281 13.8971 7.3295 13.9863 7.29185C14.0756 7.2542 14.174 7.24392 14.2691 7.2623C14.3642 7.28069 14.4517 7.32691 14.5205 7.39511C14.5893 7.4633 14.6363 7.55039 14.6555 7.64533C14.6747 7.74027 14.6653 7.83878 14.6284 7.92835C14.5915 8.01792 14.5289 8.09452 14.4484 8.14842C14.3679 8.20232 14.2732 8.2311 14.1764 8.23111C14.0474 8.23111 13.9237 8.18019 13.8322 8.08942C13.7406 7.99865 13.6886 7.8754 13.6875 7.74648Z" fill="white"/>
<path d="M15.2217 7.74646C15.2209 7.64978 15.2487 7.55502 15.3017 7.47418C15.3548 7.39333 15.4306 7.33002 15.5196 7.29226C15.6086 7.25449 15.7068 7.24396 15.8018 7.26201C15.8967 7.28005 15.9842 7.32586 16.0532 7.39363C16.1221 7.4614 16.1695 7.5481 16.1891 7.64276C16.2088 7.73742 16.2 7.83579 16.1638 7.92543C16.1275 8.01507 16.0655 8.09195 15.9856 8.14636C15.9057 8.20076 15.8114 8.23025 15.7148 8.23109C15.6504 8.23221 15.5865 8.2205 15.5267 8.19665C15.4669 8.17279 15.4125 8.13727 15.3666 8.09216C15.3207 8.04704 15.2843 7.99324 15.2594 7.93389C15.2345 7.87453 15.2217 7.81082 15.2217 7.74646Z" fill="white"/>
<path d="M72.185 8.80534H68.2236V6.97217H72.185V8.80534ZM68.4301 8.60727H71.9827V7.17445H68.4301V8.60727Z" fill="white"/>
<path d="M71.1065 7.28613H68.5527V8.4956H71.1065V7.28613Z" fill="white"/>
<path d="M72.539 7.40625H72.1851V8.38815H72.539V7.40625Z" fill="white"/>
<path d="M10.9989 19.6801L8.82861 17.6489L10.9989 15.6177L11.3318 15.9759L9.54923 17.6489L11.3318 19.3219L10.9989 19.6801Z" fill="#5C8277"/>
<path d="M71.0004 15.6177L73.1707 17.6489L71.0004 19.6801L70.6675 19.3219L72.4501 17.6489L70.6675 15.9759L71.0004 15.6177Z" fill="#5C8277"/>
<path d="M44.8524 6.1194H37.1447C37.0187 6.1183 36.8982 6.06777 36.8091 5.9787C36.7201 5.88964 36.6696 5.76915 36.6685 5.64319C36.6696 5.51724 36.7201 5.39675 36.8091 5.30768C36.8982 5.21862 37.0187 5.16809 37.1447 5.16699H44.8524C44.9787 5.16699 45.0998 5.21716 45.1891 5.30647C45.2784 5.39577 45.3286 5.5169 45.3286 5.64319C45.3286 5.76949 45.2784 5.89061 45.1891 5.97992C45.0998 6.06923 44.9787 6.1194 44.8524 6.1194Z" fill="white"/>
<path d="M72.7114 29.7891H9.28809V45.7313H72.7114V29.7891Z" fill="#EBEBEB"/>
<path d="M18.5512 43.3377C17.4492 43.3344 16.3729 43.0045 15.4583 42.3899C14.5436 41.7752 13.8317 40.9033 13.4123 39.8843C12.9929 38.8652 12.8848 37.7447 13.1019 36.6643C13.3189 35.5839 13.8512 34.5921 14.6316 33.814C15.412 33.036 16.4055 32.5067 17.4865 32.2929C18.5676 32.0792 19.6877 32.1905 20.7055 32.613C21.7233 33.0355 22.593 33.7501 23.2049 34.6666C23.8168 35.5831 24.1434 36.6604 24.1434 37.7623C24.1428 38.4958 23.9977 39.2219 23.7163 39.8992C23.4348 40.5765 23.0226 41.1916 22.5032 41.7094C21.9838 42.2273 21.3674 42.6376 20.6893 42.917C20.0112 43.1964 19.2846 43.3394 18.5512 43.3377ZM18.5512 32.9666C17.6015 32.9658 16.6729 33.2467 15.8829 33.7738C15.0929 34.3009 14.477 35.0505 14.1132 35.9277C13.7494 36.805 13.654 37.7705 13.839 38.7019C14.0241 39.6334 14.4814 40.4891 15.1529 41.1606C15.8244 41.8322 16.6801 42.2894 17.6116 42.4745C18.5431 42.6595 19.5085 42.5641 20.3858 42.2003C21.263 41.8365 22.0126 41.2206 22.5397 40.4306C23.0668 39.6406 23.3477 38.712 23.3469 37.7623C23.3447 36.4911 22.8387 35.2726 21.9398 34.3737C21.0409 33.4748 19.8224 32.9688 18.5512 32.9666Z" fill="#DBDBDB"/>
<path d="M16.4575 35.0547L15.8496 35.6626L20.6442 40.4572L21.2521 39.8493L16.4575 35.0547Z" fill="#DBDBDB"/>
<path d="M15.8506 39.853L16.4585 40.4609L21.2531 35.6663L20.6452 35.0584L15.8506 39.853Z" fill="#DBDBDB"/>
<path d="M69.0196 33.5068H28.2222V34.278H69.0196V33.5068Z" fill="#DBDBDB"/>
<path d="M69.0196 36.5933H28.2222V37.3645H69.0196V36.5933Z" fill="#DBDBDB"/>
<path d="M61.5268 38.1382H28.2222V38.9094H61.5268V38.1382Z" fill="#DBDBDB"/>
<path d="M50.3255 39.689H28.2222V40.4602H50.3255V39.689Z" fill="#DBDBDB"/>
<path d="M61.5268 41.2393H28.2222V42.0105H61.5268V41.2393Z" fill="#DBDBDB"/>
<path d="M72.7114 70.6812H9.28809V86.6234H72.7114V70.6812Z" fill="#EBEBEB"/>
<path d="M18.551 84.2213C17.4501 84.2172 16.375 83.8869 15.4616 83.2722C14.5483 82.6575 13.8375 81.786 13.419 80.7676C13.0006 79.7493 12.8933 78.6298 13.1106 77.5505C13.3279 76.4712 13.8602 75.4805 14.6402 74.7034C15.4201 73.9264 16.4129 73.3979 17.493 73.1846C18.5731 72.9714 19.6922 73.0829 20.7089 73.5052C21.7257 73.9275 22.5946 74.6415 23.2058 75.5572C23.817 76.4729 24.1433 77.5492 24.1433 78.6502C24.1427 79.3834 23.9975 80.1094 23.716 80.7864C23.4346 81.4635 23.0223 82.0783 22.5028 82.5958C21.9834 83.1133 21.367 83.5233 20.6888 83.8022C20.0107 84.0811 19.2843 84.2236 18.551 84.2213ZM18.551 73.8503C17.6015 73.8494 16.6731 74.1302 15.8832 74.6571C15.0933 75.1841 14.4774 75.9334 14.1135 76.8104C13.7495 77.6874 13.6539 78.6527 13.8386 79.584C14.0233 80.5154 14.4802 81.3711 15.1513 82.0428C15.8224 82.7145 16.6776 83.1721 17.6089 83.3576C18.5401 83.5432 19.5054 83.4483 20.3827 83.0852C21.26 82.722 22.0099 82.1068 22.5375 81.3173C23.0652 80.5279 23.3468 79.5997 23.3468 78.6502C23.3457 77.3782 22.8402 76.1586 21.9412 75.2588C21.0422 74.359 19.823 73.8525 18.551 73.8503Z" fill="#DBDBDB"/>
<path d="M16.4575 75.9468L15.8496 76.5547L20.6442 81.3493L21.2521 80.7414L16.4575 75.9468Z" fill="#DBDBDB"/>
<path d="M15.8506 80.7427L16.4585 81.3506L21.2531 76.556L20.6452 75.9481L15.8506 80.7427Z" fill="#DBDBDB"/>
<path d="M69.0196 74.3994H28.2222V75.1706H69.0196V74.3994Z" fill="#DBDBDB"/>
<path d="M69.0196 77.4766H28.2222V78.2478H69.0196V77.4766Z" fill="#DBDBDB"/>
<path d="M61.5268 79.0273H28.2222V79.7985H61.5268V79.0273Z" fill="#DBDBDB"/>
<path d="M50.3255 80.5781H28.2222V81.3493H50.3255V80.5781Z" fill="#DBDBDB"/>
<path d="M61.5268 82.1318H28.2222V82.903H61.5268V82.1318Z" fill="#DBDBDB"/>
<path d="M72.7114 91.3906H9.28809V107.333H72.7114V91.3906Z" fill="#EBEBEB"/>
<path d="M18.551 104.931C17.4508 104.927 16.3764 104.597 15.4634 103.983C14.5504 103.369 13.8396 102.498 13.4206 101.481C13.0017 100.464 12.8934 99.345 13.1094 98.2661C13.3253 97.1873 13.8559 96.1965 14.6342 95.4188C15.4125 94.6411 16.4036 94.1113 17.4826 93.8961C18.5617 93.681 19.6802 93.7901 20.6973 94.2098C21.7143 94.6295 22.5843 95.341 23.1976 96.2545C23.8108 97.168 24.1399 98.2426 24.1432 99.3428C24.1449 100.077 24.0014 100.805 23.7209 101.484C23.4404 102.163 23.0285 102.78 22.5088 103.299C21.9891 103.819 21.3719 104.23 20.6927 104.51C20.0135 104.79 19.2857 104.933 18.551 104.931ZM18.551 94.5597C17.6008 94.5589 16.6717 94.8401 15.8814 95.3678C15.0912 95.8955 14.4753 96.6458 14.1119 97.5238C13.7484 98.4018 13.6537 99.3679 13.8398 100.3C14.0259 101.232 14.4844 102.087 15.1572 102.758C15.83 103.429 16.6869 103.885 17.6192 104.069C18.5515 104.253 19.5174 104.156 20.3944 103.79C21.2714 103.424 22.0201 102.806 22.5457 102.015C23.0713 101.223 23.3501 100.293 23.3468 99.3428C23.3412 98.0738 22.8337 96.8585 21.9352 95.9623C21.0367 95.0662 19.8201 94.5619 18.551 94.5597Z" fill="#DBDBDB"/>
<path d="M16.4565 96.6533L15.8486 97.2612L20.6432 102.056L21.2511 101.448L16.4565 96.6533Z" fill="#DBDBDB"/>
<path d="M15.8457 101.452L16.4536 102.06L21.2482 97.2654L20.6403 96.6576L15.8457 101.452Z" fill="#DBDBDB"/>
<path d="M69.0196 95.1089H28.2222V95.8801H69.0196V95.1089Z" fill="#DBDBDB"/>
<path d="M69.0196 98.1895H28.2222V98.9606H69.0196V98.1895Z" fill="#DBDBDB"/>
<path d="M61.5268 99.7427H28.2222V100.514H61.5268V99.7427Z" fill="#DBDBDB"/>
<path d="M50.3255 101.288H28.2222V102.059H50.3255V101.288Z" fill="#DBDBDB"/>
<path d="M61.5268 102.841H28.2222V103.612H61.5268V102.841Z" fill="#DBDBDB"/>
<path d="M72.7114 112.097H9.28809V128.039H72.7114V112.097Z" fill="#EBEBEB"/>
<path d="M18.551 125.64C17.4501 125.636 16.375 125.306 15.4616 124.691C14.5483 124.076 13.8375 123.205 13.419 122.187C13.0006 121.168 12.8933 120.049 13.1106 118.969C13.3279 117.89 13.8602 116.899 14.6402 116.122C15.4201 115.345 16.4129 114.817 17.493 114.604C18.5731 114.39 19.6922 114.502 20.7089 114.924C21.7257 115.346 22.5946 116.06 23.2058 116.976C23.817 117.892 24.1433 118.968 24.1433 120.069C24.1427 120.802 23.9975 121.528 23.716 122.205C23.4346 122.882 23.0223 123.497 22.5028 124.015C21.9834 124.532 21.367 124.942 20.6888 125.221C20.0107 125.5 19.2843 125.643 18.551 125.64ZM18.551 115.269C17.6015 115.268 16.6731 115.549 15.8832 116.076C15.0933 116.603 14.4774 117.352 14.1135 118.229C13.7495 119.106 13.6539 120.072 13.8386 121.003C14.0233 121.934 14.4802 122.79 15.1513 123.462C15.8224 124.133 16.6776 124.591 17.6089 124.777C18.5401 124.962 19.5054 124.867 20.3827 124.504C21.26 124.141 22.0099 123.526 22.5375 122.736C23.0652 121.947 23.3468 121.019 23.3468 120.069C23.3457 118.797 22.8402 117.578 21.9412 116.678C21.0422 115.778 19.823 115.271 18.551 115.269Z" fill="#DBDBDB"/>
<path d="M16.4595 117.36L15.8516 117.968L20.6462 122.762L21.2541 122.154L16.4595 117.36Z" fill="#DBDBDB"/>
<path d="M15.8526 122.165L16.4604 122.772L21.2551 117.978L20.6472 117.37L15.8526 122.165Z" fill="#DBDBDB"/>
<path d="M69.0196 115.815H28.2222V116.587H69.0196V115.815Z" fill="#DBDBDB"/>
<path d="M69.0196 118.899H28.2222V119.67H69.0196V118.899Z" fill="#DBDBDB"/>
<path d="M61.5268 120.45H28.2222V121.221H61.5268V120.45Z" fill="#DBDBDB"/>
<path d="M50.3255 122H28.2222V122.771H50.3255V122Z" fill="#DBDBDB"/>
<path d="M61.5268 123.548H28.2222V124.319H61.5268V123.548Z" fill="#DBDBDB"/>
<path d="M74.7888 49.6606H7.20605V66.648H74.7888V49.6606Z" fill="#5C8277"/>
<path d="M76.2683 68.1988H5.73145V48.1099H76.2683V68.1988ZM6.15286 67.7774H75.8469V48.5313H6.15286V67.7774Z" fill="#5C8277"/>
<path d="M16.2545 61.2216L13.9409 58.8827L14.7205 58.1115L16.0691 59.4811L18.8757 55.0815L19.7944 55.6715L16.2545 61.2216Z" fill="white"/>
<path d="M17.076 64.0894C15.9016 64.0894 14.7536 63.7412 13.7771 63.0887C12.8006 62.4363 12.0396 61.5089 11.5902 60.4239C11.1408 59.3389 11.0232 58.1451 11.2523 56.9932C11.4814 55.8414 12.0469 54.7834 12.8773 53.953C13.7077 53.1226 14.7657 52.5571 15.9176 52.328C17.0694 52.0989 18.2633 52.2164 19.3482 52.6659C20.4332 53.1153 21.3606 53.8763 22.013 54.8528C22.6655 55.8293 23.0137 56.9773 23.0137 58.1516C23.0126 59.7261 22.3867 61.2357 21.2734 62.349C20.1601 63.4624 18.6504 64.0883 17.076 64.0894ZM17.076 53.0398C16.0639 53.0398 15.0746 53.34 14.2332 53.9023C13.3918 54.4647 12.7361 55.2639 12.349 56.199C11.9619 57.1341 11.8608 58.163 12.0586 59.1555C12.2563 60.148 12.744 61.0596 13.4599 61.7749C14.1758 62.4902 15.0878 62.9771 16.0805 63.1741C17.0731 63.371 18.1019 63.2691 19.0367 62.8812C19.9714 62.4934 20.7702 61.837 21.3318 60.9951C21.8935 60.1532 22.1928 59.1637 22.192 58.1516C22.1908 56.7955 21.6514 55.4953 20.692 54.5368C19.7327 53.5783 18.4321 53.0398 17.076 53.0398Z" fill="white"/>
<path d="M70.8614 53.6211H27.3838V54.4429H70.8614V53.6211Z" fill="white"/>
<path d="M70.8614 56.9019H27.3838V57.7236H70.8614V56.9019Z" fill="white"/>
<path d="M62.8756 58.5542H27.3838V59.376H62.8756V58.5542Z" fill="white"/>
<path d="M50.9368 60.2065H27.3838V61.0283H50.9368V60.2065Z" fill="white"/>
<path d="M62.8756 61.8594H27.3838V62.6811H62.8756V61.8594Z" fill="white"/>
<path d="M36.1879 144.31C36.1887 144.518 36.128 144.72 36.0135 144.893C35.899 145.065 35.7358 145.2 35.5447 145.279C35.3535 145.359 35.143 145.38 34.9399 145.34C34.7368 145.3 34.5502 145.2 34.4038 145.054C34.2573 144.907 34.1577 144.721 34.1175 144.517C34.0773 144.314 34.0984 144.104 34.178 143.913C34.2576 143.722 34.3923 143.558 34.5648 143.444C34.7373 143.329 34.9399 143.269 35.147 143.27C35.4227 143.271 35.6868 143.381 35.8818 143.576C36.0767 143.771 36.1868 144.035 36.1879 144.31Z" fill="#DBDBDB"/>
<path d="M41.0005 146.021C41.9454 146.021 42.7115 145.255 42.7115 144.31C42.7115 143.365 41.9454 142.599 41.0005 142.599C40.0556 142.599 39.2896 143.365 39.2896 144.31C39.2896 145.255 40.0556 146.021 41.0005 146.021Z" fill="#DBDBDB"/>
<path d="M47.8988 144.31C47.8996 144.517 47.8391 144.72 47.7247 144.892C47.6104 145.065 47.4475 145.199 47.2566 145.279C47.0657 145.359 46.8554 145.38 46.6524 145.34C46.4494 145.3 46.2628 145.201 46.1162 145.055C45.9696 144.909 45.8697 144.723 45.829 144.52C45.7883 144.317 45.8088 144.107 45.8877 143.916C45.9667 143.724 46.1007 143.561 46.2726 143.446C46.4446 143.331 46.6468 143.27 46.8537 143.27C47.1302 143.27 47.3954 143.379 47.5912 143.574C47.7871 143.769 47.8977 144.034 47.8988 144.31Z" fill="#DBDBDB"/>
</svg>
