<svg width="31" height="35" viewBox="0 0 31 35" fill="none" xmlns="http://www.w3.org/2000/svg">
<path d="M29.7353 15.1829L3.69845 0.321798C3.25927 0.0745629 2.75518 -0.0329796 2.25334 0.0134986C1.7515 0.0599767 1.27573 0.258269 0.889427 0.581956C0.503123 0.905644 0.224621 1.33936 0.091025 1.82532C-0.0425707 2.31128 -0.0249172 2.82641 0.141634 3.30208L4.88871 17.3527L0.141634 31.4048C0.00952429 31.7787 -0.0309737 32.1789 0.0235377 32.5717C0.0780491 32.9645 0.22598 33.3385 0.454918 33.6623C0.683855 33.9862 0.987122 34.2504 1.33927 34.4327C1.69142 34.6151 2.08217 34.7104 2.47875 34.7106C2.9096 34.7097 3.33292 34.5976 3.70775 34.3851L29.7322 19.4992C30.116 19.2841 30.4358 18.9708 30.6586 18.5914C30.8814 18.212 30.9992 17.7802 31 17.3402C31.0008 16.9002 30.8845 16.468 30.6631 16.0878C30.4416 15.7076 30.123 15.3931 29.7399 15.1767L29.7353 15.1829ZM2.47875 32.2309C2.47942 32.2247 2.47942 32.2184 2.47875 32.2123L7.08789 18.5925H16.1171C16.4459 18.5925 16.7613 18.4619 16.9938 18.2294C17.2263 17.9969 17.3569 17.6815 17.3569 17.3527C17.3569 17.0238 17.2263 16.7085 16.9938 16.476C16.7613 16.2435 16.4459 16.1128 16.1171 16.1128H7.08789L2.48805 2.49928C2.48652 2.49051 2.48337 2.4821 2.47875 2.47449L28.5156 17.3263L2.47875 32.2309Z" fill="#225A4B"/>
</svg>
