<svg width="26" height="20" viewBox="0 0 26 20" fill="none" xmlns="http://www.w3.org/2000/svg">
<path d="M25.0292 2.29023C24.1437 2.69273 23.1892 2.95723 22.2002 3.08373C23.2122 2.47423 23.9942 1.50823 24.3622 0.346734C23.4077 0.921734 22.3497 1.32423 21.2342 1.55423C20.3257 0.565235 19.0492 -0.00976562 17.6002 -0.00976562C14.8977 -0.00976562 12.6897 2.19823 12.6897 4.92373C12.6897 5.31473 12.7357 5.69424 12.8162 6.05074C8.72219 5.84374 5.07669 3.87723 2.65019 0.898734C2.22469 1.62323 1.98319 2.47423 1.98319 3.37123C1.98319 5.08473 2.84569 6.60274 4.17969 7.46523C3.36319 7.46523 2.60419 7.23524 1.93719 6.89023V6.92473C1.93719 9.31673 3.63919 11.3177 5.89319 11.7662C5.16966 11.9651 4.40973 11.9927 3.67369 11.8467C3.98604 12.8271 4.59776 13.6849 5.42286 14.2996C6.24796 14.9143 7.24496 15.255 8.27369 15.2737C6.52991 16.6543 4.3683 17.4005 2.14419 17.3897C1.75319 17.3897 1.36219 17.3667 0.971191 17.3207C3.15619 18.7237 5.75519 19.5402 8.53819 19.5402C17.6002 19.5402 22.5797 12.0192 22.5797 5.49873C22.5797 5.28023 22.5797 5.07323 22.5682 4.85473C23.5342 4.16473 24.3622 3.29073 25.0292 2.29023Z" fill="#225A4B"/>
</svg>
