<svg width="17" height="23" viewBox="0 0 17 23" fill="none" xmlns="http://www.w3.org/2000/svg">
<path d="M8.05 10.925C7.2875 10.925 6.55623 10.6221 6.01707 10.0829C5.4779 9.54377 5.175 8.8125 5.175 8.05C5.175 7.2875 5.4779 6.55623 6.01707 6.01707C6.55623 5.4779 7.2875 5.175 8.05 5.175C8.8125 5.175 9.54377 5.4779 10.0829 6.01707C10.6221 6.55623 10.925 7.2875 10.925 8.05C10.925 8.42755 10.8506 8.8014 10.7062 9.15022C10.5617 9.49903 10.3499 9.81596 10.0829 10.0829C9.81596 10.3499 9.49903 10.5617 9.15022 10.7062C8.8014 10.8506 8.42755 10.925 8.05 10.925ZM8.05 0C5.91501 0 3.86746 0.848122 2.35779 2.35779C0.848122 3.86746 0 5.91501 0 8.05C0 14.0875 8.05 23 8.05 23C8.05 23 16.1 14.0875 16.1 8.05C16.1 5.91501 15.2519 3.86746 13.7422 2.35779C12.2325 0.848122 10.185 0 8.05 0Z" fill="#225A4B"/>
</svg>
