<svg width="24" height="24" viewBox="0 0 24 24" fill="none" xmlns="http://www.w3.org/2000/svg">
<path d="M19.8771 5.25012C19.8279 5.25042 19.779 5.24101 19.7334 5.22244C19.6878 5.20387 19.6463 5.17649 19.6113 5.14188C19.5763 5.10727 19.5484 5.06609 19.5293 5.02071C19.5101 4.97532 19.5002 4.92662 19.4999 4.87737C19.4954 4.13937 19.3199 3.38112 18.8669 2.77062C18.4206 2.16987 17.6744 1.67187 16.4466 1.49562C16.3515 1.47791 16.2669 1.42412 16.2105 1.34548C16.1541 1.26684 16.1303 1.16944 16.144 1.07366C16.1578 0.977873 16.208 0.891112 16.2843 0.831515C16.3605 0.771918 16.4568 0.744098 16.5531 0.753872C17.9496 0.953372 18.8864 1.53912 19.4691 2.32362C20.0444 3.09912 20.2446 4.02912 20.2499 4.87287C20.2502 4.92212 20.2408 4.97094 20.2222 5.01655C20.2036 5.06216 20.1762 5.10367 20.1416 5.1387C20.107 5.17373 20.0658 5.2016 20.0204 5.22072C19.9751 5.23984 19.9264 5.24983 19.8771 5.25012ZM17.6249 5.62737C17.6255 5.72683 17.6655 5.82197 17.7363 5.89188C17.807 5.96178 17.9027 6.00072 18.0021 6.00012C18.1016 5.99953 18.1967 5.95944 18.2666 5.8887C18.3365 5.81795 18.3755 5.72233 18.3749 5.62287C18.3696 4.80387 18.1709 3.86862 17.5874 3.12987C16.9919 2.37462 16.0349 1.87512 14.6249 1.87512C14.5254 1.87512 14.43 1.91463 14.3597 1.98496C14.2894 2.05528 14.2499 2.15067 14.2499 2.25012C14.2499 2.34958 14.2894 2.44496 14.3597 2.51529C14.43 2.58561 14.5254 2.62512 14.6249 2.62512C15.8399 2.62512 16.5651 3.04512 16.9986 3.59412C17.4441 4.15887 17.6204 4.91112 17.6249 5.62737ZM3.37486 12.7501C3.47432 12.7501 3.5697 12.7896 3.64003 12.86C3.71035 12.9303 3.74986 13.0257 3.74986 13.1251C3.74986 13.8924 3.75511 14.5606 4.00111 15.1336C4.23211 15.6736 4.69936 16.1709 5.74336 16.5196C5.83415 16.5538 5.90817 16.6218 5.9499 16.7093C5.99162 16.7969 5.99779 16.8972 5.96712 16.9892C5.93645 17.0812 5.87132 17.1578 5.7854 17.2028C5.69949 17.2478 5.59948 17.2578 5.50636 17.2306C4.30036 16.8286 3.64261 16.2024 3.31111 15.4291C2.99986 14.7016 2.99986 13.8856 2.99986 13.1619V13.1244C2.99986 13.0249 3.03937 12.9295 3.1097 12.8592C3.18002 12.7889 3.27541 12.7501 3.37486 12.7501ZM1.85986 14.2726C1.95932 14.2726 2.0547 14.3121 2.12503 14.3825C2.19535 14.4528 2.23486 14.5482 2.23486 14.6476C2.23486 16.0906 3.31561 18.0226 5.58961 18.0226C5.68907 18.0226 5.78445 18.0621 5.85478 18.1325C5.9251 18.2028 5.96461 18.2982 5.96461 18.3976C5.96461 18.4971 5.9251 18.5925 5.85478 18.6628C5.78445 18.7331 5.68907 18.7726 5.58961 18.7726C2.77711 18.7726 1.48486 16.3689 1.48486 14.6476C1.48486 14.5482 1.52437 14.4528 1.5947 14.3825C1.66502 14.3121 1.76041 14.2726 1.85986 14.2726ZM16.1166 5.10462C15.7836 4.36962 15.1731 4.01787 14.5821 3.91062C14.07 3.81992 13.5424 3.88796 13.0701 4.10562C12.7191 4.27287 12.3321 4.64187 12.0936 5.15637C11.7726 4.99556 11.4193 4.90978 11.0603 4.90549C10.7014 4.9012 10.3461 4.97853 10.0214 5.13162L10.0124 5.13612L10.0041 5.13987C9.56594 5.36454 9.20749 5.71855 8.97736 6.15387C8.69311 6.69912 8.61136 7.39587 8.92486 8.17737L9.05986 8.51187C8.75986 8.53587 8.43511 8.62062 8.09236 8.79162C7.27411 9.19812 6.48886 10.4716 7.29736 12.0939L7.31086 12.1209L7.32586 12.1464L7.47286 12.3879C7.12915 12.5309 6.82094 12.7475 6.56986 13.0224C6.22895 13.3929 6.03251 13.8736 6.01636 14.3769C6.00136 14.9221 6.19711 15.4734 6.58486 16.0006C6.84136 16.3501 7.24186 16.8031 7.61986 17.2006C7.98136 17.5801 8.36686 17.9559 8.62561 18.1621L12.0509 21.2896L12.0599 21.2986L12.0696 21.3069C12.4649 21.6444 13.1519 22.1206 13.9874 22.5166C14.8199 22.9111 15.8519 23.2501 16.9221 23.2501C18.2489 23.2501 19.8134 22.7266 21.0539 21.6871C22.3139 20.6311 23.2499 19.0321 23.2499 16.9164V16.8856C23.2124 15.9781 23.0166 15.1096 22.8344 14.3004L22.7346 13.8526C22.5261 12.8941 22.3656 11.9626 22.4451 10.9141C22.4973 10.1768 22.5573 9.43997 22.6251 8.70387C22.6611 8.31012 22.5306 7.77012 22.2471 7.30137C21.9471 6.80412 21.4281 6.31137 20.6316 6.14487L20.6249 6.14262C20.1022 6.04665 19.5625 6.12684 19.0904 6.37062C18.4881 6.68787 18.0179 7.29387 17.9054 8.23062C17.8834 8.41262 17.8639 8.58287 17.8469 8.74137C17.7569 8.57087 17.6646 8.39212 17.5701 8.20512C17.0804 7.23087 16.5801 6.12762 16.1241 5.12112L16.1166 5.10462ZM12.3269 8.10237C12.4514 8.37537 12.5691 8.63412 12.6516 8.81787C12.6924 8.91997 12.7369 9.02054 12.7851 9.11937L12.7926 9.13362L12.7941 9.13587L12.8001 9.14637C13.1554 9.93428 13.5484 10.7047 13.9776 11.4549C14.0275 11.5398 14.0937 11.6141 14.1724 11.6735C14.251 11.7328 14.3406 11.7762 14.436 11.8009C14.5313 11.8257 14.6307 11.8314 14.7282 11.8178C14.8258 11.8041 14.9198 11.7714 15.0047 11.7215C15.0897 11.6716 15.164 11.6054 15.2233 11.5267C15.2827 11.4481 15.326 11.3585 15.3508 11.2632C15.3755 11.1678 15.3813 11.0685 15.3676 10.9709C15.354 10.8733 15.3213 10.7793 15.2714 10.6944C14.9264 10.1071 14.4854 9.23712 14.1111 8.40612L14.0541 8.27937L14.0241 8.21187L14.0046 8.16237C13.929 7.97421 13.8555 7.78519 13.7841 7.59537C13.6444 7.23072 13.5161 6.86179 13.3994 6.48912C13.3259 6.17037 13.3829 5.92662 13.4706 5.75412C13.5171 5.66187 13.5726 5.58837 13.6251 5.53437C13.6799 5.47887 13.7174 5.45862 13.7181 5.45787C13.906 5.37783 14.1129 5.35311 14.3144 5.38662C14.4104 5.39932 14.5013 5.43725 14.5778 5.49654C14.6544 5.55583 14.7138 5.63436 14.7501 5.72412L14.7651 5.75562C15.2166 6.75237 15.7274 7.87812 16.2314 8.88012C16.7301 9.87237 17.2589 10.8166 17.7464 11.3866C17.8292 11.4834 17.9353 11.5574 18.0547 11.6018C18.1741 11.6461 18.3028 11.6594 18.4287 11.6403C18.5546 11.6211 18.6736 11.5702 18.7744 11.4924C18.8752 11.4146 18.9545 11.3123 19.0049 11.1954C19.1406 10.8804 19.1834 10.5061 19.2209 10.1244L19.2539 9.76812C19.2869 9.41112 19.3266 8.97612 19.3949 8.41062C19.4519 7.93812 19.6461 7.77462 19.7909 7.69812C19.9571 7.61529 20.145 7.58595 20.3286 7.61412C20.6316 7.67787 20.8311 7.85712 20.9631 8.07762C21.0321 8.19012 21.0779 8.30862 21.1049 8.41062C21.1196 8.46274 21.1287 8.5163 21.1319 8.57037L21.1056 8.85612C21.0681 9.26787 21.0494 9.47862 20.9496 10.8009C20.8529 12.0729 21.0524 13.1776 21.2691 14.1714C21.3051 14.3389 21.3414 14.5021 21.3779 14.6611C21.5579 15.4651 21.7169 16.1776 21.7499 16.9314C21.7454 18.5521 21.0419 19.7401 20.0901 20.5374C19.1159 21.3526 17.8919 21.7501 16.9221 21.7501C16.1541 21.7501 15.3486 21.5011 14.6301 21.1606C13.9214 20.8254 13.3499 20.4256 13.0521 20.1736L9.61711 17.0364L9.59461 17.0161L9.57211 16.9981C9.40861 16.8706 9.07486 16.5534 8.70661 16.1664C8.34361 15.7854 7.99411 15.3864 7.79386 15.1126C7.55761 14.7916 7.51186 14.5606 7.51636 14.4189C7.5222 14.2721 7.58171 14.1325 7.68361 14.0266C7.88761 13.8001 8.19061 13.6966 8.40361 13.6899C8.57461 13.8796 8.75161 14.0611 8.92636 14.2344C9.23086 14.5359 9.54661 14.8269 9.83986 15.0969L9.86686 15.1216C10.1721 15.4036 10.4504 15.6601 10.6896 15.9016C10.8301 16.0394 11.0192 16.1165 11.216 16.1161C11.4128 16.1158 11.6016 16.0381 11.7417 15.8998C11.8817 15.7615 11.9618 15.5737 11.9646 15.377C11.9675 15.1802 11.8929 14.9901 11.7569 14.8479C11.472 14.5647 11.1807 14.2882 10.8831 14.0184L10.8636 14.0004C10.5647 13.7284 10.2706 13.4511 9.98161 13.1686C9.69693 12.8917 9.42943 12.5977 9.18061 12.2881L9.05386 12.0909C8.9223 11.8827 8.7928 11.6731 8.66536 11.4624C8.53425 11.1419 8.48154 10.7948 8.51161 10.4499C8.55664 10.3202 8.64377 10.2093 8.75911 10.1349C9.09286 9.96912 9.33436 9.99387 9.50086 10.0509C9.69436 10.1169 9.82636 10.2436 9.86761 10.2976L9.87886 10.2901L9.96736 10.4401C10.4589 11.2656 10.988 12.0682 11.5529 12.8454C11.6723 13.0003 11.8475 13.1024 12.0412 13.1299C12.2348 13.1575 12.4316 13.1083 12.5895 12.9929C12.7474 12.8774 12.8539 12.7049 12.8864 12.512C12.9189 12.3191 12.8747 12.1212 12.7634 11.9604C12.2271 11.2219 11.7248 10.4594 11.2581 9.67512C11.1631 9.51412 11.0706 9.35412 10.9806 9.19512L10.8689 8.94537C10.6779 8.50629 10.4939 8.06423 10.3169 7.61937C10.1669 7.24362 10.2269 7.00437 10.3071 6.84837C10.4031 6.66537 10.5629 6.53937 10.6596 6.48837C10.9191 6.37212 11.1576 6.39087 11.3541 6.46812C11.4569 6.50862 11.5439 6.56412 11.6084 6.62112C11.642 6.6509 11.6722 6.68436 11.6984 6.72087L11.7006 6.72612L11.7021 6.72837L11.7029 6.73062L11.9571 7.28862L12.3269 8.10237Z" fill="black"/>
</svg>
