<svg width="40" height="40" viewBox="0 0 40 40" fill="none" xmlns="http://www.w3.org/2000/svg">
<path d="M22.5 23.75V31.25C22.5 31.5815 22.6317 31.8995 22.8661 32.1339C23.1005 32.3683 23.4185 32.5 23.75 32.5H31.25C31.5815 32.5 31.8995 32.3683 32.1339 32.1339C32.3683 31.8995 32.5 31.5815 32.5 31.25V23.75C32.5 23.4185 32.3683 23.1005 32.1339 22.8661C31.8995 22.6317 31.5815 22.5 31.25 22.5H23.75C23.4185 22.5 23.1005 22.6317 22.8661 22.8661C22.6317 23.1005 22.5 23.4185 22.5 23.75ZM25 30V25H30V30H25ZM7.5 0C7.31678 6.87002e-05 7.13582 0.040413 6.96993 0.118176C6.80403 0.19594 6.65726 0.309221 6.54 0.45L0.29 7.95C0.102748 8.17454 0.000131558 8.45762 0 8.75V12.5C0 14.72 0.965 16.7175 2.5 18.09V38.75C2.5 39.0815 2.6317 39.3995 2.86612 39.6339C3.10054 39.8683 3.41848 40 3.75 40H36.25C36.5815 40 36.8995 39.8683 37.1339 39.6339C37.3683 39.3995 37.5 39.0815 37.5 38.75V18.09C39.035 16.715 40 14.72 40 12.5V8.705C40 8.48 40 8.3 39.71 7.95L33.46 0.45C33.3427 0.309221 33.196 0.19594 33.0301 0.118176C32.8642 0.040413 32.6832 6.87002e-05 32.5 0H7.5ZM7.5 17.5C6.17392 17.5 4.90215 16.9732 3.96447 16.0355C3.02678 15.0979 2.5 13.8261 2.5 12.5V10H12.5V12.5C12.5 13.8261 11.9732 15.0979 11.0355 16.0355C10.0979 16.9732 8.82608 17.5 7.5 17.5ZM20 17.5C18.6739 17.5 17.4021 16.9732 16.4645 16.0355C15.5268 15.0979 15 13.8261 15 12.5V10H25V12.5C25 13.8261 24.4732 15.0979 23.5355 16.0355C22.5979 16.9732 21.3261 17.5 20 17.5ZM32.5 17.5C31.1739 17.5 29.9021 16.9732 28.9645 16.0355C28.0268 15.0979 27.5 13.8261 27.5 12.5V10H37.5V12.5C37.5 13.8261 36.9732 15.0979 36.0355 16.0355C35.0979 16.9732 33.8261 17.5 32.5 17.5ZM7.5 37.5H5V19.575C6.57587 20.1322 8.29271 20.147 9.87796 19.6171C11.4632 19.0872 12.826 18.0429 13.75 16.65C14.4346 17.6806 15.3636 18.5258 16.4541 19.1103C17.5446 19.6948 18.7627 20.0005 20 20C21.2375 20.0002 22.4558 19.6942 23.5463 19.1092C24.6368 18.5243 25.5657 17.6786 26.25 16.6475C27.174 18.0404 28.5368 19.0847 30.122 19.6146C31.7073 20.1445 33.4241 20.1297 35 19.5725V37.5H20V23.75C20 23.4185 19.8683 23.1005 19.6339 22.8661C19.3995 22.6317 19.0815 22.5 18.75 22.5H8.75C8.41848 22.5 8.10054 22.6317 7.86612 22.8661C7.6317 23.1005 7.5 23.4185 7.5 23.75V37.5ZM12.85 7.5H3.92L8.085 2.5H14.515L12.85 7.5ZM24.515 7.5H15.485L17.15 2.5H22.85L24.515 7.5ZM27.15 7.5L25.485 2.5H31.915L36.0825 7.5H27.15ZM10 37.5V25H17.5V37.5H10Z" fill="#225A4B"/>
</svg>
