<svg width="35" height="35" viewBox="0 0 35 35" fill="none" xmlns="http://www.w3.org/2000/svg">
<path d="M1.1667 0C0.857274 0 0.560519 0.122916 0.341719 0.341709C0.12292 0.560501 0 0.857247 0 1.16667C0 1.47609 0.12292 1.77283 0.341719 1.99162C0.560519 2.21042 0.857274 2.33333 1.1667 2.33333H3.75678L4.69248 6.083L8.18792 24.7147C8.23797 24.982 8.37986 25.2235 8.58906 25.3973C8.79826 25.5711 9.06162 25.6664 9.33362 25.6667H11.667C10.4293 25.6667 9.24229 26.1583 8.36709 27.0335C7.4919 27.9087 7.00022 29.0957 7.00022 30.3333C7.00022 31.571 7.4919 32.758 8.36709 33.6332C9.24229 34.5083 10.4293 35 11.667 35C12.9047 35 14.0918 34.5083 14.967 33.6332C15.8422 32.758 16.3338 31.571 16.3338 30.3333C16.3338 29.0957 15.8422 27.9087 14.967 27.0335C14.0918 26.1583 12.9047 25.6667 11.667 25.6667H28.0009C26.7632 25.6667 25.5761 26.1583 24.7009 27.0335C23.8257 27.9087 23.3341 29.0957 23.3341 30.3333C23.3341 31.571 23.8257 32.758 24.7009 33.6332C25.5761 34.5083 26.7632 35 28.0009 35C29.2386 35 30.4256 34.5083 31.3008 33.6332C32.176 32.758 32.6677 31.571 32.6677 30.3333C32.6677 29.0957 32.176 27.9087 31.3008 27.0335C30.4256 26.1583 29.2386 25.6667 28.0009 25.6667H30.3343C30.6063 25.6664 30.8696 25.5711 31.0788 25.3973C31.288 25.2235 31.4299 24.982 31.48 24.7147L34.9801 6.048C35.0116 5.87962 35.0057 5.70636 34.9627 5.54054C34.9197 5.37472 34.8407 5.2204 34.7313 5.08854C34.622 4.95669 34.4849 4.85053 34.3299 4.77762C34.1749 4.70471 34.0057 4.66683 33.8344 4.66667H6.74354L5.79851 0.884333C5.73553 0.631829 5.58993 0.407631 5.38487 0.247391C5.17981 0.0871516 4.92706 7.18934e-05 4.66681 0H1.1667ZM10.302 23.3333L7.23822 7H32.4297L29.3659 23.3333H10.302ZM14.0004 30.3333C14.0004 30.9522 13.7546 31.5457 13.317 31.9832C12.8794 32.4208 12.2859 32.6667 11.667 32.6667C11.0482 32.6667 10.4547 32.4208 10.0171 31.9832C9.57946 31.5457 9.33362 30.9522 9.33362 30.3333C9.33362 29.7145 9.57946 29.121 10.0171 28.6834C10.4547 28.2458 11.0482 28 11.667 28C12.2859 28 12.8794 28.2458 13.317 28.6834C13.7546 29.121 14.0004 29.7145 14.0004 30.3333ZM30.3343 30.3333C30.3343 30.9522 30.0884 31.5457 29.6508 31.9832C29.2132 32.4208 28.6197 32.6667 28.0009 32.6667C27.382 32.6667 26.7885 32.4208 26.3509 31.9832C25.9133 31.5457 25.6675 30.9522 25.6675 30.3333C25.6675 29.7145 25.9133 29.121 26.3509 28.6834C26.7885 28.2458 27.382 28 28.0009 28C28.6197 28 29.2132 28.2458 29.6508 28.6834C30.0884 29.121 30.3343 29.7145 30.3343 30.3333Z" fill="white"/>
</svg>
