<svg width="40" height="24" viewBox="0 0 40 24" fill="none" xmlns="http://www.w3.org/2000/svg">
<path d="M20 5.33333C18.6815 5.33333 17.3925 5.72433 16.2962 6.45687C15.1999 7.18941 14.3454 8.2306 13.8408 9.44878C13.3362 10.667 13.2042 12.0074 13.4614 13.3006C13.7187 14.5938 14.3536 15.7817 15.286 16.714C16.2183 17.6464 17.4062 18.2813 18.6994 18.5386C19.9926 18.7958 21.333 18.6638 22.5512 18.1592C23.7694 17.6546 24.8106 16.8001 25.5431 15.7038C26.2757 14.6075 26.6667 13.3185 26.6667 12C26.6667 10.2319 25.9643 8.5362 24.714 7.28595C23.4638 6.03571 21.7681 5.33333 20 5.33333ZM20 16C19.2089 16 18.4355 15.7654 17.7777 15.3259C17.1199 14.8864 16.6072 14.2616 16.3045 13.5307C16.0017 12.7998 15.9225 11.9956 16.0769 11.2196C16.2312 10.4437 16.6122 9.73098 17.1716 9.17157C17.731 8.61216 18.4437 8.2312 19.2196 8.07686C19.9956 7.92252 20.7998 8.00173 21.5307 8.30448C22.2616 8.60723 22.8864 9.11992 23.3259 9.77772C23.7654 10.4355 24 11.2089 24 12C24 13.0609 23.5786 14.0783 22.8284 14.8284C22.0783 15.5786 21.0609 16 20 16ZM38.6667 0H1.33333C0.979711 0 0.640573 0.140476 0.390524 0.390525C0.140476 0.640573 0 0.979711 0 1.33333V22.6667C0 23.0203 0.140476 23.3594 0.390524 23.6095C0.640573 23.8595 0.979711 24 1.33333 24H38.6667C39.0203 24 39.3594 23.8595 39.6095 23.6095C39.8595 23.3594 40 23.0203 40 22.6667V1.33333C40 0.979711 39.8595 0.640573 39.6095 0.390525C39.3594 0.140476 39.0203 0 38.6667 0ZM30.9417 21.3333H9.05833C8.61067 19.8193 7.79135 18.4414 6.67497 17.325C5.5586 16.2087 4.18066 15.3893 2.66667 14.9417V9.05833C4.18066 8.61067 5.5586 7.79135 6.67497 6.67497C7.79135 5.5586 8.61067 4.18066 9.05833 2.66667H30.9417C31.3893 4.18066 32.2087 5.5586 33.325 6.67497C34.4414 7.79135 35.8193 8.61067 37.3333 9.05833V14.9417C35.8193 15.3893 34.4414 16.2087 33.325 17.325C32.2087 18.4414 31.3893 19.8193 30.9417 21.3333ZM37.3333 6.22833C35.7341 5.54065 34.4593 4.26594 33.7717 2.66667H37.3333V6.22833ZM6.22833 2.66667C5.54065 4.26594 4.26594 5.54065 2.66667 6.22833V2.66667H6.22833ZM2.66667 17.7717C4.26594 18.4593 5.54065 19.7341 6.22833 21.3333H2.66667V17.7717ZM33.7717 21.3333C34.4593 19.7341 35.7341 18.4593 37.3333 17.7717V21.3333H33.7717Z" fill="#A19F9C"/>
</svg>
