<svg width="41" height="41" viewBox="0 0 41 41" fill="none" xmlns="http://www.w3.org/2000/svg">
<path d="M20.25 0.5C16.2449 0.5 12.3298 1.68764 8.99971 3.91274C5.66961 6.13784 3.07412 9.30045 1.54145 13.0007C0.00877401 16.7009 -0.392243 20.7725 0.389107 24.7006C1.17046 28.6287 3.09908 32.2369 5.9311 35.0689C8.76311 37.9009 12.3713 39.8295 16.2994 40.6109C20.2275 41.3922 24.2991 40.9912 27.9993 39.4585C31.6995 37.9259 34.8622 35.3304 37.0873 32.0003C39.3124 28.6702 40.5 24.7551 40.5 20.75C40.4943 15.3811 38.359 10.2337 34.5626 6.43735C30.7663 2.64097 25.6189 0.50567 20.25 0.5ZM20.25 37.8846C16.8611 37.8846 13.5483 36.8797 10.7305 34.9969C7.91275 33.1141 5.71657 30.4381 4.41969 27.3071C3.12281 24.1762 2.78349 20.731 3.44463 17.4072C4.10577 14.0834 5.73769 11.0303 8.134 8.634C10.5303 6.23768 13.5834 4.60576 16.9072 3.94462C20.231 3.28348 23.6762 3.6228 26.8071 4.91968C29.9381 6.21656 32.6141 8.41274 34.4969 11.2305C36.3797 14.0483 37.3846 17.3611 37.3846 20.75C37.3795 25.2928 35.5726 29.6481 32.3603 32.8603C29.1481 36.0726 24.7928 37.8795 20.25 37.8846ZM32.7115 20.75C32.7115 21.1631 32.5474 21.5593 32.2553 21.8514C31.9632 22.1436 31.567 22.3077 31.1538 22.3077H20.25C19.8369 22.3077 19.4407 22.1436 19.1486 21.8514C18.8564 21.5593 18.6923 21.1631 18.6923 20.75V9.84615C18.6923 9.43303 18.8564 9.03682 19.1486 8.7447C19.4407 8.45257 19.8369 8.28846 20.25 8.28846C20.6631 8.28846 21.0593 8.45257 21.3515 8.7447C21.6436 9.03682 21.8077 9.43303 21.8077 9.84615V19.1923H31.1538C31.567 19.1923 31.9632 19.3564 32.2553 19.6485C32.5474 19.9407 32.7115 20.3369 32.7115 20.75Z" fill="#225A4B"/>
</svg>
