<svg width="49" height="53" viewBox="0 0 49 53" fill="none" xmlns="http://www.w3.org/2000/svg">
<path d="M46.1742 8.73733H36.1364V6.72976C36.1364 5.13243 35.5018 3.60053 34.3723 2.47105C33.2429 1.34157 31.711 0.707031 30.1136 0.707031H18.0682C16.4709 0.707031 14.939 1.34157 13.8095 2.47105C12.68 3.60053 12.0455 5.13243 12.0455 6.72976V8.73733H2.00758C1.47513 8.73733 0.964499 8.94885 0.588006 9.32534C0.211512 9.70183 0 10.2125 0 10.7449C0 11.2774 0.211512 11.788 0.588006 12.1645C0.964499 12.541 1.47513 12.7525 2.00758 12.7525H4.01515V48.8888C4.01515 49.9537 4.43818 50.975 5.19116 51.728C5.94415 52.481 6.96542 52.904 8.0303 52.904H40.1515C41.2164 52.904 42.2377 52.481 42.9907 51.728C43.7436 50.975 44.1667 49.9537 44.1667 48.8888V12.7525H46.1742C46.7067 12.7525 47.2173 12.541 47.5938 12.1645C47.9703 11.788 48.1818 11.2774 48.1818 10.7449C48.1818 10.2125 47.9703 9.70183 47.5938 9.32534C47.2173 8.94885 46.7067 8.73733 46.1742 8.73733ZM16.0606 6.72976C16.0606 6.19732 16.2721 5.68668 16.6486 5.31019C17.0251 4.93369 17.5357 4.72218 18.0682 4.72218H30.1136C30.6461 4.72218 31.1567 4.93369 31.5332 5.31019C31.9097 5.68668 32.1212 6.19732 32.1212 6.72976V8.73733H16.0606V6.72976ZM40.1515 48.8888H8.0303V12.7525H40.1515V48.8888ZM20.0758 22.7904V38.851C20.0758 39.3834 19.8642 39.8941 19.4878 40.2705C19.1113 40.647 18.6006 40.8585 18.0682 40.8585C17.5357 40.8585 17.0251 40.647 16.6486 40.2705C16.2721 39.8941 16.0606 39.3834 16.0606 38.851V22.7904C16.0606 22.2579 16.2721 21.7473 16.6486 21.3708C17.0251 20.9943 17.5357 20.7828 18.0682 20.7828C18.6006 20.7828 19.1113 20.9943 19.4878 21.3708C19.8642 21.7473 20.0758 22.2579 20.0758 22.7904ZM32.1212 22.7904V38.851C32.1212 39.3834 31.9097 39.8941 31.5332 40.2705C31.1567 40.647 30.6461 40.8585 30.1136 40.8585C29.5812 40.8585 29.0706 40.647 28.6941 40.2705C28.3176 39.8941 28.1061 39.3834 28.1061 38.851V22.7904C28.1061 22.2579 28.3176 21.7473 28.6941 21.3708C29.0706 20.9943 29.5812 20.7828 30.1136 20.7828C30.6461 20.7828 31.1567 20.9943 31.5332 21.3708C31.9097 21.7473 32.1212 22.2579 32.1212 22.7904Z" fill="#BC0101"/>
</svg>
