<svg width="65" height="65" viewBox="0 0 65 65" fill="none" xmlns="http://www.w3.org/2000/svg">
<path d="M57.1875 24.5435V51.0652M15.1875 24.5435V51.0652M7.3125 24.5435V51.0652M49.3125 24.5435V51.0652M6 56.3696H58.5M0.75 63H63.75M32.25 29.8478H29.625C28.9288 29.8478 28.2611 30.1273 27.7688 30.6246C27.2766 31.122 27 31.7966 27 32.5V33.4946C27 34.0684 27.1842 34.6268 27.525 35.0859C27.8658 35.545 28.3447 35.88 28.89 36.0407L35.61 38.0218C36.1553 38.1825 36.6342 38.5175 36.975 38.9766C37.3158 39.4357 37.5 39.9941 37.5 40.5679V43.1087C37.5 43.8121 37.2234 44.4867 36.7312 44.9841C36.2389 45.4814 35.5712 45.7609 34.875 45.7609H32.25M32.25 29.8478H34.875C35.5712 29.8478 36.2389 30.1273 36.7312 30.6246C37.2234 31.122 37.5 31.7966 37.5 32.5V33.8261M32.25 29.8478V24.5435M32.25 45.7609H29.625C28.9288 45.7609 28.2611 45.4814 27.7688 44.9841C27.2766 44.4867 27 43.8121 27 43.1087V41.7826M32.25 45.7609V51.0652M62.4375 17.25V19.2391H2.0625V17.25C15.1875 12.6087 23.0625 8.63043 31.5938 2H32.9062C41.4375 8.63043 49.3125 12.6087 62.4375 17.25Z" stroke="#FFFCF6" stroke-width="3.25"/>
</svg>
