<svg width="62" height="63" viewBox="0 0 62 63" fill="none" xmlns="http://www.w3.org/2000/svg">
<path d="M31.2501 0.961914C25.2102 0.961914 19.306 2.75295 14.284 6.10852C9.26202 9.4641 5.34787 14.2335 3.03651 19.8136C0.725146 25.3937 0.120388 31.534 1.29871 37.4578C2.47703 43.3816 5.38551 48.823 9.65635 53.0938C13.9272 57.3647 19.3686 60.2731 25.2924 61.4515C31.2162 62.6298 37.3564 62.025 42.9365 59.7137C48.5167 57.4023 53.2861 53.4881 56.6416 48.4662C59.9972 43.4442 61.7882 37.54 61.7882 31.5001C61.7797 23.4035 58.5596 15.6409 52.8344 9.91578C47.1092 4.19061 39.3467 0.970464 31.2501 0.961914ZM57.0901 31.5001C57.0926 34.8152 56.4545 38.0995 55.2108 41.1725L42.0853 33.1004C41.5272 32.756 40.9029 32.5329 40.253 32.4456L33.5522 31.5412C32.6289 31.4208 31.6905 31.5756 30.8548 31.9861C30.019 32.3967 29.323 33.0448 28.854 33.8492H26.2935L25.1777 31.5412C24.8692 30.8985 24.4178 30.335 23.8579 29.8937C23.298 29.4525 22.6446 29.1452 21.9477 28.9954L19.5986 28.4874L21.8948 24.4528H26.8015C27.5955 24.4513 28.3762 24.2493 29.0713 23.8655L32.6684 21.8806C32.9844 21.7044 33.2798 21.4936 33.5493 21.2522L41.451 14.1051C42.2432 13.3951 42.7698 12.4363 42.9438 11.3868C43.1178 10.3373 42.9289 9.25986 42.4083 8.33218L42.3026 8.14132C46.7241 10.2379 50.4604 13.5454 53.0779 17.68C55.6953 21.8145 57.0865 26.6066 57.0901 31.5001ZM35.7457 6.05357L38.2974 10.6225L30.3956 17.7696L26.8015 19.7546H21.8948C21.069 19.7534 20.2574 19.9699 19.5418 20.3823C18.8263 20.7947 18.2321 21.3885 17.8192 22.1037L15.2557 26.5758L12.2753 18.6359L15.4877 11.0395C18.3311 8.8425 21.602 7.26363 25.091 6.40403C28.58 5.54443 32.21 5.42306 35.7486 6.04769L35.7457 6.05357ZM5.41011 31.5001C5.40618 27.6594 6.26307 23.8666 7.91776 20.4006L11.2476 29.289C11.5251 30.0249 11.9829 30.6794 12.579 31.1924C13.1752 31.7055 13.8906 32.0606 14.6596 32.2254L20.9523 33.579L22.071 35.9046C22.4593 36.6956 23.061 37.3622 23.8082 37.8292C24.5554 38.2962 25.4183 38.5449 26.2994 38.5473H26.734L24.611 43.3131C24.2369 44.1522 24.1171 45.0826 24.2664 45.9892C24.4156 46.8957 24.8274 47.7386 25.4508 48.4135L25.4919 48.4546L31.2501 54.3861L30.6804 57.3224C23.9322 57.1654 17.5125 54.3772 12.7913 49.5529C8.07011 44.7286 5.4213 38.2502 5.41011 31.5001ZM35.5313 56.9818L35.8631 55.2758C35.9995 54.551 35.9643 53.8044 35.7603 53.0956C35.5564 52.3869 35.1893 51.7357 34.6886 51.1943C34.6741 51.1813 34.6604 51.1676 34.6475 51.1531L28.901 45.2246L32.9238 36.1983L39.6246 37.1027L53.0496 45.3597C51.1047 48.4142 48.5406 51.0268 45.5231 53.0287C42.5056 55.0306 39.1017 56.3773 35.5313 56.9818Z" fill="#FFFCF6"/>
</svg>
