<svg width="134" height="17" viewBox="0 0 134 17" fill="none" xmlns="http://www.w3.org/2000/svg">
<path d="M81.9224 11.5357C81.9043 11.5176 81.9043 11.5176 81.9043 11.5176L81.9224 11.5357Z" fill="black"/>
<path d="M101.458 5.50418C100.562 9.21841 96.9975 12.1114 93.1526 12.1674C90.9128 12.2047 88.6731 12.1861 86.4334 12.1861H85.8921C85.4441 13.5486 84.9962 14.8924 84.5482 16.2363H80.498C80.5354 16.0869 80.554 15.975 80.5914 15.863C80.946 14.7431 82.6445 10.1143 83.391 7.98655C84.1936 7.98655 86.1347 8.00522 86.2094 8.00522C88.9904 8.00522 91.7714 8.00522 94.5338 8.00522C95.8589 8.00522 96.9415 7.12799 97.2215 5.87747C97.4081 5.05623 96.9601 4.42163 96.1389 4.32831C95.9149 4.30965 95.7096 4.30965 95.4856 4.30965C91.9767 4.30965 88.4678 4.30965 84.9775 4.30965H84.3803C85.7801 2.87248 87.1053 1.50997 88.4678 0.110137H88.8784C91.4728 0.110137 94.0858 0.0914681 96.6802 0.128797C97.3334 0.128797 97.9867 0.184793 98.6213 0.352773C100.954 0.950037 102.074 3.00313 101.458 5.50418Z" fill="#8B4B9F"/>
<path d="M110.737 0.0746569C111.26 0.223973 111.708 0.634591 111.988 1.08254C112.324 1.64247 112.454 2.2584 112.622 2.893C112.809 3.58358 112.958 4.29283 113.145 5.00208C113.481 6.40192 113.836 7.80176 114.19 9.2016C114.75 11.4413 115.31 13.6811 115.851 15.9208C115.87 15.9955 115.889 16.0888 115.907 16.2195H100.434C101.741 14.801 102.992 13.4384 104.261 12.0573H109.767C109.263 10.1348 108.778 8.24971 108.255 6.27127C105.157 9.63089 102.096 12.9345 99.0346 16.2381H93.9766C94.1445 16.0515 94.2565 15.9022 94.3872 15.7715C98.456 11.3293 102.544 6.90586 106.594 2.46371C107.135 1.86645 107.714 1.30652 108.367 0.839903C108.945 0.429284 109.617 0 110.364 0C110.476 0.0186645 110.607 0.0373279 110.737 0.0746569Z" fill="#8B4B9F"/>
<path d="M114.037 0.130859H119.263C120.178 2.29594 121.092 4.44236 122.044 6.66344C124.321 4.46102 126.542 2.29594 128.782 0.130859H133.877C133.915 0.168188 133.952 0.224184 133.989 0.261513C133.859 0.354836 133.691 0.429494 133.579 0.541481C130.033 3.90109 126.486 7.2607 122.959 10.6203C122.772 10.807 122.604 11.0496 122.529 11.2922C121.97 12.9347 121.447 14.5772 120.906 16.2197H116.818C116.874 16.033 116.911 15.8837 116.967 15.7157C117.453 14.2412 117.919 12.7667 118.423 11.2922C118.535 10.9749 118.517 10.7136 118.386 10.415C116.986 7.13005 115.605 3.8451 114.205 0.541481C114.149 0.448158 114.112 0.317504 114.037 0.130859Z" fill="#8B4B9F"/>
<path d="M69.1147 11.0693C69.2454 11.5919 70.0853 14.5969 70.5146 16.1087C70.4772 16.146 70.4212 16.1834 70.3839 16.2207H54.8924C56.1989 14.8022 57.4307 13.4397 58.6999 12.0585H64.2246C63.7207 10.1174 63.2167 8.23228 62.6941 6.25384C59.5772 9.61345 56.5162 12.9357 53.4739 16.2207H48.4531C48.5464 16.09 48.6024 15.9967 48.6771 15.9221C53.0073 11.1999 57.3374 6.45915 61.6863 1.7557C62.0969 1.30775 62.5635 0.934459 63.0674 0.635827C63.8887 0.15055 64.9339 -0.278734 65.8111 0.355859C66.5017 0.841136 66.8003 1.68104 66.9683 2.46495C67.1923 3.49149 67.4722 4.49938 67.7149 5.52593C68.2002 7.37372 68.6668 9.2215 69.1147 11.0693Z" fill="#500B75"/>
<path d="M19.7273 16.3702C18.9247 16.1276 18.4394 15.5676 17.9915 14.8771C16.4983 12.5253 14.9492 10.1923 13.4374 7.8592C13.344 7.72855 13.2507 7.5979 13.1201 7.41125C12.1495 10.3976 11.179 13.3092 10.2271 16.2396H6.1582C6.19553 16.1089 6.2142 15.9783 6.25153 15.8663C7.72602 11.3495 9.20052 6.81399 10.7123 2.29718C10.8803 1.77457 11.1976 1.25197 11.5709 0.860015C12.6161 -0.259856 14.1839 -0.0918774 15.0238 1.19597C16.629 3.64102 18.2155 6.08607 19.802 8.53112C19.8766 8.66177 19.9699 8.79243 20.1006 8.97907C21.0898 5.97409 22.0417 3.06242 23.0122 0.132094H27.0811C27.0438 0.300075 27.0065 0.449391 26.9505 0.598707C25.476 5.09685 24.0015 9.595 22.527 14.0745C22.4896 14.2051 22.4337 14.3545 22.3777 14.4851C22.0417 15.3623 21.5004 16.0529 20.5859 16.3702H19.7273Z" fill="#500B75"/>
<path d="M0 16.1085C0.410619 14.914 0.821238 13.7381 1.21319 12.5436C2.53837 8.53075 3.84489 4.51788 5.1514 0.505015C5.18873 0.393028 5.22606 0.281042 5.28205 0.150391H9.36958C7.59645 5.54443 5.84199 10.9012 4.08752 16.2952H0C0 16.2205 0 16.1645 0 16.1085Z" fill="#500B75"/>
<path d="M45.1518 0.113281C43.7519 1.56911 42.4454 2.93162 41.1389 4.3128C40.075 4.3128 39.0298 4.3128 37.9846 4.3128C35.9315 4.3128 33.8784 4.3128 31.8253 4.3128C31.0974 4.3128 30.7801 4.68608 30.8361 5.46999C31.0414 5.50732 31.284 5.58198 31.5267 5.58198C33.6358 5.58198 35.7449 5.56332 37.8539 5.60065C38.5445 5.61931 39.2538 5.6753 39.907 5.88061C41.8108 6.45921 42.6694 8.19501 42.1841 10.3041C41.4002 13.7197 38.3019 16.2208 34.7183 16.2581C30.7614 16.2954 26.8046 16.2767 22.8477 16.2767C22.773 16.2767 22.717 16.2581 22.5117 16.2581C23.8742 14.8396 25.1807 13.4771 26.4873 12.1146C27.1592 12.1146 27.8498 12.1146 28.5217 12.1146C30.9481 12.1146 33.3745 12.1332 35.8008 12.0959C36.3421 12.0959 36.8834 11.9093 37.3873 11.7226C37.6486 11.6293 37.8913 11.368 38.0406 11.1067C38.3579 10.6027 38.1899 10.1548 37.6486 9.94947C37.3127 9.83749 36.9394 9.78149 36.5848 9.78149C34.401 9.76283 32.2173 9.78149 30.0335 9.76283C29.4922 9.76283 28.951 9.70683 28.447 9.57618C26.5619 9.10957 25.61 7.54175 26.0393 5.63797C26.6926 2.67031 29.4363 0.299924 32.4972 0.169272C34.289 0.0946145 36.0995 0.131941 37.9099 0.131941C40.1123 0.131941 42.3334 0.131941 44.5358 0.131941C44.7038 0.113277 44.8718 0.113281 45.1518 0.113281Z" fill="#500B75"/>
<path d="M47.669 16.2403H43.5628C44.8693 12.2461 46.1572 8.30787 47.4637 4.31367H42.0137C43.3948 2.85783 44.7014 1.51399 46.0079 0.132812H59.5396C58.1771 1.55131 56.852 2.91383 55.5268 4.295H51.5699C50.282 8.2892 48.9755 12.2461 47.669 16.2403Z" fill="#500B75"/>
<path d="M79.8276 8.06176C79.7156 8.13642 79.6036 8.21108 79.4916 8.3044C76.6173 10.8241 73.351 13.7171 70.458 16.2555C69.1515 16.2555 67.3783 16.2555 66.1465 16.2555L75.4601 8.00577C75.3481 7.80046 75.2548 7.65114 75.1801 7.50182C73.7616 5.01944 72.3431 2.53707 70.9433 0.0546875H75.3108C75.3667 0.204004 75.4227 0.353323 75.4974 0.483975C76.8412 2.8357 78.2038 5.20609 79.5476 7.55782C79.6223 7.68847 79.6969 7.81912 79.8276 8.06176Z" fill="#FD6E66"/>
<path d="M86.0075 7.95086L76.8805 16.1073L76.7312 16.2379C75.4247 16.2566 73.7076 16.2379 72.457 16.1446C75.5367 13.4382 78.6163 10.7132 81.696 7.98819C80.1655 5.31917 78.6536 2.6688 77.1418 0.0371094H81.5093C81.5653 0.149096 81.6026 0.279753 81.6773 0.39174C83.0585 2.81813 84.3837 5.11386 85.7462 7.54024C85.8208 7.65223 85.7462 7.55891 86.0075 7.95086Z" fill="#FB6518"/>
</svg>
