<svg width="101" height="35" viewBox="0 0 101 35" fill="none" xmlns="http://www.w3.org/2000/svg">
<path d="M14.5693 34.7073V28.8666C14.5693 26.6294 13.2289 25.1841 10.9561 25.1841C9.80999 25.1841 8.56674 25.5602 7.71201 26.8472C7.05154 25.778 6.08025 25.1841 4.66217 25.1841C3.71031 25.1841 2.75845 25.481 2.00085 26.5502V25.3821H0V34.7073H2.00085V29.5596C2.00085 27.8965 2.85558 27.1243 4.19596 27.1243C5.53633 27.1243 6.1968 27.9955 6.1968 29.5596V34.7073H8.1588V29.5596C8.1588 27.8965 9.11066 27.1243 10.3539 27.1243C11.6943 27.1243 12.3548 27.9955 12.3548 29.5596V34.7073H14.5693ZM44.2324 25.3622H40.9883V22.5508H38.9874V25.3622H37.1808V27.2035H38.9874V31.4801C38.9874 33.6183 39.8421 34.8854 42.1344 34.8854C42.9891 34.8854 43.941 34.5885 44.6209 34.2123L44.0381 32.4502C43.4553 32.8264 42.7949 32.9452 42.3092 32.9452C41.3574 32.9452 40.9688 32.3512 40.9688 31.4009V27.2233H44.2129L44.2324 25.3622ZM61.2104 25.1643C60.0643 25.1643 59.3067 25.7582 58.8211 26.5304V25.3622H56.8202V34.6875H58.8211V29.4408C58.8211 27.8965 59.4815 27.0055 60.7248 27.0055C61.0939 27.0055 61.5795 27.1045 61.968 27.2035L62.5508 25.2633C62.1623 25.1643 61.5989 25.1643 61.2104 25.1643ZM35.5491 26.1344C34.5972 25.4612 33.2568 25.1643 31.8193 25.1643C29.5271 25.1643 28.0119 26.3324 28.0119 28.1737C28.0119 29.718 29.158 30.6089 31.1589 30.8861L32.1107 30.9851C33.1597 31.1831 33.7425 31.4801 33.7425 31.9552C33.7425 32.6284 32.9849 33.1234 31.6445 33.1234C30.3041 33.1234 29.2551 32.6284 28.5947 32.1532L27.6428 33.6975C28.6918 34.4697 30.1293 34.8656 31.5474 34.8656C34.2087 34.8656 35.7433 33.5985 35.7433 31.8562C35.7433 30.1931 34.5001 29.322 32.5964 29.0448L31.6445 28.9458C30.7898 28.8468 30.1293 28.6488 30.1293 28.0747C30.1293 27.4015 30.7898 27.0055 31.8582 27.0055C33.0043 27.0055 34.1504 27.5005 34.7332 27.7777L35.5491 26.1344ZM88.7755 25.1643C87.6294 25.1643 86.8718 25.7582 86.3862 26.5304V25.3622H84.3853V34.6875H86.3862V29.4408C86.3862 27.8965 87.0466 27.0055 88.2899 27.0055C88.659 27.0055 89.1446 27.1045 89.5331 27.2035L90.1159 25.2831C89.7274 25.1643 89.164 25.1643 88.7755 25.1643ZM63.2113 30.0348C63.2113 32.8462 65.115 34.8854 68.0871 34.8854C69.4275 34.8854 70.3794 34.5885 71.3312 33.8163L70.3794 32.1532C69.6218 32.7472 68.8642 33.0244 67.99 33.0244C66.3583 33.0244 65.2316 31.8562 65.2316 30.015C65.2316 28.2529 66.3777 27.0847 67.99 27.0055C68.8447 27.0055 69.6218 27.3025 70.3794 27.8767L71.3312 26.2136C70.3794 25.4414 69.4275 25.1445 68.0871 25.1445C65.1344 25.1643 63.2113 27.2233 63.2113 30.0348ZM81.724 30.0348V25.3622H79.7232V26.5304C79.0627 25.6592 78.0914 25.1643 76.8481 25.1643C74.2645 25.1643 72.2637 27.2035 72.2637 30.015C72.2637 32.8264 74.2645 34.8656 76.8481 34.8656C78.1885 34.8656 79.1404 34.3707 79.7232 33.4995V34.6677H81.724V30.0348ZM74.3811 30.0348C74.3811 28.3717 75.4301 27.0253 77.1395 27.0253C78.7713 27.0253 79.898 28.2925 79.898 30.0348C79.898 31.6979 78.7519 33.0442 77.1395 33.0442C75.4301 32.9452 74.3811 31.6781 74.3811 30.0348ZM50.4292 25.1643C47.7678 25.1643 45.8447 27.1045 45.8447 30.015C45.8447 32.9452 47.7484 34.8656 50.5263 34.8656C51.8667 34.8656 53.1876 34.4895 54.256 33.5985L53.3042 32.1334C52.5466 32.7274 51.5753 33.1036 50.6428 33.1036C49.3996 33.1036 48.1564 32.5096 47.8844 30.8663H54.6445C54.6445 30.5693 54.6445 30.3713 54.6445 30.0942C54.7222 27.1243 53.0128 25.1643 50.4292 25.1643ZM50.4292 26.9264C51.6724 26.9264 52.5271 27.6985 52.7214 29.1636H47.9621C48.1564 27.8965 49.0111 26.9264 50.4292 26.9264ZM100.14 30.0348V21.6797H98.1387V26.5304C97.4783 25.6592 96.507 25.1643 95.2637 25.1643C92.6801 25.1643 90.6793 27.2035 90.6793 30.015C90.6793 32.8264 92.6801 34.8656 95.2637 34.8656C96.6041 34.8656 97.556 34.3707 98.1387 33.4995V34.6677H100.14V30.0348ZM92.7772 30.0348C92.7772 28.3717 93.8262 27.0253 95.5357 27.0253C97.1674 27.0253 98.2941 28.2925 98.2941 30.0348C98.2941 31.6979 97.148 33.0442 95.5357 33.0442C93.8262 32.9452 92.7772 31.6781 92.7772 30.0348ZM25.8168 30.0348V25.3622H23.8159V26.5304C23.1555 25.6592 22.1842 25.1643 20.9409 25.1643C18.3573 25.1643 16.3565 27.2035 16.3565 30.015C16.3565 32.8264 18.3573 34.8656 20.9409 34.8656C22.2813 34.8656 23.2332 34.3707 23.8159 33.4995V34.6677H25.8168V30.0348ZM18.3962 30.0348C18.3962 28.3717 19.4451 27.0253 21.1546 27.0253C22.7864 27.0253 23.9131 28.2925 23.9131 30.0348C23.9131 31.6979 22.7669 33.0442 21.1546 33.0442C19.4257 32.9452 18.3962 31.6781 18.3962 30.0348Z" fill="black"/>
<path d="M54.4454 2.19141H45.666V18.2654H54.4454V2.19141Z" fill="#EB662B"/>
<path d="M46.2498 10.2263C46.2498 6.95828 47.7537 4.06045 50.0691 2.18639C48.3666 0.821343 46.2214 0 43.8832 0C38.3386 0 33.8496 4.57523 33.8496 10.2263C33.8496 15.8774 38.3386 20.4526 43.8832 20.4526C46.2214 20.4526 48.3723 19.6313 50.0691 18.2662C47.7537 16.4153 46.2498 13.4943 46.2498 10.2263Z" fill="#D72E2B"/>
<path d="M66.2898 10.2263C66.2898 15.8774 61.8008 20.4526 56.2562 20.4526C53.9181 20.4526 51.7672 19.6313 50.0703 18.2662C52.4085 16.3922 53.8897 13.4943 53.8897 10.2263C53.8897 6.95828 52.3858 4.06045 50.0703 2.18639C51.7672 0.821343 53.9124 0 56.2562 0C61.8008 0 66.2898 4.60415 66.2898 10.2263Z" fill="#E9A140"/>
</svg>
