<svg width="72" height="78" viewBox="0 0 72 78" fill="none" xmlns="http://www.w3.org/2000/svg">
<path fill-rule="evenodd" clip-rule="evenodd" d="M46.3097 40.436C45.7141 38.7511 44.6108 37.2924 43.1517 36.2607C41.6926 35.2291 39.9495 34.6752 38.1625 34.6755V32.5156H33.8427V34.6755C31.5514 34.6755 29.3538 35.5858 27.7336 37.206C26.1134 38.8262 25.2031 41.0238 25.2031 43.3151C25.2031 45.6065 26.1134 47.804 27.7336 49.4242C29.3538 51.0445 31.5514 51.9547 33.8427 51.9547V60.5943C31.9636 60.5943 30.3631 59.3956 29.767 57.7152C29.6785 57.4402 29.5359 57.1858 29.3474 56.967C29.1589 56.7482 28.9285 56.5694 28.6697 56.4412C28.4109 56.313 28.129 56.238 27.8407 56.2206C27.5525 56.2033 27.2636 56.2439 26.9913 56.3401C26.719 56.4363 26.4688 56.5862 26.2554 56.7808C26.042 56.9754 25.8698 57.2108 25.749 57.4731C25.6282 57.7354 25.5612 58.0193 25.5521 58.308C25.5429 58.5966 25.5917 58.8842 25.6956 59.1537C26.2911 60.8385 27.3944 62.2972 28.8535 63.3289C30.3126 64.3606 32.0557 64.9144 33.8427 64.9141V67.074H38.1625V64.9141C40.4539 64.9141 42.6514 64.0039 44.2716 62.3836C45.8919 60.7634 46.8021 58.5659 46.8021 56.2745C46.8021 53.9831 45.8919 51.7856 44.2716 50.1654C42.6514 48.5452 40.4539 47.6349 38.1625 47.6349V38.9953C39.0559 38.9951 39.9273 39.2719 40.6569 39.7875C41.3864 40.3031 41.9381 41.0322 42.2361 41.8745C42.4268 42.4147 42.8244 42.8569 43.3412 43.104C43.5972 43.2264 43.8747 43.2971 44.1579 43.3122C44.4412 43.3273 44.7246 43.2865 44.9921 43.192C45.2596 43.0976 45.5058 42.9513 45.7168 42.7617C45.9278 42.5721 46.0993 42.3428 46.2217 42.0869C46.344 41.8309 46.4148 41.5534 46.4299 41.2702C46.445 40.9869 46.4041 40.7034 46.3097 40.436ZM33.8427 38.9953C32.697 38.9953 31.5983 39.4504 30.7882 40.2606C29.978 41.0707 29.5229 42.1694 29.5229 43.3151C29.5229 44.4608 29.978 45.5596 30.7882 46.3697C31.5983 47.1798 32.697 47.6349 33.8427 47.6349V38.9953ZM38.1625 60.5943C39.3082 60.5943 40.407 60.1392 41.2171 59.3291C42.0272 58.519 42.4823 57.4202 42.4823 56.2745C42.4823 55.1288 42.0272 54.0301 41.2171 53.22C40.407 52.4098 39.3082 51.9547 38.1625 51.9547V60.5943Z" fill="black"/>
<path fill-rule="evenodd" clip-rule="evenodd" d="M12.5733 5.77828C17.8737 3.18424 26.5694 0.117188 36.0859 0.117188C45.4037 0.117188 53.8706 3.05681 59.1429 5.61629L59.4409 5.761C61.0306 6.54721 62.3136 7.29021 63.2164 7.89282L55.2378 19.5563C73.6315 38.3604 87.8393 77.8671 36.0859 77.8671C-15.6674 77.8671 -1.84188 39.0774 16.7117 19.5563L8.78482 7.89282C9.39608 7.49324 10.1715 7.02886 11.0959 6.53641C11.5538 6.29018 12.0463 6.03603 12.5733 5.77828ZM50.1102 19.4029L56.497 10.0657C50.5573 10.4933 43.4901 11.8886 36.6864 13.8585C31.8266 15.2624 26.4269 15.0486 21.4267 14.1263C20.1666 13.893 18.9153 13.6149 17.675 13.2926L21.822 19.3986C30.71 22.5629 41.22 22.5629 50.1102 19.4029ZM19.3273 23.0769C29.7272 27.0943 42.2265 27.0943 52.6264 23.0726C56.9664 27.6497 60.5978 32.8499 63.4 38.5008C66.3202 44.4578 67.9099 50.4126 67.6507 55.5445C67.4002 60.4972 65.4519 64.7284 61.0025 67.8732C56.3652 71.1498 48.5658 73.5473 36.0838 73.5473C23.5888 73.5473 15.7527 71.1908 11.0722 67.951C6.59037 64.8472 4.6227 60.6721 4.34407 55.7864C4.05249 50.7107 5.60761 44.7861 8.51699 38.788C11.2925 33.0686 15.1652 27.563 19.3273 23.0769ZM16.8434 8.57535C18.5713 9.08941 20.377 9.53651 22.2086 9.87561C26.8524 10.7309 31.5091 10.8562 35.4833 9.70498C40.1145 8.35526 44.8249 7.29416 49.5875 6.52777C45.6133 5.33118 40.9652 4.43699 36.0838 4.43699C28.6429 4.43699 21.7032 6.51265 16.8434 8.57535Z" fill="black"/>
</svg>
