<svg width="37" height="37" viewBox="0 0 37 37" fill="none" xmlns="http://www.w3.org/2000/svg">
<path d="M37 18.5C37 19.0888 36.7661 19.6534 36.3498 20.0698C35.9334 20.4861 35.3688 20.72 34.78 20.72H20.72V34.78C20.72 35.3688 20.4861 35.9334 20.0698 36.3498C19.6534 36.7661 19.0888 37 18.5 37C17.9112 37 17.3466 36.7661 16.9302 36.3498C16.5139 35.9334 16.28 35.3688 16.28 34.78V20.72H2.22C1.63122 20.72 1.06655 20.4861 0.650223 20.0698C0.233892 19.6534 0 19.0888 0 18.5C0 17.9112 0.233892 17.3466 0.650223 16.9302C1.06655 16.5139 1.63122 16.28 2.22 16.28H16.28V2.22C16.28 1.63122 16.5139 1.06655 16.9302 0.650223C17.3466 0.233892 17.9112 0 18.5 0C19.0888 0 19.6534 0.233892 20.0698 0.650223C20.4861 1.06655 20.72 1.63122 20.72 2.22V16.28H34.78C35.3688 16.28 35.9334 16.5139 36.3498 16.9302C36.7661 17.3466 37 17.9112 37 18.5Z" fill="#BC870B"/>
</svg>
