<svg width="33" height="40" viewBox="0 0 33 40" fill="none" xmlns="http://www.w3.org/2000/svg">
<path d="M16.3484 8.7123C14.8786 8.7123 13.4419 9.12607 12.2199 9.90131C10.9978 10.6765 10.0454 11.7784 9.48295 13.0676C8.9205 14.3567 8.77334 15.7753 9.06007 17.1439C9.3468 18.5124 10.0545 19.7695 11.0938 20.7562C12.1331 21.7429 13.4571 22.4148 14.8986 22.6871C16.3401 22.9593 17.8343 22.8196 19.1921 22.2856C20.55 21.7516 21.7105 20.8473 22.5271 19.6871C23.3436 18.5269 23.7794 17.1628 23.7794 15.7675C23.7794 13.8963 22.9965 12.1018 21.6029 10.7787C20.2093 9.45561 18.3192 8.7123 16.3484 8.7123ZM16.3484 20.0006C15.4665 20.0006 14.6045 19.7523 13.8713 19.2872C13.1381 18.822 12.5666 18.1609 12.2291 17.3874C11.8916 16.6139 11.8034 15.7628 11.9754 14.9416C12.1474 14.1205 12.5721 13.3662 13.1956 12.7742C13.8192 12.1822 14.6136 11.779 15.4785 11.6157C16.3434 11.4524 17.2399 11.5362 18.0546 11.8566C18.8693 12.177 19.5657 12.7195 20.0556 13.4157C20.5455 14.1118 20.807 14.9302 20.807 15.7675C20.807 16.8902 20.3373 17.9669 19.5011 18.7607C18.6649 19.5546 17.5309 20.0006 16.3484 20.0006ZM16.3484 0.246094C12.014 0.250762 7.8586 1.88754 4.79376 4.79735C1.72891 7.70716 0.00491702 11.6524 0 15.7675C0 21.3058 2.69562 27.1757 7.80263 32.744C10.0974 35.2601 12.6801 37.5259 15.5031 39.4993C15.753 39.6655 16.0507 39.7546 16.3558 39.7546C16.6609 39.7546 16.9586 39.6655 17.2085 39.4993C20.0263 37.525 22.604 35.2593 24.8941 32.744C29.9937 27.1757 32.6967 21.3058 32.6967 15.7675C32.6918 11.6524 30.9678 7.70716 27.903 4.79735C24.8381 1.88754 20.6827 0.250762 16.3484 0.246094ZM16.3484 36.5802C13.2775 34.2873 2.97243 25.8652 2.97243 15.7675C2.97243 12.3994 4.38168 9.16928 6.89015 6.7877C9.39862 4.40612 12.8008 3.06816 16.3484 3.06816C19.8959 3.06816 23.2981 4.40612 25.8066 6.7877C28.3151 9.16928 29.7243 12.3994 29.7243 15.7675C29.7243 25.8616 19.4193 34.2873 16.3484 36.5802Z" fill="#5B5B5B"/>
</svg>
