<svg width="126" height="31" viewBox="0 0 126 31" fill="none" xmlns="http://www.w3.org/2000/svg">
<path fill-rule="evenodd" clip-rule="evenodd" d="M95.9384 12.3734C95.5474 14.993 93.5534 14.993 91.618 14.993H90.5233L91.2857 10.1253C91.3248 9.83202 91.5789 9.61698 91.8917 9.61698H92.4C93.7098 9.61698 94.9609 9.61698 95.5865 10.3598C95.9579 10.7899 96.0752 11.4546 95.9384 12.3734ZM95.0978 5.55078H87.8255C87.3368 5.55078 86.9067 5.92221 86.8285 6.41094L83.8962 25.0607C83.8375 25.4322 84.1308 25.7645 84.5022 25.7645H88.2361C88.5879 25.7645 88.8812 25.5104 88.9398 25.1585L89.7804 19.8802C89.8586 19.3915 90.2887 19.0201 90.7774 19.0201H93.0842C97.8737 19.0201 100.63 16.6937 101.353 12.0997C101.686 10.0862 101.373 8.50269 100.435 7.40794C99.3595 6.1959 97.5219 5.55078 95.0978 5.55078Z" fill="#498DBD"/>
<path fill-rule="evenodd" clip-rule="evenodd" d="M44.0751 12.3734C43.6841 14.993 41.6901 14.993 39.7548 14.993H38.66L39.4224 10.1253C39.4615 9.83202 39.7157 9.61698 40.0285 9.61698H40.5367C41.8465 9.61698 43.0976 9.61698 43.7232 10.3598C44.1142 10.7899 44.2315 11.4546 44.0751 12.3734ZM43.2345 5.55078H35.9622C35.4735 5.55078 35.0434 5.92221 34.9652 6.41094L32.0329 25.0607C31.9742 25.4322 32.2675 25.7645 32.6389 25.7645H36.1186C36.6074 25.7645 37.0374 25.3931 37.1156 24.9043L37.9172 19.8802C37.9953 19.3915 38.4254 19.0201 38.9142 19.0201H41.2209C46.0105 19.0201 48.7669 16.6937 49.4902 12.0997C49.8225 10.0862 49.5097 8.50269 48.5714 7.40794C47.4962 6.1959 45.6781 5.55078 43.2345 5.55078Z" fill="#2A3466"/>
<path fill-rule="evenodd" clip-rule="evenodd" d="M60.1247 19.0534C59.7923 21.0474 58.2089 22.3767 56.1953 22.3767C55.1788 22.3767 54.3772 22.0444 53.8494 21.4383C53.3411 20.8323 53.1457 19.9526 53.302 18.9947C53.6148 17.0203 55.2179 15.6518 57.2119 15.6518C58.2089 15.6518 59.0104 15.9842 59.5382 16.6097C60.066 17.2157 60.2811 18.0955 60.1247 19.0534ZM64.9728 12.2698H61.4931C61.1999 12.2698 60.9457 12.4849 60.8871 12.7781L60.7307 13.7556L60.4961 13.4037C59.7337 12.3089 58.0525 11.9375 56.3908 11.9375C52.5396 11.9375 49.2554 14.8503 48.6103 18.9361C48.2779 20.9692 48.7471 22.9241 49.9005 24.2925C50.9562 25.5436 52.481 26.0715 54.2795 26.0715C57.3878 26.0715 59.1081 24.0775 59.1081 24.0775L58.9517 25.0354C58.8931 25.4068 59.1863 25.7391 59.5577 25.7391H62.6856C63.1743 25.7391 63.6044 25.3872 63.6826 24.879L65.5593 12.9541C65.6375 12.6022 65.3443 12.2698 64.9728 12.2698Z" fill="#2A3466"/>
<path fill-rule="evenodd" clip-rule="evenodd" d="M111.99 19.0534C111.658 21.0474 110.074 22.3767 108.061 22.3767C107.044 22.3767 106.242 22.0444 105.715 21.4383C105.206 20.8323 105.011 19.9526 105.167 18.9947C105.48 17.0203 107.083 15.6518 109.077 15.6518C110.074 15.6518 110.876 15.9842 111.403 16.6097C111.931 17.2157 112.127 18.0955 111.99 19.0534ZM116.838 12.2698H113.358C113.065 12.2698 112.811 12.4849 112.752 12.7781L112.596 13.7556L112.361 13.4037C111.599 12.3089 109.918 11.9375 108.256 11.9375C104.405 11.9375 101.121 14.8503 100.476 18.9361C100.143 20.9692 100.612 22.9241 101.766 24.2925C102.821 25.5436 104.346 26.0715 106.145 26.0715C109.253 26.0715 110.973 24.0775 110.973 24.0775L110.817 25.0354C110.758 25.4068 111.052 25.7391 111.423 25.7391H114.551C115.04 25.7391 115.47 25.3872 115.548 24.879L117.425 12.9541C117.483 12.6022 117.209 12.2698 116.838 12.2698Z" fill="#498DBD"/>
<path fill-rule="evenodd" clip-rule="evenodd" d="M83.5253 12.2734H80.026C79.6937 12.2734 79.3809 12.4298 79.1854 12.7231L74.3568 19.8389L72.3042 13.0163C72.1673 12.5862 71.7764 12.293 71.3463 12.293H67.9056C67.4951 12.293 67.2019 12.7035 67.3387 13.0945L71.1899 24.4134L67.5538 29.5157C67.2605 29.9262 67.5538 30.4736 68.0425 30.4736H71.5418C71.8741 30.4736 72.1869 30.3172 72.3628 30.0435L83.9945 13.2509C84.2877 12.8404 84.0141 12.2734 83.5253 12.2734Z" fill="#2A3466"/>
<path fill-rule="evenodd" clip-rule="evenodd" d="M120.946 6.07665L117.955 25.0588C117.896 25.4302 118.189 25.7625 118.561 25.7625H121.571C122.06 25.7625 122.49 25.3911 122.568 24.9024L125.52 6.2526C125.579 5.88116 125.286 5.54883 124.914 5.54883H121.552C121.239 5.54883 120.985 5.78341 120.946 6.07665Z" fill="#498DBD"/>
<path fill-rule="evenodd" clip-rule="evenodd" d="M12.6256 28.2174L13.522 22.5345L13.5758 22.2118C13.6116 21.9429 13.755 21.6919 13.9702 21.5126C14.1853 21.3334 14.4542 21.2258 14.7231 21.2258H15.4402C16.6234 21.2258 17.7169 21.1003 18.685 20.8493C19.7069 20.5804 20.6211 20.1681 21.4099 19.6123C22.2346 19.0207 22.9158 18.2678 23.4536 17.3714C24.0273 16.4213 24.4396 15.274 24.6906 13.9474C24.9237 12.7821 24.9595 11.7602 24.8161 10.8639C24.6727 9.93166 24.2962 9.12494 23.7405 8.47956C23.3999 8.08517 22.9696 7.76248 22.4497 7.47564H22.4318V7.45771C22.6111 6.29245 22.6111 5.3423 22.4139 4.49973C22.2167 3.67508 21.8223 2.92214 21.1948 2.20505C19.9041 0.735018 17.5735 0 14.2391 0H5.0962C4.79144 0 4.48668 0.107565 4.25362 0.304764C4.02057 0.501964 3.85923 0.770869 3.82337 1.07563L0.0228088 25.2236C-0.0130456 25.4387 0.0586632 25.6717 0.202081 25.8331C0.345498 25.9944 0.560624 26.102 0.77575 26.102H6.45867V26.1378L6.06427 28.6118C6.02842 28.809 6.0822 29.0062 6.20769 29.1496C6.33318 29.293 6.51245 29.3827 6.70965 29.3827H11.4783C11.7472 29.3827 11.9982 29.293 12.2133 29.1138C12.4105 28.9345 12.5539 28.7014 12.5898 28.4325L12.6256 28.2174Z" fill="#2A3466"/>
<path fill-rule="evenodd" clip-rule="evenodd" d="M9.38507 7.51149C9.43885 7.13502 9.68983 6.81233 10.0125 6.65099C10.1559 6.57928 10.3352 6.54342 10.5145 6.54342H17.6854C18.5279 6.54342 19.3347 6.59721 20.0517 6.7227C20.2669 6.75855 20.4641 6.79441 20.6613 6.83026C20.8585 6.86612 21.0377 6.91989 21.2349 6.97368C21.3246 6.9916 21.4142 7.02746 21.5038 7.06331C21.8624 7.1888 22.1851 7.3143 22.4898 7.47564C22.8484 5.18096 22.4898 3.62129 21.2529 2.22297C19.8904 0.663305 17.4344 0 14.2792 0H5.13632C4.49095 0 3.95313 0.466109 3.84557 1.11149L0.00914825 25.2594C-0.0625605 25.7434 0.295984 26.1737 0.780018 26.1737H6.42708L9.38507 7.51149Z" fill="#2A3466"/>
<path fill-rule="evenodd" clip-rule="evenodd" d="M22.4704 7.47852C22.4345 7.65779 22.4166 7.83706 22.3807 8.01633C21.1796 14.2012 17.0564 16.3525 11.7858 16.3525H9.09669C8.45131 16.3525 7.9135 16.8186 7.80593 17.464L6.04907 28.6505C5.97736 29.0629 6.30005 29.4393 6.7303 29.4393H11.481C12.0367 29.4393 12.5208 29.027 12.6104 28.4713L12.6642 28.2382L13.5606 22.5553L13.6143 22.2326C13.704 21.6769 14.188 21.2645 14.7438 21.2645H15.4608C20.0681 21.2645 23.6715 19.4001 24.7292 13.9682C25.1774 11.7093 24.9443 9.80905 23.7791 8.48244C23.4205 8.08804 22.9903 7.74742 22.4704 7.47852Z" fill="#498DBD"/>
<path fill-rule="evenodd" clip-rule="evenodd" d="M21.2142 6.97322C21.0349 6.91944 20.8378 6.86566 20.6406 6.8298C20.4434 6.79395 20.2462 6.74017 20.031 6.72224C19.3139 6.59675 18.5072 6.54297 17.6646 6.54297H10.4938C10.3145 6.54297 10.1531 6.57882 9.9918 6.65053C9.66911 6.81188 9.41813 7.11664 9.36435 7.51104L7.84054 17.1738L7.80469 17.4606C7.91225 16.8332 8.45007 16.3491 9.09544 16.3491H11.7845C17.0551 16.3491 21.1784 14.2158 22.3795 8.013C22.4153 7.83373 22.4512 7.65446 22.4691 7.47518C22.1644 7.31384 21.8417 7.17042 21.4831 7.06286C21.3935 7.027 21.3039 7.00907 21.2142 6.97322Z" fill="#20264C"/>
</svg>
