<svg width="41" height="40" viewBox="0 0 41 40" fill="none" xmlns="http://www.w3.org/2000/svg">
<path d="M40.0889 37.0259C37.1396 31.9272 32.5947 28.2711 27.2908 26.538C29.9143 24.9761 31.9527 22.5963 33.0928 19.7638C34.2329 16.9314 34.4118 13.803 33.6018 10.8591C32.7919 7.91516 31.038 5.31851 28.6094 3.46789C26.1809 1.61726 23.212 0.61499 20.1587 0.61499C17.1054 0.61499 14.1366 1.61726 11.708 3.46789C9.27948 5.31851 7.52557 7.91516 6.71564 10.8591C5.9057 13.803 6.08452 16.9314 7.22463 19.7638C8.36475 22.5963 10.4031 24.9761 13.0267 26.538C7.72272 28.2692 3.17782 31.9252 0.228574 37.0259C0.12042 37.2023 0.0486821 37.3985 0.0175932 37.603C-0.0134957 37.8075 -0.00330608 38.0162 0.047561 38.2167C0.098428 38.4173 0.188942 38.6056 0.313763 38.7705C0.438584 38.9355 0.595182 39.0738 0.77432 39.1773C0.953457 39.2808 1.1515 39.3473 1.35678 39.373C1.56205 39.3987 1.77039 39.383 1.9695 39.3269C2.16862 39.2708 2.35447 39.1753 2.5161 39.0462C2.67773 38.9171 2.81187 38.7569 2.91059 38.5751C6.5589 32.2699 13.0073 28.5054 20.1587 28.5054C27.3101 28.5054 33.7586 32.2699 37.4069 38.5751C37.5056 38.7569 37.6397 38.9171 37.8014 39.0462C37.963 39.1753 38.1488 39.2708 38.348 39.3269C38.5471 39.383 38.7554 39.3987 38.9607 39.373C39.166 39.3473 39.364 39.2808 39.5431 39.1773C39.7223 39.0738 39.8789 38.9355 40.0037 38.7705C40.1285 38.6056 40.219 38.4173 40.2699 38.2167C40.3208 38.0162 40.331 37.8075 40.2999 37.603C40.2688 37.3985 40.197 37.2023 40.0889 37.0259ZM9.31449 14.5628C9.31449 12.4181 9.9505 10.3214 11.1421 8.53811C12.3337 6.75479 14.0273 5.36485 16.0088 4.54408C17.9903 3.7233 20.1708 3.50855 22.2743 3.92698C24.3779 4.34541 26.3102 5.37822 27.8268 6.89481C29.3434 8.41141 30.3762 10.3437 30.7946 12.4472C31.213 14.5508 30.9983 16.7312 30.1775 18.7128C29.3567 20.6943 27.9668 22.3879 26.1835 23.5795C24.4001 24.7711 22.3035 25.4071 20.1587 25.4071C17.2836 25.404 14.5271 24.2605 12.4941 22.2275C10.4611 20.1945 9.31757 17.438 9.31449 14.5628Z" fill="#225A4B"/>
</svg>
