<svg width="41" height="42" viewBox="0 0 41 42" fill="none" xmlns="http://www.w3.org/2000/svg">
<path d="M2.0729 13.6331L36.3309 0.934356L36.3621 0.92462C36.9135 0.734757 37.5071 0.703469 38.0755 0.834315C38.6438 0.965162 39.164 1.25289 39.5769 1.66477C39.9898 2.07664 40.2788 2.59613 40.411 3.16414C40.5433 3.73215 40.5134 4.32587 40.3249 4.87776C40.3226 4.8884 40.3193 4.89883 40.3152 4.90892L27.6067 39.1669C27.398 39.7777 27.0021 40.3073 26.4753 40.6803C25.9485 41.0533 25.3175 41.2508 24.672 41.2447H24.6136C23.9554 41.2397 23.3162 41.0233 22.7903 40.6275C22.2644 40.2317 21.8796 39.6773 21.6926 39.0462L21.6809 39.0072L17.4279 23.8178L2.23843 19.5648L2.19949 19.5531C1.57302 19.3603 1.02331 18.9749 0.628551 18.4516C0.233791 17.9284 0.0140991 17.294 0.000724792 16.6387C-0.0126495 15.9834 0.180977 15.3405 0.554058 14.8016C0.927139 14.2627 1.46067 13.8552 2.07875 13.637L2.0729 13.6331ZM19.1104 21.0506C19.3676 21.1228 19.602 21.26 19.7909 21.4489C19.9798 21.6378 20.117 21.8722 20.1892 22.1294L24.6681 38.129L24.6798 38.0959L37.3844 3.8554L3.1459 16.5561L3.11474 16.5678L19.1104 21.0506Z" fill="#225A4B"/>
</svg>
