<svg width="62" height="61" viewBox="0 0 62 61" fill="none" xmlns="http://www.w3.org/2000/svg">
<path d="M37.604 24.1457L24.8957 36.854M24.8957 24.1457L37.604 36.854M51.5832 33.0415C51.5832 45.7498 42.6873 52.104 32.114 55.7894C31.5603 55.977 30.9589 55.9681 30.4111 55.764C19.8123 52.104 10.9165 45.7498 10.9165 33.0415V15.2498C10.9165 14.5757 11.1843 13.9293 11.6609 13.4526C12.1376 12.976 12.7841 12.7082 13.4582 12.7082C18.5415 12.7082 24.8957 9.65817 29.3182 5.79484C29.8566 5.3348 30.5416 5.08203 31.2498 5.08203C31.9581 5.08203 32.643 5.3348 33.1815 5.79484C37.6294 9.68359 43.9582 12.7082 49.0415 12.7082C49.7156 12.7082 50.3621 12.976 50.8387 13.4526C51.3154 13.9293 51.5832 14.5757 51.5832 15.2498V33.0415Z" stroke="#FFFCF6" stroke-width="4" stroke-linecap="round" stroke-linejoin="round"/>
</svg>
