<svg width="62" height="63" viewBox="0 0 62 63" fill="none" xmlns="http://www.w3.org/2000/svg">
<path d="M55.387 35.0785V22.7493C55.387 20.9995 56.8187 19.5767 58.5783 19.5767C58.995 19.5765 59.4075 19.6585 59.7925 19.8179C60.1774 19.9773 60.5271 20.211 60.8217 20.5057C61.1162 20.8003 61.3498 21.1501 61.5091 21.5351C61.6684 21.9201 61.7503 22.3327 61.75 22.7493V39.6316C61.7489 41.9603 60.9169 44.2121 59.4035 45.9819L48.8763 57.1619C47.8315 58.1456 47.5755 59.0161 47.5755 60.3356V62.3709H36.1168L36.104 57.5282C36.104 55.6839 35.9533 53.2193 38.2614 50.8009L51.6196 37.3876C52.0853 36.9225 52.7135 36.6569 53.3716 36.6467C54.0296 36.6366 54.6657 36.8828 55.1455 37.3333C55.6252 37.7838 55.911 38.4032 55.9423 39.0605C55.9736 39.7179 55.7479 40.3616 55.3131 40.8556L48.8704 47.7572C48.4529 48.2466 47.7459 49.1693 47.3953 50.2997C47.2063 50.8866 47.1521 51.4586 47.1413 52.1154H49.215C49.2229 51.6477 49.2583 51.2716 49.3696 50.923C49.5725 50.2711 49.9762 49.6843 50.2804 49.3081L56.8207 42.1298C57.6429 41.3007 58.0939 40.2274 58.0939 39.0989C58.0939 37.4043 57.0747 35.8456 55.389 35.0775L55.387 35.0785ZM7.11301 35.0785V22.7493C7.11301 20.9995 5.68128 19.5767 3.92166 19.5767C3.50503 19.5765 3.09246 19.6585 2.70754 19.8179C2.32261 19.9773 1.97287 20.211 1.67832 20.5057C1.38377 20.8003 1.15017 21.1501 0.990882 21.5351C0.831595 21.9201 0.749742 22.3327 0.750001 22.7493V39.6316C0.750001 41.9663 1.58993 44.2212 3.09748 45.9819L13.6257 57.1619C14.6695 58.1456 14.9265 59.0161 14.9265 60.3356V62.3709H26.3852L26.398 57.5282C26.398 55.6839 26.5486 53.2193 24.2405 50.8009L10.8824 37.3876C10.4167 36.9225 9.78842 36.6569 9.13041 36.6467C8.47239 36.6366 7.83624 36.8828 7.35648 37.3333C6.87673 37.7838 6.59099 38.4032 6.5597 39.0605C6.52841 39.7179 6.75403 40.3616 7.18883 40.8556L13.6326 47.7572C14.0501 48.2466 14.7571 49.1693 15.1076 50.2997C15.2977 50.8866 15.3509 51.4586 15.3617 52.1154H13.2879C13.2801 51.6477 13.2456 51.2716 13.1324 50.923C12.9305 50.2711 12.5258 49.6843 12.2215 49.3081L5.68128 42.1308C4.85907 41.3017 4.40809 40.2274 4.40809 39.0999C4.40809 37.4043 5.42723 35.8465 7.11301 35.0785ZM32.4557 6.09046C33.1773 6.09046 33.8693 5.80382 34.3796 5.29359C34.8898 4.78337 35.1764 4.09135 35.1764 3.36979C35.1764 2.64822 34.8898 1.95621 34.3796 1.44598C33.8693 0.935755 33.1773 0.649114 32.4557 0.649114C31.7342 0.649114 31.0422 0.935755 30.5319 1.44598C30.0217 1.95621 29.7351 2.64822 29.7351 3.36979C29.7351 4.09135 30.0217 4.78337 30.5319 5.29359C31.0422 5.80382 31.7342 6.09046 32.4557 6.09046ZM17.6983 6.10523C17.3373 6.10679 16.9795 6.03717 16.6454 5.90035C16.3113 5.76354 16.0075 5.56222 15.7512 5.3079C15.495 5.05357 15.2914 4.75124 15.152 4.41818C15.0127 4.08511 14.9404 3.72786 14.9393 3.36683C14.9405 3.00589 15.0129 2.64874 15.1523 2.31579C15.2917 1.98284 15.4953 1.68063 15.7516 1.42641C16.0078 1.17219 16.3116 0.970954 16.6456 0.834203C16.9797 0.697452 17.3374 0.627865 17.6983 0.62942C19.2226 0.62942 20.4613 1.85436 20.4613 3.36683C20.4613 4.88226 19.2226 6.10523 17.6983 6.10523ZM45.9705 16.6059C46.2211 16.6057 46.4692 16.5563 46.7007 16.4602C46.9322 16.3642 47.1425 16.2235 47.3196 16.0462C47.4967 15.8689 47.6371 15.6585 47.7329 15.4269C47.8287 15.1953 47.8779 14.9472 47.8778 14.6966C47.8777 14.446 47.8282 14.1978 47.7322 13.9664C47.6362 13.7349 47.4955 13.5246 47.3182 13.3475C47.1409 13.1704 46.9305 13.0299 46.6989 12.9341C46.4673 12.8383 46.2191 12.7891 45.9685 12.7892C45.4624 12.7895 44.9771 12.9908 44.6194 13.3489C44.2617 13.7069 44.0609 14.1924 44.0612 14.6985C44.0615 15.2047 44.2628 15.6899 44.6208 16.0476C44.9789 16.4053 45.4644 16.6061 45.9705 16.6059Z" fill="#FFFCF6"/>
<path d="M48.7341 17.5379H43.5872C43.5636 17.5379 41.865 17.3833 41.865 17.3833L39.7095 9.87019C38.842 6.84525 36.3055 6.93781 36.3055 6.93781H29.328C29.328 6.93781 26.7935 6.84525 25.926 9.87019L24.8615 13.5696L23.8 9.87019C22.9276 6.84525 20.398 6.93781 20.398 6.93781H14.999C14.999 6.93781 12.4624 6.84525 11.5949 9.87019L9.42172 17.4414C9.21493 18.1504 9.6029 18.688 10.2232 18.8672C10.8416 19.0435 11.4748 18.7313 11.6333 18.1671L13.7504 10.7869L14.7813 10.785L11.6914 23.5632H14.4219V32.64C14.4219 33.3873 15.0246 33.9959 15.7739 33.9959C16.5213 33.9959 17.1328 33.3873 17.1328 32.64V23.5632H18.2779V32.64C18.2779 33.3873 18.8815 33.9959 19.6289 33.9959C19.9891 33.9964 20.3348 33.8539 20.59 33.5996C20.8452 33.3453 20.989 33.0002 20.9897 32.64V23.5632H23.673L20.6156 10.785L21.6426 10.7869L23.736 18.0893C23.7715 18.2154 23.826 18.3279 23.8995 18.4271C24.1043 18.7372 24.4617 18.9086 24.8595 18.8958C25.2574 18.9086 25.6128 18.7382 25.8176 18.433C25.9033 18.3214 25.9641 18.1928 25.9959 18.0558L28.0785 10.7859L29.0277 10.784V32.3761C29.0277 33.2583 29.7495 33.9712 30.6298 33.9712C31.5111 33.9712 32.225 33.2583 32.225 32.3761V20.0912H33.4046V32.3761C33.4046 33.2583 34.1195 33.9712 34.9978 33.9712C35.8811 33.9712 36.6048 33.2583 36.6048 32.3761V10.784L37.6368 10.7859L39.6632 18.1661C39.7735 18.5295 40.0768 18.7697 40.4402 18.8623C40.4559 18.8662 40.4638 18.8731 40.4766 18.8771C40.7996 18.9499 42.2884 19.3724 43.3814 19.6845V33.0762C43.3935 33.3657 43.5171 33.6394 43.7263 33.84C43.9355 34.0407 44.2141 34.1527 44.5039 34.1527C44.7938 34.1527 45.0724 34.0407 45.2816 33.84C45.4908 33.6394 45.6143 33.3657 45.6265 33.0762V26.3862H46.5048V33.0762C46.5048 33.6945 47.006 34.1957 47.6244 34.1957C48.2428 34.1957 48.7509 33.6945 48.7509 33.0762V20.5668H49.6125V24.8048C49.6125 25.2706 49.9896 25.6448 50.4475 25.6448C50.557 25.6445 50.6654 25.6225 50.7664 25.58C50.8673 25.5376 50.9589 25.4754 51.0356 25.3973C51.1124 25.3192 51.1729 25.2266 51.2136 25.1248C51.2542 25.0231 51.2743 24.9144 51.2726 24.8048V19.9838C51.2746 18.6338 50.0861 17.5379 48.7361 17.5379H48.7341Z" fill="#FFFCF6"/>
</svg>
