<svg width="32" height="30" viewBox="0 0 32 30" fill="none" xmlns="http://www.w3.org/2000/svg">
<path d="M14.3173 0.954611C14.6995 -0.227058 16.359 -0.227058 16.7411 0.954611L19.5324 9.60736C19.6158 9.86477 19.7779 10.089 19.9956 10.248C20.2133 10.4069 20.4754 10.4924 20.7443 10.4922H29.7807C31.0144 10.4922 31.5276 12.0825 30.5286 12.8134L23.2191 18.1593C23.0014 18.3186 22.8394 18.5433 22.7564 18.801C22.6734 19.0587 22.6735 19.3362 22.7569 19.5938L25.5482 28.2466C25.9303 29.4283 24.5856 30.4084 23.5884 29.6792L16.2789 24.3333C16.0613 24.1741 15.7992 24.0883 15.5301 24.0883C15.2611 24.0883 14.999 24.1741 14.7813 24.3333L7.46817 29.6792C6.471 30.4102 5.12628 29.4283 5.5084 28.2466L8.29975 19.5938C8.38308 19.3362 8.38325 19.0587 8.30021 18.801C8.21718 18.5433 8.05522 18.3186 7.83755 18.1593L0.528022 12.8134C-0.470965 12.0825 0.0421756 10.4922 1.2759 10.4922H10.3123C10.5812 10.4924 10.8433 10.4069 11.061 10.248C11.2787 10.089 11.4408 9.86477 11.5242 9.60736L14.3173 0.954611Z" fill="#BC870B"/>
</svg>
