<svg width="95" height="69" viewBox="0 0 95 69" fill="none" xmlns="http://www.w3.org/2000/svg">
<path d="M67.2139 49.2107L60.0316 42.0245V65.7917C60.0316 66.6227 59.7016 67.4195 59.114 68.0071C58.5265 68.5946 57.7296 68.9247 56.8987 68.9247C56.0678 68.9247 55.2709 68.5946 54.6834 68.0071C54.0958 67.4195 53.7657 66.6227 53.7657 65.7917V42.0245L46.5835 49.2107C46.2924 49.5017 45.9468 49.7326 45.5665 49.8902C45.1862 50.0477 44.7786 50.1288 44.3669 50.1288C43.9553 50.1288 43.5476 50.0477 43.1673 49.8902C42.787 49.7326 42.4414 49.5017 42.1504 49.2107C41.8593 48.9196 41.6284 48.574 41.4709 48.1937C41.3133 47.8134 41.2322 47.4058 41.2322 46.9941C41.2322 46.5824 41.3133 46.1748 41.4709 45.7945C41.6284 45.4142 41.8593 45.0686 42.1504 44.7775L54.6821 32.2458C54.9731 31.9545 55.3186 31.7234 55.699 31.5658C56.0793 31.4081 56.487 31.3269 56.8987 31.3269C57.3104 31.3269 57.7181 31.4081 58.0984 31.5658C58.4787 31.7234 58.8243 31.9545 59.1152 32.2458L71.647 44.7775C71.9381 45.0686 72.169 45.4142 72.3265 45.7945C72.484 46.1748 72.5651 46.5824 72.5651 46.9941C72.5651 47.4058 72.484 47.8134 72.3265 48.1937C72.169 48.574 71.9381 48.9196 71.647 49.2107C71.3559 49.5017 71.0104 49.7326 70.63 49.8902C70.2497 50.0477 69.8421 50.1288 69.4305 50.1288C69.0188 50.1288 68.6112 50.0477 68.2309 49.8902C67.8505 49.7326 67.505 49.5017 67.2139 49.2107ZM60.0316 5.20269e-07C53.6309 0.00482911 47.3577 1.79054 41.9139 5.15735C36.4702 8.52416 32.0706 13.3393 29.2074 19.0639C25.7985 18.563 22.3229 18.7703 18.9976 19.673C15.6724 20.5756 12.569 22.1541 9.88128 24.31C7.19354 26.4659 4.97917 29.1528 3.37648 32.2029C1.77378 35.253 0.817196 38.6008 0.566456 42.0372C0.315716 45.4736 0.776208 48.9249 1.91917 52.1753C3.06214 55.4258 4.86303 58.4056 7.20936 60.9288C9.5557 63.452 12.3971 65.4643 15.5561 66.8401C18.715 68.2158 22.1237 68.9255 25.5693 68.9247H41.234C42.0649 68.9247 42.8618 68.5946 43.4493 68.0071C44.0368 67.4195 44.3669 66.6227 44.3669 65.7917C44.3669 64.9608 44.0368 64.164 43.4493 63.5764C42.8618 62.9889 42.0649 62.6588 41.234 62.6588H25.5693C20.5838 62.6588 15.8026 60.6783 12.2773 57.1531C8.7521 53.6279 6.77164 48.8466 6.77164 43.8612C6.77164 38.8757 8.7521 34.0945 12.2773 30.5692C15.8026 27.044 20.5838 25.0635 25.5693 25.0635C26.0001 25.0635 26.4308 25.0635 26.8577 25.1105C26.0013 28.1539 25.5677 31.3007 25.5693 34.4623C25.5693 35.2932 25.8994 36.0901 26.4869 36.6777C27.0744 37.2652 27.8713 37.5953 28.7022 37.5953C29.5331 37.5953 30.33 37.2652 30.9175 36.6777C31.5051 36.0901 31.8352 35.2932 31.8352 34.4623C31.8359 29.379 33.2109 24.3904 35.8146 20.0245C38.4183 15.6585 42.1538 12.0777 46.6259 9.66084C51.098 7.244 56.1402 6.08109 61.2191 6.29517C66.2979 6.50924 71.2244 8.09234 75.4772 10.8769C79.7301 13.6615 83.151 17.544 85.3781 22.1136C87.6051 26.6831 88.5554 31.7697 88.1284 36.8351C87.7014 41.9005 85.913 46.7563 82.9524 50.8885C79.9918 55.0207 75.9692 58.2758 71.3102 60.3091C70.6487 60.5959 70.1063 61.1021 69.7746 61.7423C69.4428 62.3825 69.3421 63.1175 69.4894 63.8234C69.6366 64.5292 70.0228 65.1626 70.5828 65.6168C71.1428 66.071 71.8424 66.3181 72.5634 66.3165C72.9951 66.3162 73.422 66.2254 73.8166 66.0502C81.0746 62.8842 87.0209 57.3153 90.6554 50.2802C94.2899 43.2452 95.3908 35.1731 93.7731 27.4216C92.1553 19.6702 87.9175 12.7123 81.7725 7.71823C75.6275 2.72418 67.9501 -0.00137484 60.0316 5.20269e-07Z" fill="black"/>
</svg>
