<svg width="81" height="26" viewBox="0 0 81 26" fill="none" xmlns="http://www.w3.org/2000/svg">
<path d="M52.5527 0.0664062C54.5944 0.0664484 56.6234 0.442543 58.5498 1.15625L57.4385 6.35156C55.4577 5.43067 53.2589 5.05496 51.0732 5.26562L51.0713 5.2666C49.1735 5.52054 48.2693 6.48969 48.2549 7.43945C48.2374 8.22088 48.8299 8.81853 49.6826 9.37402C50.1114 9.65332 50.6126 9.92636 51.1475 10.209C51.683 10.492 52.2529 10.7847 52.8232 11.1064C55.1067 12.3947 57.3666 14.1256 57.3535 17.4023C57.3337 19.9878 56.22 22.1175 54.2666 23.5957C52.3116 25.0751 49.5118 25.9043 46.1201 25.8779C43.2521 25.8517 40.4784 25.2543 38.9658 24.5781L40.1182 19.208C41.62 19.9077 43.5192 20.8239 46.7441 20.7715C47.6861 20.7581 48.6658 20.5644 49.4141 20.1582C50.1168 19.7767 50.6224 19.2032 50.6885 18.4131L50.6953 18.252C50.7021 17.6795 50.4825 17.1919 49.9443 16.6943C49.4094 16.1998 48.5563 15.6922 47.2891 15.0752V15.0742C46.0576 14.4783 44.6328 13.6768 43.5215 12.5771C42.4113 11.4785 41.6161 10.085 41.6357 8.30371C41.6555 5.87891 42.7858 3.82181 44.709 2.36914C46.6333 0.915744 49.3541 0.0664062 52.5527 0.0664062ZM11.208 0.543945C12.6604 0.543945 13.8932 1.60722 14.127 3.04785V3.0498L16.8594 17.5869L16.9023 17.8125L16.9863 17.5996L23.748 0.556641H30.4023L19.9453 25.5332H13.1699L8.00977 5.54102C7.85038 4.92338 7.70213 4.49217 7.46973 4.15039C7.23609 3.80689 6.92065 3.55907 6.43848 3.29785C4.87993 2.45254 2.3328 1.66224 0.078125 1.16992L0.211914 0.543945H11.208ZM69.5957 0.543945H75.1006L80.3125 25.5205H74.4395L73.6543 21.8193L73.6426 21.7666H65.1992L65.1836 21.8105L63.8467 25.5205H57.1748L66.8857 2.36035V2.35938C67.3266 1.25731 68.4031 0.531121 69.5957 0.543945ZM39.71 0.543945L34.3662 25.5205H28.0029L33.3457 0.543945H39.71ZM70.4893 7.24609L67.0674 16.6768L67.0352 16.7656H72.5967L72.5801 16.6855L70.6172 7.25488L70.5693 7.02637L70.4893 7.24609Z" fill="#1C32C2" stroke="#225A4B" stroke-width="0.132641"/>
</svg>
