<svg width="1320" height="1134" viewBox="0 0 1320 1134" fill="none" xmlns="http://www.w3.org/2000/svg">
<path d="M917.227 49.7343C914.678 53.4785 903.664 61.9719 900.894 62.3794C900.102 62.4958 898.015 63.881 896.475 65.3205C891.761 69.9221 879.117 76.499 870.34 79.1376C865.821 80.4763 860.87 82.5522 859.442 83.8404C856.23 86.7388 830.872 96.6683 817.762 100.079C812.582 101.515 806.332 103.917 803.981 105.341C801.63 106.765 796.151 108.918 791.876 110.086C787.581 111.122 781.311 113.392 777.753 114.859C774.347 116.438 767.002 118.732 761.652 119.923C756.302 121.114 748.488 123.881 744.329 125.84C740.17 127.8 726.575 132.495 714.202 136.336C701.81 140.046 689.12 144.473 685.977 146.014C682.854 147.686 677.791 149.913 674.609 151.19C653.429 159.292 646.388 161.81 642.694 162.354C640.32 162.703 636.273 164.511 633.584 166.389C630.915 168.399 626.287 170.832 623.33 171.806C612.975 175.62 596.393 182.911 595.117 184.311C593.615 186.015 581.479 192.382 572.746 196.227C569.32 197.675 561.401 202.478 555.159 206.766C549.048 211.034 543.124 214.735 542.069 214.891C541.013 215.046 539.341 216.505 538.236 218.15C537.13 219.795 535.458 221.254 534.402 221.409C532.292 221.719 520.672 229.763 518.139 232.696C515.248 235.951 502.689 244.941 500.579 245.252C499.655 245.388 498.208 246.544 497.328 247.886C496.036 250.098 491.939 253.396 483.477 259.088C481.39 260.473 478.084 263.655 476.152 266.095C474.22 268.536 470.763 271.605 468.525 272.878C466.286 274.15 463.392 276.463 462.135 277.995C460.858 279.396 456.536 282.997 452.513 285.88C448.509 288.894 444.676 292.154 444.04 293.325C443.404 294.497 439.947 297.566 436.3 300.259C432.653 302.952 426.791 307.992 423.28 311.608C419.768 315.224 415.784 318.371 414.465 318.565C413.146 318.759 410.965 320.427 409.635 322.375C408.304 324.323 404.529 327.978 401.126 330.5C397.875 333.134 394.061 336.525 392.785 337.926C391.528 339.459 389.029 341.713 387.319 342.908C383.803 345.581 377.98 350.885 368.459 360.372C362.562 366.091 351.443 376.621 343.61 383.838C341.938 385.297 337.752 389.821 334.167 393.852C330.601 398.016 325.662 402.92 323.37 404.74C320.964 406.711 316.984 410.8 314.601 413.846C312.087 416.911 307.847 421.982 305.089 425.218C289.566 442.461 244.931 500.912 245.28 503.287C245.396 504.078 243.15 508.047 240.283 512.377C237.265 516.595 232.993 523.288 230.596 527.144C228.198 531.001 224.881 535.936 223.306 538.055C221.731 540.173 219.71 543.84 218.833 546.125C217.975 548.542 215.151 554.079 212.303 558.541C209.588 562.983 206.465 569.238 205.441 572.353C204.416 575.469 202.737 579.624 201.689 581.665C200.642 583.706 198.473 588.203 196.979 591.792C195.354 595.4 193.146 599.633 192.041 601.278C191.067 602.904 188.565 608.797 186.664 614.198C184.782 619.731 182.618 625.171 181.981 626.342C181.345 627.514 179.312 632.934 177.656 638.164C175.867 643.414 174.133 648.116 173.512 648.477C172.217 649.746 162.483 680.692 161.324 687.466C159.392 699.071 157.018 708.584 155.237 711.137C154.356 712.48 153.092 716.709 152.692 720.406C151.284 730.99 149.418 740.294 147.172 748.846C146.059 753.187 145.384 758.677 145.714 760.92C146.044 763.162 145.703 767.256 145.035 770.049C144.349 772.711 143.732 778.596 143.6 783.198C143.449 787.667 142.247 793.235 141.087 795.427C138.355 800.681 140.299 805.651 144.327 803.711C145.832 802.95 150.558 801.177 154.814 799.877C159.05 798.445 165.374 795.628 168.723 793.653C175.889 789.23 190.244 776.876 194.558 771.39C196.265 769.252 199.004 765.884 200.862 763.859C206.212 758.085 226.278 731.414 232.124 722.603C234.972 718.141 240.124 710.106 243.647 704.736C247.018 699.254 252.62 690.613 255.898 685.414C259.196 680.347 264.666 671.725 267.925 666.394C271.184 661.063 276.375 653.292 279.281 649.226C282.187 645.159 284.452 641.322 284.355 640.663C284.22 639.739 287.478 634.408 300.444 614.442C318.88 585.855 350.926 542.597 364.404 527.946C365.812 526.526 366.898 524.749 367.084 524.183C367.251 523.484 370.89 518.906 375.15 513.967C379.43 509.159 386.82 499.851 391.658 493.345C396.515 486.97 401.749 480.405 403.421 478.946C405.074 477.355 408.492 474.023 411.084 471.485C413.675 468.947 418.804 464.42 422.412 461.463C426.021 458.506 430.905 454.149 433.12 451.802C435.316 449.322 439.433 446.156 442.141 444.41C444.868 442.796 448.139 440.294 449.415 438.893C450.672 437.36 455.297 433.985 459.735 431.175C464.193 428.498 468.798 424.991 470.187 423.439C471.425 421.774 472.985 420.467 473.512 420.389C474.568 420.234 486.416 412.831 491.906 408.923C497.621 404.713 510.471 397.702 515.216 396.061C517.644 395.164 521.012 393.321 522.684 391.862C526.253 388.642 537.998 383.276 553.625 377.742C560.046 375.585 566.258 372.919 567.724 371.895C569.773 370.246 593.735 364.565 613.161 361.034C624.051 359.027 643.039 358.93 648.421 360.699C651.404 361.742 655.746 362.855 657.954 363.205C664.557 364.12 664.782 368.399 658.536 376.326C655.591 380.129 652.55 383.271 651.626 383.407C650.703 383.543 648.918 385.153 647.568 386.969C646.369 388.897 643.157 391.796 640.581 393.522C638.024 395.381 634.602 397.771 632.911 399.098C631.2 400.293 627.91 402.664 625.559 404.088C623.207 405.512 619.654 407.921 617.566 409.306C615.611 410.672 611.564 412.48 608.74 413.435C605.896 414.258 602.152 416.291 600.387 418.033C598.602 419.643 594.726 421.696 591.638 422.689C588.53 423.55 584.879 425.3 583.452 426.588C582.004 427.745 578.373 429.627 575.265 430.488C572.177 431.481 567.285 433.953 564.239 436.153C561.193 438.353 557.449 440.386 555.735 440.638C554.02 440.891 551.234 442.109 549.411 443.455C547.587 444.802 543.672 446.591 540.98 447.526C538.155 448.48 533.546 451.045 530.764 453.206C527.983 455.367 524.634 457.342 523.315 457.536C522.016 457.862 518.741 459.422 516.052 461.3C513.364 463.178 509.957 464.757 508.658 465.083C506.547 465.394 490.279 475.738 479.92 483.192C472.494 488.597 462.799 496.896 459.195 500.795C456.999 503.275 452.343 508.272 448.832 511.888C439.99 521.41 429.473 536.029 427.909 540.976C425.209 549.19 422.8 554.8 420.589 558.09C419.239 559.906 418.381 562.323 418.537 563.379C418.692 564.434 418.145 568.962 417.466 573.509C416.655 578.076 415.798 585.075 415.682 588.865C415.453 592.807 415.027 599.069 414.647 602.899C414.379 606.577 414.488 610.065 415.093 610.515C416.284 611.283 423.206 607.031 428.335 602.503C432.261 598.96 444.412 591.782 446.919 591.413C448.106 591.239 451.229 589.566 453.766 587.576C458.636 584.03 466.104 579.831 479.295 573.309C483.059 571.407 487.893 568.54 489.829 567.042C491.897 565.525 494.531 564.194 495.85 564C497.169 563.806 499.691 562.627 501.515 561.28C503.358 560.066 507.932 558.18 511.812 557.07C515.691 555.961 520.339 553.66 522.105 551.917C523.889 550.307 528.235 547.781 531.831 546.578C539.137 544.021 547.983 540.025 559.723 533.716C573.232 526.607 585.372 521.183 588.934 520.659C590.912 520.368 593.772 518.734 595.386 516.88C597.151 515.138 605.166 510.994 613.298 507.641C621.43 504.289 629.221 500.447 630.649 499.159C633.993 496.241 655.037 487.216 664.36 484.632C668.24 483.522 672.795 481.504 674.467 480.045C677.342 477.601 686.129 473.209 700.492 467.322C704.182 465.836 707.926 463.803 708.714 462.744C710.459 460.87 721.447 454.941 730.18 451.096C732.966 449.877 736.745 447.165 738.471 445.159C740.349 443.266 742.774 441.427 743.961 441.252C745.148 441.077 747.876 439.463 749.773 437.702C751.802 435.921 754.398 434.326 755.585 434.151C756.772 433.977 759.197 432.138 761.055 430.112C762.782 428.106 765.676 425.794 767.445 424.994C769.214 424.195 771.659 422.488 772.974 421.351C774.27 420.082 776.264 418.98 777.583 418.786C778.902 418.592 780.97 417.075 782.208 415.411C783.445 413.746 787.503 410.184 791.414 407.453C795.325 404.721 802.072 399.281 806.355 395.417C810.657 391.684 816.388 386.664 819.282 384.351C822.176 382.039 827.755 376.905 831.585 372.703C835.565 368.614 840.372 363.729 842.23 361.704C847.507 356.345 866.397 332.678 866.692 331.017C866.839 330.187 868.806 327.067 871.076 324.173C876.383 317.193 886.85 299.481 887.572 296.14C887.905 294.744 889.236 292.796 890.439 291.81C891.773 290.805 893.29 288.291 893.791 286.196C894.978 281.439 898.675 272.675 900.96 268.969C901.953 267.475 904.285 261.337 906.088 255.277C907.912 249.349 910.003 244.324 910.662 244.227C911.322 244.13 912.14 241.449 912.598 238.147C912.943 234.997 913.665 231.656 914.208 230.768C914.751 229.879 915.736 226.5 916.326 223.179C917.048 219.838 918.219 215.892 919.232 214.53C920.9 212.129 921.784 207.147 923.953 188.904C924.48 184.244 925.423 179.658 926.059 178.486C926.695 177.315 927.459 175.181 927.774 173.652C928.883 168.368 929.705 143.719 929.223 132.2C928.971 125.903 929.467 118.283 930.247 115.338C931.86 108.901 929.799 80.2294 926.415 59.9729C923.768 44.7291 922.007 42.832 917.227 49.7343Z" fill="black" fill-opacity="0.85"/>
<path d="M394.411 1083.7C397.183 1080.12 408.694 1072.31 411.484 1072.08C412.281 1072.01 414.448 1070.75 416.073 1069.41C421.058 1065.1 434.079 1059.31 442.999 1057.21C447.592 1056.14 452.66 1054.37 454.164 1053.18C457.546 1050.48 483.461 1042.11 496.754 1039.5C502.012 1038.38 508.397 1036.37 510.83 1035.09C513.263 1033.81 518.862 1031.99 523.201 1031.09C527.551 1030.31 533.947 1028.43 537.588 1027.18C541.084 1025.81 548.554 1023.97 553.967 1023.11C559.38 1022.24 567.347 1019.96 571.618 1018.25C575.889 1016.55 589.744 1012.69 602.327 1009.61C614.922 1006.66 627.858 1003.01 631.089 1001.67C634.308 1000.19 639.497 998.272 642.75 997.191C664.384 990.393 671.566 988.307 675.285 987.99C677.677 987.785 681.826 986.227 684.624 984.516C687.41 982.672 692.178 980.525 695.188 979.733C705.756 976.555 722.751 970.286 724.11 968.966C725.713 967.357 738.213 961.74 747.164 958.433C750.672 957.196 758.868 952.883 765.36 948.983C771.718 945.095 777.857 941.76 778.92 941.67C779.983 941.579 781.74 940.225 782.944 938.65C784.148 937.075 785.906 935.72 786.968 935.63C789.094 935.448 801.181 928.126 803.889 925.353C806.972 922.279 820.054 914.069 822.179 913.888C823.109 913.809 824.624 912.742 825.585 911.456C827.009 909.327 831.299 906.284 840.091 901.117C842.259 899.862 845.752 896.887 847.828 894.569C849.905 892.25 853.542 889.397 855.854 888.263C858.166 887.129 861.196 884.996 862.544 883.543C863.903 882.223 868.436 878.892 872.627 876.259C876.807 873.493 880.831 870.473 881.537 869.342C882.244 868.211 885.881 865.358 889.685 862.892C893.489 860.426 899.647 855.752 903.371 852.356C907.096 848.96 911.264 846.061 912.593 845.948C913.921 845.835 916.199 844.302 917.646 842.439C919.093 840.575 923.083 837.157 926.632 834.846C930.038 832.414 934.051 829.262 935.41 827.941C936.758 826.488 939.389 824.39 941.169 823.301C944.84 820.846 950.976 815.906 961.056 807.016C967.29 801.666 979.029 791.832 987.286 785.105C989.044 783.75 993.498 779.489 997.321 775.683C1001.13 771.745 1006.36 767.15 1008.76 765.473C1011.28 763.652 1015.5 759.812 1018.07 756.917C1020.76 754.01 1025.3 749.206 1028.25 746.144C1044.8 729.878 1092.9 674.249 1092.7 671.858C1092.63 671.061 1095.11 667.235 1098.24 663.088C1101.51 659.062 1106.18 652.641 1108.81 648.937C1111.43 645.233 1115.05 640.509 1116.75 638.49C1118.45 636.472 1120.69 632.935 1121.7 630.707C1122.71 628.347 1125.86 622.992 1128.97 618.711C1131.96 614.442 1135.45 608.389 1136.67 605.342C1137.88 602.294 1139.81 598.249 1140.98 596.276C1142.15 594.302 1144.58 589.946 1146.29 586.454C1148.13 582.951 1150.6 578.86 1151.8 577.286C1152.87 575.722 1155.73 569.992 1157.95 564.717C1160.17 559.308 1162.66 554.011 1163.36 552.88C1164.07 551.749 1166.43 546.462 1168.4 541.343C1170.51 536.212 1172.52 531.623 1173.16 531.301C1174.53 530.113 1186.13 499.817 1187.7 493.125C1190.34 481.66 1193.28 472.308 1195.22 469.868C1196.18 468.582 1197.7 464.438 1198.32 460.771C1200.37 450.292 1202.8 441.119 1205.56 432.72C1206.93 428.454 1207.94 423.015 1207.75 420.757C1207.56 418.499 1208.15 414.434 1208.98 411.686C1209.83 409.071 1210.8 403.234 1211.21 398.649C1211.64 394.197 1213.18 388.712 1214.47 386.595C1217.51 381.517 1215.87 376.438 1211.74 378.13C1210.19 378.797 1205.36 380.28 1201.04 381.319C1196.72 382.49 1190.24 384.917 1186.77 386.685C1179.35 390.664 1164.27 402.122 1159.63 407.336C1157.8 409.366 1154.86 412.561 1152.88 414.47C1147.19 419.907 1125.54 445.308 1119.17 453.748C1116.06 458.028 1110.42 465.735 1106.58 470.881C1102.88 476.148 1096.77 484.432 1093.18 489.422C1089.58 494.279 1083.59 502.552 1080.02 507.675C1076.44 512.798 1070.78 520.239 1067.64 524.121C1064.49 528.003 1061.99 531.695 1062.05 532.36C1062.13 533.29 1058.55 538.413 1044.4 557.553C1024.26 584.966 989.64 626.195 975.296 639.999C973.803 641.331 972.611 643.038 972.391 643.592C972.182 644.279 968.271 648.628 963.719 653.299C959.155 657.837 951.212 666.678 945.987 672.879C940.751 678.946 935.128 685.181 933.37 686.535C931.624 688.023 928.009 691.141 925.268 693.517C922.527 695.892 917.132 700.099 913.351 702.831C909.569 705.563 904.429 709.615 902.075 711.823C899.732 714.164 895.431 717.074 892.622 718.652C889.801 720.098 886.385 722.397 885.025 723.717C883.677 725.17 878.856 728.259 874.255 730.793C869.643 733.194 864.832 736.415 863.352 737.879C862.015 739.466 860.379 740.676 859.848 740.721C858.785 740.812 846.508 747.481 840.79 751.047C834.83 754.901 821.578 761.118 816.742 762.468C814.263 763.215 810.789 764.85 809.032 766.204C805.273 769.202 793.224 773.844 777.289 778.416C770.749 780.179 764.386 782.462 762.86 783.396C760.715 784.917 736.453 789.13 716.847 791.474C705.855 792.814 686.896 791.756 681.632 789.663C678.718 788.44 674.452 787.065 672.27 786.582C665.734 785.267 665.77 780.982 672.486 773.45C675.657 769.833 678.884 766.881 679.814 766.802C680.744 766.723 682.623 765.224 684.081 763.494C685.395 761.642 688.778 758.944 691.454 757.377C694.119 755.678 697.68 753.5 699.449 752.278C701.23 751.19 704.658 749.023 707.091 747.745C709.525 746.467 713.218 744.278 715.386 743.022C717.421 741.778 721.57 740.219 724.447 739.438C727.336 738.79 731.197 736.988 733.065 735.357C734.944 733.858 738.937 732.045 742.08 731.241C745.235 730.57 748.985 729.046 750.489 727.847C752.003 726.781 755.743 725.123 758.897 724.452C762.04 723.649 767.074 721.479 770.247 719.468C773.421 717.458 777.282 715.656 779.009 715.509C780.736 715.361 783.591 714.314 785.493 713.081C787.395 711.848 791.411 710.301 794.155 709.531C797.033 708.75 801.789 706.471 804.697 704.483C807.605 702.495 811.067 700.727 812.396 700.614C813.713 700.367 817.076 699.009 819.874 697.298C822.672 695.588 826.168 694.218 827.485 693.972C829.611 693.791 846.478 684.455 857.271 677.645C865.012 672.702 875.194 665.007 879.029 661.335C881.371 658.993 886.322 654.288 890.047 650.892C899.451 641.926 910.839 627.973 912.7 623.131C915.894 615.096 918.64 609.643 921.048 606.493C922.506 604.763 923.509 602.403 923.418 601.34C923.327 600.277 924.148 595.791 925.102 591.293C926.189 586.784 927.471 579.85 927.817 576.074C928.285 572.153 929.092 565.928 929.704 562.129C930.195 558.474 930.298 554.986 929.722 554.5C928.579 553.661 921.412 557.485 916.017 561.692C911.883 564.989 899.317 571.415 896.793 571.631C895.598 571.733 892.378 573.212 889.725 575.045C884.649 578.288 876.939 582.025 863.376 587.733C859.503 589.402 854.504 591.97 852.48 593.347C850.324 594.735 847.614 595.904 846.285 596.017C844.957 596.131 842.368 597.155 840.466 598.388C838.552 599.488 833.872 601.092 829.932 601.964C825.992 602.835 821.212 604.849 819.344 606.481C817.465 607.98 812.974 610.237 809.311 611.218C801.864 613.327 792.791 616.778 780.689 622.361C766.772 628.635 754.325 633.311 750.738 633.617C748.745 633.787 745.792 635.244 744.068 636.997C742.2 638.629 733.947 642.277 725.627 645.129C717.306 647.981 709.296 651.341 707.792 652.54C704.277 655.249 682.723 662.978 673.26 664.99C669.32 665.862 664.651 667.599 662.893 668.954C659.875 671.219 650.836 675.068 636.142 680.07C632.369 681.329 628.508 683.131 627.658 684.14C625.801 685.905 614.473 691.154 605.522 694.461C602.667 695.508 598.731 697.985 596.885 699.883C594.896 701.658 592.364 703.346 591.168 703.449C589.972 703.551 587.152 704.996 585.151 706.639C583.017 708.293 580.33 709.727 579.134 709.829C577.938 709.931 575.406 711.619 573.428 713.528C571.583 715.425 568.553 717.557 566.739 718.248C564.924 718.938 562.381 720.493 560.999 721.548C559.628 722.736 557.571 723.714 556.242 723.828C554.914 723.941 552.757 725.33 551.421 726.916C550.084 728.502 545.817 731.81 541.747 734.299C537.678 736.788 530.613 741.807 526.102 745.404C521.581 748.868 515.555 753.531 512.526 755.663C509.496 757.795 503.615 762.58 499.538 766.541C495.316 770.381 490.221 774.964 488.243 776.873C482.65 781.9 462.356 804.376 461.96 806.015C461.763 806.835 459.61 809.829 457.168 812.58C451.446 819.224 439.921 836.267 438.998 839.557C438.58 840.931 437.133 842.794 435.873 843.705C434.48 844.627 432.813 847.044 432.186 849.105C430.712 853.781 426.488 862.304 423.982 865.864C422.9 867.294 420.199 873.279 418.03 879.219C415.85 885.025 413.457 889.913 412.793 889.97C412.128 890.027 411.148 892.653 410.491 895.921C409.955 899.045 409.031 902.335 408.435 903.189C407.839 904.043 406.65 907.356 405.859 910.635C404.936 913.926 403.527 917.793 402.433 919.091C400.622 921.386 399.436 926.305 396.162 944.383C395.353 949.002 394.133 953.522 393.426 954.653C392.72 955.783 391.827 957.867 391.421 959.374C389.992 964.581 387.673 989.134 387.453 1000.66C387.322 1006.96 386.363 1014.54 385.406 1017.43C383.404 1023.76 383.717 1052.5 385.863 1072.93C387.578 1088.3 389.221 1090.3 394.411 1083.7Z" fill="#225A4B" fill-opacity="0.9"/>
</svg>
